<?xml version="1.0" standalone="no"?>
<!DOCTYPE svg PUBLIC "-//W3C//DTD SVG 1.1//EN" "http://www.w3.org/Graphics/SVG/1.1/DTD/svg11.dtd" >
<svg xmlns="http://www.w3.org/2000/svg">
<metadata>Generated by IcoMoon</metadata>
<defs>
<font id="icomoon" horiz-adv-x="1024">
<font-face units-per-em="1024" ascent="960" descent="-64" />
<missing-glyph horiz-adv-x="1024" />
<glyph unicode="&#x20;" horiz-adv-x="512" d="" />
<glyph unicode="&#xe900;" horiz-adv-x="2240" d="M743.142 288.446l-4.098 178.955c0 0-100.881-70.38-162.562-88.795-18.512-5.527-39.085-15.228-56.009-1.366-9.040 7.405-12.376 10.624-16.263 24.761-1.94 7.055 4.191 19.572-6.961 25.783-10.027 5.585-30.385 11.482-45.788 8.678-36.051-6.562-99.899-31.651-135.665-49.095-67.944-33.138-120.253-79.939-162.797-122.146s-81.964-124.312-81.964-124.312h210.375c0 0 67.386 79.492 109.286 101.089s103.998 44.561 131.143 27.321c27.144-17.239 13.661-57.375 13.661-57.375s102.227 24.995 136.607 40.982c34.38 15.987 71.036 35.518 71.036 35.518z" />
<glyph unicode="&#xe901;" horiz-adv-x="2240" d="M745.874 681.874c0 0-4.545-34.191-1.806-78.289 2.564-41.284-0.63-80.76-3.658-118.425-2.014-25.055-6.34-16.975-40.654-41.665s-71.932-41.241-98.685-53.96c-26.753-12.719-52.588-21.496-69.67-16.393 0 0-18.982 3.362-23.353 14.978-6.391 16.981 3.602 38.775-32.656 46.495s-114.091-26.496-165.626-53.042c-61.008-31.426-115.957-71.451-164.963-123.181-30.070-31.742-75.134-116.116-75.134-116.116l-1.366 214.473c0 0 119.136 131.363 188.518 166.66s174.13 67 210.375 46.446c36.244-20.554-19.635-17.601 10.929-32.786s116.25 29.233 161.196 54.643c44.946 25.409 106.553 90.161 106.553 90.161z" />
<glyph unicode="&#xe902;" horiz-adv-x="2240" d="M71.036 362.214c0.010-0.008 111.055 116.496 180.321 158.464 25.234 15.289 51.669 28.323 82.164 37.592 53.212 16.174 107.677 27.716 132.309 12.953 38.748-23.224-11.686-23.458 4.098-32.786s40.8-3.584 72.292 8.555c23.023 8.875 58.139 26.502 80.708 36.525 52.636 23.377 114.411 79.582 121.58 101.089l1.366 221.303c0 0-81.263-107.294-131.143-142.071s-127.732-83.288-158.464-65.571c-30.732 17.717 23.348 5.496-10.929 30.054s-147.901-8.514-202.178-30.054c-54.277-21.539-88.846-49.337-117.482-73.768s-57.375-65.571-57.375-65.571z" />
<glyph unicode="&#xe903;" glyph-name="checkmark2" d="M397.434 42.304l-397.868 391.6 197.378 194.27 200.49-197.332 429.62 422.852 197.378-194.27-626.998-617.12zM107.912 433.904l289.524-284.962 518.656 510.482-89.036 87.632-429.62-422.852-200.49 197.334-89.034-87.634z" />
<glyph unicode="&#xe904;" glyph-name="warning" d="M512 867.226l429.102-855.226h-858.206l429.104 855.226zM512 960c-22.070 0-44.14-14.882-60.884-44.648l-437.074-871.112c-33.486-59.532-5-108.24 63.304-108.24h869.308c68.3 0 96.792 48.708 63.3 108.24h0.002l-437.074 871.112c-16.742 29.766-38.812 44.648-60.882 44.648v0zM576 128c0-35.346-28.654-64-64-64s-64 28.654-64 64c0 35.346 28.654 64 64 64s64-28.654 64-64zM512 256c-35.346 0-64 28.654-64 64v192c0 35.346 28.654 64 64 64s64-28.654 64-64v-192c0-35.346-28.654-64-64-64z" />
<glyph unicode="&#xe905;" horiz-adv-x="2240" d="M118.813 325.281l-5.796 25.115 17.387-16.421 21.251 10.626-5.796-20.285 12.557-16.421h-20.285l-11.591-21.251-3.864 23.183-25.115 1.932z" />
<glyph unicode="&#xe906;" horiz-adv-x="2240" d="M185.375 386.145l-5.796 25.115 17.387-16.421 21.251 10.626-5.796-20.285 12.557-16.421h-20.285l-11.591-21.251-3.864 23.183-25.115 1.932z" />
<glyph unicode="&#xe907;" horiz-adv-x="2240" d="M260.719 441.205l-5.796 25.115 17.387-16.421 21.251 10.626-5.796-20.285 12.557-16.421h-20.285l-11.591-21.251-3.864 23.183-25.115 1.932z" />
<glyph unicode="&#xe908;" horiz-adv-x="2240" d="M344.757 482.741l-5.796 25.115 17.387-16.421 21.251 10.626-5.796-20.285 12.557-16.421h-20.285l-11.591-21.251-3.864 23.183-25.115 1.932z" />
<glyph unicode="&#xe909;" horiz-adv-x="2240" d="M430.728 497.23l-5.796 25.115 17.387-16.421 21.251 10.626-5.796-20.285 12.557-16.421h-20.285l-11.591-21.251-3.864 23.183-25.115 1.932z" />
<glyph unicode="&#xe90a;" horiz-adv-x="2240" d="M503.174 477.911l-5.796 25.115 17.387-16.421 21.251 10.626-5.796-20.285 12.557-16.421h-20.285l-11.591-21.251-3.864 23.183-25.115 1.932z" />
<glyph unicode="&#xe90b;" horiz-adv-x="2240" d="M585.84 498.679l-5.796 25.115 17.387-16.421 21.251 10.626-5.796-20.285 12.557-16.421h-20.285l-11.591-21.251-3.864 23.183-25.115 1.932z" />
<glyph unicode="&#xe90c;" horiz-adv-x="2240" d="M666.421 536.835l-5.796 25.115 17.387-16.421 21.251 10.626-5.796-20.285 12.557-16.421h-20.285l-11.591-21.251-3.864 23.183-25.115 1.932z" />
<glyph unicode="&#xe90d;" glyph-name="iaveg" horiz-adv-x="1365" d="M62.987 66.182c-3.3 35.788 27.691 510.001 32.929 503.876 2.85-3.332 29.281-366.228 33.936-465.95l1.929-41.312h-34.241c-25.42 0-34.321 0.872-34.553 3.386zM185.206 224.659l0.002 115.81-26.835-1.86 1.325 9.057c0.729 4.981 3.58 26.493 6.336 47.805s5.602 39.339 6.324 40.061c0.722 0.722 17.927 2.064 38.233 2.982l36.919 1.669v-233.418l15.353 1.585c12.502 1.29 15.093 0.877 13.957-2.227-0.768-2.097-5.498-24.841-10.511-50.542l-9.115-46.73h-71.991l0.002 115.81zM93.221 624.764c-6.751 8.134-27.44 51.183-26.179 54.47 1.552 4.043 5.785 5.317 122.225 36.763 113.585 30.675 532.385 135.511 537.356 134.513 2.058-0.413-14.995-7.675-37.897-16.138s-89.182-33.017-147.29-54.565c-214.67-79.604-435.192-158.958-441.736-158.958-1.776 0-4.692 1.762-6.479 3.915zM234.908 462.567l-24.793 19.816-25.105-18.802c-13.808-10.341-25.499-18.408-25.98-17.927s3.383 13.517 8.586 28.969c5.204 15.452 9.461 28.916 9.461 29.921s-12.19 11.285-27.090 22.844c-14.899 11.559-27.090 21.611-27.090 22.336s14.828 0.873 32.951 0.327l32.951-0.991 22.465 67.334 8.472-26.895c4.66-14.792 9.31-30.326 10.334-34.519l1.862-7.625 30.816 1.898c16.949 1.044 30.816 1.27 30.816 0.503s-11.569-10.381-25.709-21.363c-14.14-10.982-25.721-21.252-25.735-22.822s4.251-15.556 9.479-31.081c5.228-15.525 9.19-29.017 8.804-29.983s-11.859 7.161-25.495 18.060zM98.695 62.032c-25.608 0.531-33.144 1.096-34.981 2.622-2.122 1.762-2.26 4.234-1.471 26.413 1.354 38.071 5.745 120.988 10.221 193.039 2.242 36.096 3.828 69.924 3.524 75.175-0.424 7.317-0.298 8.281 0.54 4.128 0.729-3.615 0.948-0.233 0.657 10.159-0.309 11.037-0.112 13.8 0.677 9.481 0.786-4.305 0.982-1.521 0.666 9.481-0.31 10.788-0.098 13.911 0.69 10.159 0.798-3.802 0.991-1.177 0.647 8.804-0.331 9.595-0.105 12.9 0.696 10.159 0.809-2.772 1.018 0.027 0.658 8.804-0.36 8.76-0.15 11.57 0.656 8.804 0.807-2.769 1.018 0.034 0.662 8.804-0.361 8.882-0.151 11.609 0.677 8.804 0.824-2.791 1.028-0.033 0.651 8.804-0.377 8.835-0.157 11.807 0.7 9.481 0.862-2.337 1.058 0.183 0.633 8.127-0.435 8.128-0.224 10.717 0.719 8.804s1.155 0.675 0.72 8.804c-0.425 7.955-0.229 10.467 0.635 8.127 0.87-2.354 1.076 0.123 0.677 8.127-0.406 8.148-0.201 10.523 0.702 8.127 0.905-2.402 1.114-0.041 0.721 8.127-0.393 8.163-0.201 10.331 0.66 7.45s1.071-0.517 0.721 8.127c-0.292 7.198-0.109 9.972 0.445 6.772 0.889-5.13 0.995-4.896 1.996 4.402 0.581 5.401 1.553 9.82 2.16 9.82 1.622 0 2.462-5.439 4.416-28.61 1.395-16.543 1.938-19.575 2.64-14.734 0.486 3.352 0.682-0.305 0.437-8.127-0.317-10.081-0.116-12.644 0.689-8.804 0.802 3.829 1.001 1.247 0.677-8.804-0.326-10.13-0.129-12.663 0.687-8.804 0.823 3.895 1.011 1.611 0.669-8.127-0.333-9.49-0.126-12.126 0.691-8.804s1.025 0.686 0.691-8.804c-0.343-9.764-0.155-12.032 0.672-8.127 0.819 3.865 1.015 1.34 0.685-8.804-0.32-9.835-0.12-12.551 0.649-8.804 0.763 3.718 0.973 0.744 0.67-9.481-0.315-10.639-0.125-13.156 0.666-8.804 0.793 4.367 0.985 1.87 0.677-8.804-0.311-10.775-0.12-13.212 0.689-8.804 0.797 4.339 0.993 1.608 0.683-9.481-0.306-10.928-0.107-13.758 0.666-9.481 0.786 4.346 0.978 1.819 0.672-8.804-0.311-10.775-0.12-13.212 0.689-8.804 0.797 4.339 0.993 1.608 0.683-9.481-0.32-11.431-0.128-13.954 0.721-9.481 0.952 5.012 1.053 4.29 0.572-4.063-0.797-13.839 2.489-62.476 3.66-54.18 0.505 3.579 0.634 1.784 0.311-4.349-0.302-5.744-0.086-17.325 0.481-25.735 0.848-12.584 1.185-14.212 1.904-9.196 0.538 3.753 0.667 2.131 0.335-4.219-0.296-5.673-0.076-17.559 0.489-26.413 0.913-14.308 1.123-15.27 1.881-8.649 0.469 4.097 0.676-0.779 0.46-10.836-0.279-12.962-0.082-16.117 0.677-10.836s0.956 2.126 0.677-10.836c-0.265-12.333-0.049-16.081 0.665-11.513 0.76 4.86 0.921 2.755 0.573-7.45-0.267-7.822 0.579-33.326 1.881-56.675s2.058-42.549 1.681-42.667c-0.377-0.118-15.373 0.091-33.325 0.463zM97.857 61.968c-27.968 0.645-32.425 1.043-34.455 3.075-2.178 2.179-2.223 5.052-0.682 43.344 0.907 22.555 3.251 67.829 5.207 100.608s3.611 69.655 3.677 81.947c0.075 14.090 0.459 19.846 1.038 15.577 0.53-3.908 0.728 0.102 0.468 9.481-0.248 8.94-0.020 14.425 0.508 12.19 0.543-2.302 1.010 3.864 1.076 14.222 0.064 10.057 1.703 38.705 3.642 63.661 9.089 116.985 12.323 154.432 13.138 152.147 0.583-1.634 1.22-0.058 1.874 4.635 1.917 13.75 4.015 9.506 5.793-11.723 0.863-10.304 1.085-11.019 1.933-6.223 0.576 3.259 0.737 0.831 0.402-6.095-0.306-6.332-0.099-10.431 0.459-9.108s2.418-15.744 4.132-37.926c9.258-119.773 12.227-163.435 11.729-172.498-0.427-7.78-0.276-8.983 0.668-5.315 0.886 3.443 1.069 1.219 0.668-8.127-0.304-7.081-0.069-11.675 0.524-10.215 1.392 3.432 2.986-21.758 2.162-34.182-0.373-5.631-0.19-7.814 0.481-5.72 1.415 4.418 3.032-20.118 2.244-34.048-0.329-5.808-0.149-8.276 0.43-5.91 1.232 5.035 5.551-68.236 4.99-84.656-0.324-9.496-0.207-10.327 0.673-4.741 0.708 4.499 0.946-0.049 0.707-13.545-0.227-12.858-0.009-17.334 0.596-12.19 0.544 4.633 0.764-2.063 0.512-15.577-0.244-13.037-0.899-23.733-1.457-23.768s-15.469 0.27-33.137 0.677zM98.826 60.62c11.312 0.825 10.558 0.941-10.452 1.605-17.738 0.561-23.057 1.194-24.557 2.923-1.49 1.717-2.048 9.396-2.515 34.575-0.33 17.802-0.251 27.072 0.176 20.598 0.68-10.303 0.907-8.47 1.826 14.713 0.577 14.566 2.271 49.656 3.764 77.978s2.436 57.784 2.096 65.472c-0.385 8.715-0.242 11.484 0.382 7.356 0.668-4.423 1.007 0.461 1.021 14.713 0.022 22.114 3.941 86.509 12.044 197.86 7.18 98.669 7.739 105.176 8.972 104.349 0.631-0.423 1.147 0.55 1.147 2.164s0.677 4.797 1.504 7.075c1.397 3.848 1.582 3.933 2.614 1.199 0.611-1.618 1.239-5.26 1.398-8.092l0.287-5.149 1.072 5.885c0.743 4.080 0.901 2.050 0.516-6.621-0.325-7.313-0.094-11.295 0.557-9.589 0.762 1.997 1.361-1.020 1.899-9.563 0.432-6.864 3.263-46.908 6.291-88.986s7.059-100.341 8.959-129.473c6.091-93.389 7.807-121.157 12.911-208.922 2.212-38.033 4.13-70.805 4.262-72.828 0.486-7.459-0.327-14.219-2.011-16.721-1.504-2.235-4.647-2.626-24.042-2.99-14.072-0.264-17.81-0.091-10.121 0.47zM132.989 80.261c-0.299 2.612-0.539 0.114-0.533-5.55s0.251-7.801 0.544-4.749c0.293 3.053 0.288 7.687-0.011 10.299v0zM73.786 355.572c1.831 9.52 19.743 74.81 20.813 75.865 0.29 0.286 2.034 0.338 2.361 0.071 0.706-0.577 20.447-74.946 20.447-77.029v-0.582h-43.943l0.322 1.674zM95.939 423.934c0.479 0.369 0.331 2.030-0.189 2.125-0.295 0.054-0.483-0.177-0.487-0.597-0.003-0.377-0.14-0.926-0.304-1.219-0.3-0.538 0.397-0.758 0.979-0.309zM240.851 453.658c-15.672 12.402-29.056 22.955-29.743 23.449l-1.249 0.899-29.597-22.016c-16.278-12.109-29.666-21.947-29.75-21.862s5.124 15.979 11.574 35.321c10.63 31.878 11.652 35.222 10.93 35.754-3.632 2.674-62.849 49.191-62.748 49.291 0.072 0.072 17.143-0.499 37.937-1.268s37.943-1.246 38.109-1.060c0.167 0.187 5.848 17 12.625 37.363s12.384 36.957 12.46 36.874c0.076-0.082 5.355-16.743 11.73-37.024s11.741-37.035 11.925-37.231c0.184-0.196 15.711-0.031 34.505 0.367s34.259 0.636 34.367 0.528c0.108-0.108-13.070-10.688-29.284-23.511s-29.48-23.569-29.48-23.879c0-0.31 5.495-17.047 12.212-37.193s12.158-36.792 12.092-36.99c-0.066-0.198-12.943 9.787-28.614 22.189zM255.964 466.815c-5.637 16.84-10.266 30.384-10.287 30.097-0.020-0.286 2.563-8.475 5.742-18.198 6.379-19.51 10.023-31.695 10.023-33.517 0-1.81-1.293-1.96-4.123-0.479-3.316 1.736-17.281 12.286-33.849 25.571l-13.31 10.672-16.621-12.396c-17.005-12.683-27.114-19.933-31.486-22.583-2.707-1.64-4.051-1.561-4.051 0.238 0 1.777 3.74 14.157 10.695 35.408 3.535 10.799 6.558 20.389 6.72 21.31s-4.657-13.072-10.707-31.097c-6.050-18.025-10.906-32.867-10.792-32.981s6.952 4.814 15.195 10.952c8.243 6.138 20.757 15.452 27.808 20.697s13.085 9.424 13.409 9.285c0.324-0.138 12.975-10.060 28.113-22.048s27.579-21.741 27.646-21.674c0.067 0.068-4.49 13.901-10.127 30.741zM165.187 513.642c0 0.091-0.485 0.576-1.077 1.077l-1.077 0.912 0.912-1.077c0.857-1.013 1.243-1.295 1.243-0.912zM162.061 516.299c-0.519 0.499-6.763 5.487-13.874 11.086-19.513 15.362-26.099 20.979-26.099 22.257 0 0.711 0.365 1.174 1.077 1.365 0.593 0.159 5.926 0.325 11.852 0.369l10.775 0.080-8.62 0.357c-4.741 0.196-11.493 0.486-15.005 0.643-3.84 0.172-6.321 0.11-6.226-0.157 0.154-0.43 46.383-36.833 46.837-36.882 0.124-0.013-0.199 0.383-0.718 0.882zM287.174 541.611c6.118 4.84 11.249 9.002 11.402 9.249 0.161 0.261-0.886 0.433-2.504 0.411-1.53-0.022-2.512-0.147-2.183-0.279 1.302-0.526 0.452-2.127-2.634-4.962-2.955-2.715-8.667-7.356-28.47-23.129-3.872-3.084-7.184-5.84-7.36-6.126-0.3-0.485 3.375 2.389 31.75 24.836zM248.992 549.638l9.338 0.644-24.627-0.203-1.897 6.002c-1.043 3.301-2.923 9.285-4.177 13.297s-2.357 7.218-2.45 7.124c-0.093-0.093 1.102-4.454 2.657-9.689s3.307-11.494 3.894-13.908l1.067-4.389 3.428 0.239c1.886 0.132 7.631 0.529 12.767 0.883zM199.346 584.112c10.352 30.828 11.168 33.041 12.173 33.005 1.226-0.043 1.222-0.064 0.377 2.193-0.439 1.171-0.717 1.46-0.923 0.958-0.596-1.449-23.277-69.678-23.241-69.914 0.082-0.528 0.892 1.826 11.614 33.758zM264.676 550.681c-0.461 0.12-1.215 0.12-1.676 0s-0.084-0.219 0.838-0.219c0.922 0 1.299 0.099 0.838 0.219zM224.046 580.956c-0.324 1.081-0.677 1.877-0.785 1.769s0.069-1.080 0.393-2.161c0.324-1.081 0.677-1.877 0.785-1.769s-0.069 1.080-0.393 2.161zM221.422 589.346c-0.176 0.702-0.413 1.184-0.526 1.071s-0.061-0.779 0.115-1.481c0.176-0.702 0.413-1.184 0.525-1.071s0.061 0.779-0.115 1.481zM218.633 598.11c-0.159 0.159-0.272-0.124-0.252-0.629 0.023-0.558 0.136-0.671 0.289-0.289 0.138 0.346 0.121 0.759-0.038 0.918v0zM216.154 606.107c-0.176 0.702-0.413 1.184-0.525 1.071s-0.061-0.779 0.115-1.481c0.176-0.702 0.413-1.184 0.525-1.071s0.061 0.779-0.115 1.481zM213.281 615.206c-0.176 0.702-0.413 1.184-0.525 1.071s-0.061-0.779 0.115-1.481c0.176-0.702 0.413-1.184 0.525-1.071s0.061 0.779-0.115 1.481zM119.037 550.39c-2.596 2.090-2.409 2.213 2.364 1.559 1.675-0.23 2.060-0.409 1.384-0.646-0.515-0.18-1.045-0.882-1.177-1.559l-0.239-1.23-2.331 1.877zM256.348 441.292c-7.113 5.593-20.311 15.987-29.33 23.098s-16.761 12.914-17.206 12.894c-0.444-0.020-11.044-7.657-23.555-16.971-30.755-22.897-35.539-26.391-35.789-26.142-0.118 0.118 4.846 15.477 11.032 34.132s11.376 34.492 11.535 35.194c0.265 1.17-0.161 1.627-5.097 5.469-22.379 17.418-57.801 45.397-57.657 45.541 0.097 0.097 8.989-0.144 19.759-0.535 42.133-1.531 55.758-1.879 56.165-1.436 0.226 0.246 5.728 16.394 12.226 35.884s12.092 36.084 12.431 36.874l0.615 1.437 0.536-1.676c0.295-0.922 5.092-16.115 10.661-33.762s10.635-33.702 11.26-35.677l1.135-3.592 17.856 0.302c9.821 0.166 25.372 0.458 34.557 0.65 11.814 0.246 16.609 0.198 16.385-0.164-0.174-0.282-10.168-8.32-22.208-17.863-32.364-25.651-36.598-29.143-36.294-29.936 1.351-3.52 24.264-73.544 24.114-73.694-0.109-0.109-6.018 4.377-13.131 9.97zM259.948 454.515c-3.245 9.748-5.978 17.647-6.073 17.552s0.698-2.847 1.762-6.118c3.099-9.526 5.805-19.077 5.805-20.489 0-3.549-2.479-2.539-13.197 5.375-3.935 2.906-6.888 5.002-6.56 4.658 1.088-1.143 23.825-19.009 23.996-18.854 0.092 0.084-2.488 8.128-5.733 17.876zM164.109 446.305c4.807 3.534 8.74 6.513 8.74 6.621s-2.317-1.39-5.148-3.326c-8.146-5.572-9.697-6.092-9.697-3.254 0 1.744 2.62 10.71 7.854 26.874 2.255 6.963 4.018 12.741 3.919 12.84-0.182 0.182-15.604-45.757-15.604-46.48 0-0.561 0.336-0.334 9.937 6.725zM174.286 453.855c0.328 0.395 0.488 0.718 0.357 0.718s-0.508-0.323-0.836-0.718c-0.328-0.395-0.488-0.718-0.357-0.718s0.508 0.323 0.836 0.718zM240.851 456.191c0 0.099-0.377 0.477-0.838 0.838-0.76 0.596-0.776 0.579-0.181-0.181 0.626-0.798 1.019-1.051 1.019-0.657zM229.358 465.29c0 0.099-0.377 0.477-0.838 0.838-0.76 0.596-0.776 0.579-0.181-0.181 0.626-0.798 1.019-1.051 1.019-0.657zM226.963 467.205c0 0.099-0.377 0.477-0.838 0.838-0.76 0.596-0.776 0.579-0.181-0.181 0.626-0.798 1.019-1.051 1.019-0.657zM224.569 469.121c0 0.099-0.377 0.477-0.838 0.838-0.76 0.596-0.776 0.579-0.181-0.181 0.626-0.798 1.019-1.051 1.019-0.657zM222.653 470.542c0 0.091-0.485 0.576-1.077 1.077l-1.077 0.912 0.912-1.077c0.857-1.013 1.243-1.296 1.243-0.912zM220.259 472.479c0 0.232-8.59 7.136-9.578 7.699-1.281 0.729-0.048-0.357 4.699-4.141 4.752-3.787 4.878-3.879 4.878-3.558zM209.244 479.715c0.328 0.395 0.488 0.718 0.357 0.718s-0.508-0.323-0.836-0.718c-0.328-0.395-0.488-0.718-0.357-0.718s0.508 0.323 0.836 0.718zM140.285 533.292c0 0.099-0.377 0.477-0.838 0.838-0.76 0.596-0.776 0.579-0.181-0.181 0.626-0.798 1.019-1.051 1.019-0.657zM137.89 535.207c0 0.099-0.377 0.477-0.838 0.838-0.76 0.596-0.776 0.579-0.181-0.181 0.626-0.798 1.019-1.051 1.019-0.657zM135.975 536.644c0 0.099-3.033 2.71-6.741 5.802s-6.86 5.932-7.006 6.312c-0.146 0.38-0.53 0.589-0.854 0.464s-1.428 0.506-2.452 1.4c-1.025 0.894-2.061 1.63-2.302 1.635-0.647 0.013-0.549-0.070 9.685-8.214 9.762-7.768 9.67-7.698 9.67-7.4zM282.514 538.139c0.328 0.395 0.488 0.718 0.357 0.718s-0.508-0.323-0.836-0.718c-0.328-0.395-0.488-0.718-0.357-0.718s0.508 0.323 0.836 0.718zM297.65 550.164c1.086 0.865 0.781 1.144-1.248 1.144-1.702 0-1.916-0.128-1.916-1.147 0-1.217-2.526-3.871-8.021-8.427-5.52-4.576-3.064-2.939 3.763 2.508 3.716 2.965 7.056 5.629 7.423 5.922zM248.344 549.815c0.676 0.181-2.347 0.242-6.717 0.137-6.42-0.155-7.989-0.066-8.168 0.463-0.122 0.36-1.206 3.672-2.408 7.359-2.448 7.509-2.437 7.206 0.088-2.332l1.758-6.642 7.109 0.343c3.91 0.189 7.662 0.491 8.338 0.671zM131.186 551.812c-2.884 0.513-10.712 0.492-9.099-0.024 0.658-0.211 3.46-0.378 6.226-0.371 4.019 0.009 4.596 0.089 2.873 0.396v0zM211.423 617.395c0.763 0 0.837 0.685 0.235 2.155-0.373 0.911-0.415 0.899-0.86-0.239-0.257-0.658-0.614-1.736-0.794-2.394-0.272-0.996-0.238-1.057 0.199-0.359 0.289 0.461 0.838 0.838 1.22 0.838zM256.621 441.076c-6.961 5.475-20.199 15.927-29.418 23.227s-17.084 13.194-17.479 13.1c-0.395-0.094-10.955-7.788-23.465-17.097-30.96-23.036-35.54-26.381-35.789-26.132-0.118 0.118 4.846 15.477 11.032 34.132s11.375 34.488 11.533 35.184c0.27 1.192-0.986 2.262-21.618 18.417-31.185 24.417-41.297 32.439-41.115 32.621 0.088 0.088 8.971-0.161 19.741-0.552 42.133-1.531 55.758-1.879 56.165-1.436 0.226 0.246 5.316 15.208 11.312 33.25 11.542 34.731 13.645 40.862 13.925 40.582 0.096-0.096 4.392-13.522 9.548-29.836s10.436-33.002 11.735-37.085l2.361-7.423 18.087 0.302c9.948 0.166 25.495 0.459 34.55 0.652 11.429 0.243 16.368 0.197 16.153-0.151-0.17-0.276-10.165-8.315-22.21-17.866-32.244-25.566-36.604-29.16-36.309-29.93 1.329-3.463 24.263-73.569 24.115-73.717-0.108-0.108-5.891 4.284-12.853 9.759zM260.025 454.303c-3.293 9.86-6.058 17.856-6.146 17.768s1.029-3.899 2.482-8.469c5.47-17.215 5.928-19.65 3.755-19.958-1.379-0.196-4.431 1.678-12.441 7.637-3.49 2.597-6.345 4.631-6.345 4.522s4.364-3.638 9.697-7.841c5.334-4.203 10.771-8.529 12.083-9.614s2.502-1.972 2.644-1.972c0.142 0-2.436 8.067-5.729 17.927zM163.74 445.996c5.010 3.711 9.109 6.842 9.109 6.959s-2.317-1.383-5.148-3.333c-8.114-5.587-9.697-6.122-9.697-3.276 0 1.768 2.634 10.754 8.089 27.597 2.384 7.361 4.255 13.462 4.159 13.559-0.174 0.174-16.079-47.201-16.079-47.893 0-0.197 0.103-0.359 0.229-0.359s4.328 3.036 9.338 6.747zM174.286 453.855c0.328 0.395 0.488 0.718 0.357 0.718s-0.508-0.323-0.836-0.718c-0.328-0.395-0.488-0.718-0.357-0.718s0.508 0.323 0.836 0.718zM240.851 456.191c0 0.099-0.377 0.477-0.838 0.838-0.76 0.596-0.776 0.579-0.181-0.181 0.626-0.798 1.019-1.051 1.019-0.657zM238.457 458.106c0 0.099-0.377 0.477-0.838 0.838-0.76 0.596-0.776 0.579-0.181-0.181 0.626-0.798 1.019-1.051 1.019-0.657zM229.358 465.29c0 0.099-0.377 0.477-0.838 0.838-0.76 0.596-0.776 0.579-0.181-0.181 0.626-0.798 1.019-1.051 1.019-0.657zM226.963 467.205c0 0.099-0.377 0.477-0.838 0.838-0.76 0.596-0.776 0.579-0.181-0.181 0.626-0.798 1.019-1.051 1.019-0.657zM224.569 469.121c0 0.099-0.377 0.477-0.838 0.838-0.76 0.596-0.776 0.579-0.181-0.181 0.626-0.798 1.019-1.051 1.019-0.657zM222.653 470.542c0 0.091-0.485 0.576-1.077 1.077l-1.077 0.912 0.912-1.077c0.857-1.013 1.243-1.296 1.243-0.912zM220.259 472.487c0 0.43-9.741 7.946-10.299 7.946-0.329 0-0.894-0.358-1.256-0.795-0.598-0.724-0.565-0.738 0.374-0.153 0.944 0.588 1.329 0.412 4.549-2.068 1.935-1.491 4.165-3.246 4.955-3.9 1.501-1.243 1.676-1.35 1.676-1.029zM207.808 478.822c0 0.132-0.646-0.221-1.437-0.784s-1.437-1.131-1.437-1.262c0-0.132 0.646 0.221 1.437 0.784s1.437 1.131 1.437 1.262zM140.285 533.292c0 0.099-0.377 0.477-0.838 0.838-0.76 0.596-0.776 0.579-0.181-0.181 0.626-0.798 1.019-1.051 1.019-0.657zM137.89 535.207c0 0.099-0.377 0.477-0.838 0.838-0.76 0.596-0.776 0.579-0.181-0.181 0.626-0.798 1.019-1.051 1.019-0.657zM135.975 536.649c0 0.103-2.92 2.613-6.489 5.58s-6.796 5.832-7.172 6.369c-0.376 0.537-0.825 0.835-0.997 0.662s-1.186 0.433-2.252 1.346c-1.066 0.913-2.151 1.659-2.411 1.659-0.678 0-0.696 0.015 9.653-8.229 9.699-7.726 9.668-7.702 9.668-7.388zM282.514 538.139c0.328 0.395 0.488 0.718 0.357 0.718s-0.508-0.323-0.836-0.718c-0.328-0.395-0.488-0.718-0.357-0.718s0.508 0.323 0.836 0.718zM295.537 548.399c1.5 1.205 2.739 2.353 2.754 2.551s-0.835 0.359-1.888 0.359c-1.689 0-1.916-0.132-1.916-1.121 0-1.112-2.384-3.625-8.62-9.087-2.465-2.159 3.583 2.405 9.67 7.299zM249.208 549.928c0.138 0.138-3.298 0.154-7.636 0.035-6.419-0.176-7.929-0.093-8.11 0.445-0.123 0.363-1.204 3.678-2.403 7.365s-2.096 6.273-1.994 5.747c0.259-1.337 3.716-14.312 3.894-14.612 0.183-0.308 15.908 0.679 16.249 1.020v0zM131.186 551.828c-2.215 0.377-11.16 0.474-9.211 0.099 0.597-0.115 0.994-0.355 0.882-0.533s2.202-0.237 5.141-0.129c4.44 0.163 4.979 0.258 3.188 0.563zM211.423 617.395c0.763 0 0.837 0.685 0.235 2.155-0.373 0.911-0.415 0.899-0.86-0.239-0.257-0.658-0.614-1.736-0.794-2.394-0.272-0.996-0.238-1.057 0.199-0.359 0.289 0.461 0.838 0.838 1.22 0.838zM261.665 436.944c-4.205 3.268-15.403 12.060-24.884 19.539-21.292 16.793-26.543 20.715-27.329 20.413-0.871-0.334-6.532-4.461-31.575-23.017-27.992-20.742-27.051-20.063-27.388-19.726-0.157 0.158 4.689 15.43 10.769 33.939s11.197 34.236 11.37 34.949c0.411 1.692 0.948 1.215-18.934 16.825-9.087 7.134-22.663 17.828-30.17 23.764l-13.648 10.793 2.271 0.146c1.249 0.080 14.754-0.297 30.012-0.838s31.399-0.984 35.869-0.984c7.296 0 8.162 0.086 8.458 0.838 0.181 0.461 5.705 16.867 12.275 36.459s12.13 35.951 12.355 36.354c0.35 0.626 0.452 0.599 0.693-0.183 3.834-12.401 23.341-73.672 23.508-73.839 0.129-0.129 12.579 0.013 27.667 0.314 31.846 0.636 41.090 0.676 41.057 0.178-0.013-0.197-2.761-2.537-6.106-5.199-26.083-20.757-49.019-39.126-50.618-40.538l-1.916-1.692 3.007-9.029c9.56-28.702 21.183-64.56 21.053-64.951-0.083-0.25-3.591 2.22-7.796 5.488zM265.017 438.411c-1.445 4.844-5.712 17.536-5.85 17.399-0.095-0.095 0.378-2.073 1.051-4.395 1.359-4.687 1.572-7.62 0.58-8-0.932-0.357-4.286 1.261-7.926 3.824-1.739 1.225-2.987 2.029-2.772 1.788 0.782-0.88 14.467-11.625 14.847-11.659 0.215-0.020 0.247 0.451 0.070 1.043zM160.997 444.238c2.831 2.043 5.148 3.799 5.148 3.902s-1.326-0.67-2.948-1.718c-1.621-1.048-3.453-1.905-4.071-1.905-0.984 0-1.123 0.229-1.123 1.843 0 1.014 0.886 4.839 1.969 8.5 2.957 9.996 2.711 9.621-1.205-1.836-4.046-11.837-4.581-13.778-3.58-13.009 0.363 0.279 2.978 2.18 5.809 4.223zM127.834 543.348c0 0.099-0.377 0.477-0.838 0.838-0.76 0.596-0.776 0.579-0.181-0.181 0.626-0.798 1.019-1.051 1.019-0.657zM124.012 546.749c-1.158 1.18-2.226 2.024-2.374 1.876-0.241-0.241 3.725-3.972 4.26-4.007 0.121-0.009-0.728 0.951-1.886 2.131zM297.215 550.901c-1.029 0.576-2.728-0.090-2.728-1.069 0-0.487-0.7-1.691-1.556-2.675-1.382-1.59-1.193-1.501 1.687 0.796 2.304 1.837 3.056 2.691 2.598 2.948zM243.684 549.698c0.11 0.096-2.11 0.174-4.932 0.174h-5.131l-1.42 3.113 0.311-1.676c0.171-0.922 0.409-1.843 0.53-2.048 0.206-0.349 10.212 0.062 10.643 0.437zM211.79 617.754c0.114 0.197 0.056 0.776-0.129 1.285-0.337 0.928-0.574 0.759-1.131-0.806-0.295-0.83 0.813-1.251 1.26-0.479zM265.013 434.245c-2.359 1.797-13.232 10.304-24.162 18.905-24.48 19.263-30.031 23.452-31.078 23.452-0.969 0 1.443 1.731-31.549-22.634-14.559-10.752-26.821-19.683-27.249-19.847-0.649-0.249-0.721-0.068-0.437 1.097 0.241 0.99 19.212 59.459 22.112 68.151 0.41 1.23 0.757 0.949-57.832 46.98l-5.181 4.071 3.471 0.146c1.909 0.080 13.169-0.186 25.021-0.591 40.415-1.383 46.863-1.47 47.691-0.642 0.403 0.403 6.082 16.652 12.62 36.109s12.165 35.914 12.506 36.572c0.47 0.909 0.681 1.024 0.877 0.479 0.142-0.395 4.38-13.756 9.417-29.691 12.173-38.509 13.868-43.753 14.283-44.179 0.193-0.199 12.3-0.132 26.904 0.148s30.096 0.443 34.426 0.361l7.874-0.148-28.431-22.747c-15.637-12.511-28.954-23.187-29.594-23.724l-1.163-0.977 9.587-29.193c13.712-41.754 14.528-44.306 14.342-44.864-0.092-0.276-2.097 0.968-4.456 2.765zM262.642 445.235c-1.193 3.424-2.049 5.687-1.902 5.028s0.396-2.432 0.551-3.941c0.375-3.644-0.286-3.875-4.51-1.574-3.831 2.088-3.397 1.601 2.985-3.344 3.025-2.344 4.836-3.468 4.917-3.053 0.071 0.362-0.848 3.459-2.042 6.883zM159.027 442.917c4.004 2.883 4.64 3.513 2.352 2.33-1.871-0.968-3.263-0.925-3.488 0.107-0.1 0.461 0.109 2.131 0.465 3.711 1.183 5.245 1.106 5.307-0.6 0.479-2.191-6.202-3.123-9.338-2.774-9.338 0.154 0 1.974 1.22 4.045 2.711zM296.596 549.82c0.905 1.002 0.903 1.009-0.327 1.009-0.869 0-1.337-0.322-1.568-1.077-0.181-0.593-0.68-1.495-1.11-2.006-0.717-0.852-0.663-0.846 0.655 0.068 0.79 0.548 1.847 1.451 2.349 2.006zM237.034 549.751c-2.091 0.098-3.73 0.407-3.943 0.743-0.229 0.36-0.369 0.381-0.373 0.057-0.013-0.991 0.651-1.157 4.263-1.062l3.632 0.095-3.578 0.167zM211.639 618.649c0 0.395-0.216 0.585-0.479 0.422s-0.479-0.619-0.479-1.014c0-0.395 0.216-0.585 0.479-0.422s0.479 0.619 0.479 1.014zM267.429 432.39c-1.054 0.716-12.26 9.402-24.902 19.302-33.721 26.406-32.166 25.285-33.842 24.389-0.614-0.328-13.292-9.572-28.174-20.542-29.925-22.059-29.589-21.82-30.042-21.367-0.176 0.177 0.355 2.415 1.181 4.973s5.826 17.927 11.111 34.152c5.285 16.225 9.609 29.834 9.609 30.242 0 1.219-3.775 4.343-33.988 28.135l-28.888 22.747 4.261 0.153c2.344 0.084 14.928-0.182 27.966-0.59 39.371-1.234 40.885-1.265 42.598-0.871 1.985 0.457 1.006-2.131 16.259 42.972 5.701 16.857 10.566 30.649 10.812 30.649s5.351-15.408 11.344-34.24c5.993-18.832 11.282-35.426 11.753-36.874l0.856-2.634 34.665 0.18c24.738 0.128 34.573 0.032 34.345-0.337-0.176-0.284-12.61-10.345-27.632-22.357s-28.132-22.581-29.135-23.487l-1.823-1.647 4.187-12.811c2.303-7.046 7.669-23.469 11.926-36.496s7.678-23.968 7.603-24.313c-0.095-0.441-0.705-0.241-2.051 0.674zM264.066 440.566c-0.373 1.251-1.1 3.46-1.616 4.909l-0.938 2.634 0.041-1.959c0.069-3.307-0.602-3.692-3.687-2.119-1.025 0.523-1.94 0.874-2.033 0.782-0.203-0.203 8.101-6.513 8.578-6.518 0.183-0.002 0.028 1.020-0.345 2.272v0zM158.526 442.67c1.556 1.092 2.83 2.048 2.83 2.125s-0.732 0.022-1.627-0.124c-1.973-0.32-2.406 0.543-1.722 3.437 0.84 3.556 0.411 2.898-1.237-1.897-1.69-4.918-1.84-5.526-1.357-5.526 0.156 0 1.556 0.893 3.113 1.985zM296.881 550.383c0 1.039-1.473 0.328-2.189-1.056l-0.777-1.502 1.483 1.056c0.816 0.581 1.483 1.257 1.483 1.502zM211.639 618.381c0 0.279-0.216 0.374-0.479 0.211s-0.479-0.391-0.479-0.507c0-0.116 0.216-0.211 0.479-0.211s0.479 0.228 0.479 0.507zM266.232 433.122c-1.449 1.099-12.978 10.085-25.62 19.969-25.591 20.006-29.648 23.032-30.879 23.032-0.948 0-5.374-3.144-30.658-21.779-22.295-16.432-27.758-20.363-28.298-20.363-0.24 0-0.436 0.333-0.436 0.74s3.968 12.96 8.817 27.895c12.798 39.417 13.208 40.735 12.914 41.5-0.373 0.972-8.881 7.89-34.182 27.794-11.984 9.428-23.298 18.35-25.142 19.826l-3.352 2.685 5.986 0.141c3.292 0.078 16.546-0.192 29.452-0.599s27.302-0.74 31.992-0.74h8.527l1.138 2.573c0.626 1.415 4.427 12.244 8.447 24.064 13.363 39.292 16.033 46.872 16.488 46.821 0.494-0.055 1.237-2.309 14.66-44.486 5.029-15.803 9.217-28.816 9.306-28.918s15.717-0.147 34.73-0.101c31.812 0.077 34.517 0.022 33.925-0.692-0.354-0.427-13.533-11.117-29.286-23.757s-28.642-23.247-28.642-23.571c0-0.324 3.136-10.168 6.969-21.875 11.241-34.335 16.497-50.736 16.497-51.479 0-1.049-0.48-0.86-3.352 1.32zM264.316 439.156c0 0.763-2.051 6.568-2.486 7.037-0.281 0.302-0.332 0.184-0.14-0.322 0.392-1.030-0.546-2.791-1.486-2.791-0.399 0-1.361 0.329-2.138 0.731-2.291 1.185-1.641 0.432 2.059-2.382 3.435-2.613 4.19-3.023 4.19-2.273zM158.482 442.794l2.155 1.466-1.437 0.262c-1.305 0.238-1.432 0.425-1.382 2.044 0.030 0.98-0.006 1.782-0.081 1.782s-0.615-1.455-1.202-3.232c-0.587-1.778-1.18-3.537-1.318-3.91-0.287-0.774-0.009-0.639 3.264 1.588zM296.642 550.749c-0.318 0.318-2.156-1.381-2.156-1.992 0-0.268 0.538 0.017 1.195 0.635s1.090 1.229 0.961 1.358zM264.491 434.355c-2.335 1.786-13.080 10.145-23.879 18.575-23.162 18.082-26.894 20.931-29.221 22.304l-1.748 1.031-4.213-2.9c-2.317-1.595-13.236-9.528-24.263-17.63-26.505-19.472-29.684-21.754-30.302-21.754-0.288 0-0.523 0.375-0.523 0.834s4.736 15.49 10.525 33.402c5.789 17.913 10.666 33.278 10.839 34.145 0.251 1.264 0.087 1.824-0.828 2.822-1.262 1.376-20.783 17.025-45.589 36.545l-16.127 12.691 5.385 0.157c2.962 0.086 18.746-0.202 35.076-0.641s31.076-0.725 32.768-0.636l3.077 0.163 1.892 5.028c1.041 2.766 6.048 17.204 11.127 32.085 11.484 33.65 12.381 36.156 12.94 36.156 0.527 0 0.098 1.29 13.538-40.705l10.422-32.564 34.578-0.123c19.018-0.068 34.578-0.259 34.578-0.426s-0.301-0.542-0.67-0.835c-6.233-4.949-46.34-37.372-51.187-41.38-5.656-4.678-6.556-5.607-6.28-6.49 0.177-0.566 4.041-12.451 8.586-26.411 15.447-47.442 15.22-46.691 14.167-46.691-0.234 0-2.335 1.461-4.669 3.247zM263.257 442.242c-0.941 2.894-1.082 3.085-1.57 2.128-0.398-0.78-0.931-1.032-2.066-0.98-0.841 0.039-1.529-0.015-1.529-0.121 0-0.303 5.865-4.54 6.041-4.364 0.087 0.087-0.307 1.589-0.876 3.337zM158.842 443.122c1.36 0.842 1.366 1.286 0.020 1.481-0.654 0.095-1.161 0.591-1.327 1.301-0.225 0.961-0.404 0.72-1.097-1.479-1.059-3.361-1.045-3.512 0.249-2.671 0.593 0.385 1.562 1 2.155 1.367zM296.206 550.227c-0.332 0.332-1.241-0.343-1.241-0.921 0-0.318 0.275-0.281 0.73 0.097 0.401 0.333 0.631 0.704 0.511 0.825zM265.926 433.178c-1.543 1.139-13.651 10.522-26.906 20.85s-25.252 19.545-26.661 20.48l-2.561 1.7-3.030-2.054c-3.305-2.241-12.045-8.591-35.595-25.863-17.371-12.74-19.601-14.311-20.319-14.311-1.164 0-1.634-1.606 10.981 37.593 9.582 29.776 10.092 31.461 9.797 32.391-0.343 1.081-8.166 7.466-38.244 31.212l-24.377 19.245 3.785 0.171c2.082 0.094 16.068-0.109 31.081-0.451 34.68-0.79 40.752-0.814 41.41-0.16 0.684 0.68 2.091 4.622 13.995 39.231 12.251 35.615 11.405 33.229 11.89 33.529 0.221 0.136 0.573-0.025 0.783-0.359s5.563-16.769 11.896-36.523l11.514-35.917 8.131-0.307c4.472-0.169 17.828-0.326 29.68-0.35s23.759-0.047 26.459-0.052c2.7-0.004 4.909-0.181 4.909-0.391s-3.6-3.281-7.999-6.824c-45.536-36.675-49.946-40.332-49.946-41.422 0-0.372 4.291-13.881 9.536-30.019 14.491-44.589 14.156-43.47 13.024-43.47-0.234 0-1.689 0.932-3.232 2.071zM263.634 440.566c-0.169 0.724-0.545 1.917-0.835 2.65-0.468 1.184-0.613 1.256-1.3 0.642-0.425-0.38-1.295-0.764-1.932-0.854-1.045-0.147-0.908-0.338 1.414-1.959 1.415-0.988 2.659-1.796 2.766-1.796s0.056 0.593-0.113 1.317zM157.847 442.652l1.633 1.009-1.097 1.052c-0.603 0.579-1.201 0.972-1.329 0.875-0.36-0.276-1.375-3.945-1.092-3.945 0.139 0 0.987 0.454 1.885 1.009zM268.494 431.332c-0.708 0.367-12.227 9.16-25.599 19.539-28.306 21.972-32.040 24.773-33.031 24.773-0.962 0-4.3-2.352-30.79-21.703-26.371-19.264-26.258-19.183-27.728-19.95-1.147-0.599-1.149-0.594-0.854 1.491 0.163 1.15 3.622 12.435 7.687 25.078 11.423 35.529 13.233 41.351 13.233 42.567 0 0.724-0.77 1.839-2.147 3.109-2.153 1.984-27.642 22.369-48.488 38.777-6.12 4.817-11.272 8.993-11.449 9.28-0.323 0.522 1.851 0.506 57.112-0.423l18.733-0.315 1.469 3.808c1.549 4.018 5.217 14.56 16.387 47.102 6.81 19.841 7.821 22.508 8.533 22.508 0.383 0 6.569-18.742 17.623-53.396 3.361-10.536 6.337-19.314 6.613-19.507s14.403-0.357 31.391-0.363c29.792-0.011 37.353-0.21 37.353-0.985 0-0.2-9.961-8.412-22.136-18.248-27.066-21.868-34.434-27.95-35.212-29.064-0.484-0.693-0.466-1.267 0.092-2.981 14.207-43.606 22.96-71.296 22.64-71.617-0.081-0.081-0.726 0.153-1.434 0.52zM263.276 441.524c-0.577 2.138-1.245 2.985-1.733 2.199-0.187-0.3-0.878-0.624-1.536-0.719-1.143-0.165-1.102-0.243 0.91-1.724 1.159-0.853 2.273-1.551 2.476-1.551s0.15 0.808-0.116 1.796zM157.988 442.971l1.049 0.849-0.984 0.89c-0.966 0.875-0.992 0.868-1.475-0.402-0.905-2.381-0.433-2.83 1.409-1.338zM265.338 433.484c-2.118 1.57-12.427 9.497-22.908 17.614-28.156 21.805-29.034 22.475-30.964 23.613l-1.775 1.047-2.737-1.813c-1.505-0.997-13.728-9.82-27.161-19.607s-25.432-18.478-26.665-19.315c-2.302-1.563-3.266-1.874-3.266-1.054 0 0.672 3.322 11.317 11.96 38.323 9.3 29.074 9.712 30.466 9.357 31.585-0.391 1.23-19.558 16.792-52.82 42.882-5.037 3.951-9.168 7.345-9.18 7.542-0.032 0.515 16.228 0.453 47.781-0.182 23.35-0.47 27.547-0.453 28.094 0.114 0.746 0.773 3.141 7.456 15.259 42.569 10.433 30.23 10.411 30.17 11.146 30.17 0.548 0 4.137-10.635 14.063-41.663 2.401-7.507 5.654-17.549 7.229-22.317l2.864-8.669 4.367-0.31c2.402-0.17 17.102-0.312 32.668-0.315 27.363-0.004 31.892-0.147 31.892-0.998 0-0.22-6.842-5.947-15.205-12.727-42.23-34.239-42.262-34.266-42.262-35.659 0-0.495 4.188-13.882 9.307-29.75 9.838-30.495 13.679-42.7 13.679-43.468 0-0.902-0.908-0.443-4.725 2.388zM262.897 442.31c-0.537 1.626-0.545 1.63-1.977 0.915l-1.438-0.717 1.819-1.361c2.026-1.516 2.392-1.25 1.596 1.163zM157.921 443.001c1.013 0.779 1.044 0.916 0.339 1.501-0.866 0.719-1.413 0.347-1.911-1.303-0.391-1.293 0.073-1.352 1.572-0.199zM267.908 431.516c-0.79 0.486-9.195 6.879-18.677 14.207-27.293 21.093-35.785 27.577-37.738 28.813l-1.821 1.153-3.925-2.748c-2.159-1.511-15.024-10.816-28.588-20.677s-25.148-18.152-25.742-18.423c-2.414-1.105-2.954-3.145 9.531 36.018 5.255 16.483 9.678 30.964 9.829 32.18l0.275 2.21-3.77 3.219c-4.95 4.226-20.371 16.61-41.124 33.026-9.219 7.292-16.825 13.438-16.902 13.658-0.282 0.799 4.084 0.826 38.188 0.24 19.082-0.328 35.394-0.483 36.249-0.344 1.503 0.244 1.625 0.444 3.685 6.060 1.172 3.194 6.34 17.984 11.483 32.865 11.477 33.202 11.772 34.001 12.58 34.001 0.631 0 2.54-5.659 18.61-55.169 3.052-9.404 5.791-17.246 6.085-17.428s15.681-0.462 34.192-0.621c18.511-0.16 33.825-0.459 34.031-0.665 0.578-0.579-0.936-1.876-24.479-20.964-25.41-20.603-31.358-25.545-32.244-26.792-0.719-1.012-1.441 1.423 12.135-40.942 8.484-26.475 10.292-32.306 10.292-33.188 0-0.788-0.476-0.719-2.155 0.313zM263.359 440.375c0 0.48-1.083 3.184-1.276 3.184-0.123 0-0.683-0.245-1.243-0.546-1.009-0.54-1.005-0.557 0.391-1.674 1.278-1.023 2.128-1.408 2.128-0.965zM158.013 443.331c0.333 0.401 0.477 0.859 0.319 1.017-0.49 0.49-1.765-0.241-1.765-1.013 0-0.938 0.669-0.94 1.446-0.004v0zM266.471 432.401c-1.317 0.961-11.254 8.583-22.083 16.938-28.614 22.076-33.618 25.827-34.457 25.827-0.985 0-0.961 0.017-31.233-21.911-14.299-10.357-26.529-19.074-27.179-19.369-2.533-1.154-2.777-2.156 6.963 28.59 9.379 29.61 11.939 37.956 12.271 40.019 0.275 1.707 0.272 1.711-7.075 7.806-4.043 3.354-17.964 14.527-30.935 24.83s-23.585 18.884-23.585 19.070c0 0.8 4.933 0.882 27.536 0.459 13.169-0.247 29.38-0.455 36.024-0.463l12.080-0.013 0.669 1.317c0.782 1.538 1.625 3.921 14.19 40.107 10.757 30.979 10.902 31.367 11.756 31.367 0.626 0 4.35-10.913 17.921-52.508 3.45-10.574 6.537-19.444 6.86-19.712 0.376-0.311 12.734-0.632 34.191-0.888 18.481-0.221 33.782-0.584 34.001-0.808 0.569-0.58-1.636-2.478-23.954-20.611-23.893-19.413-31.92-26.115-32.586-27.211-0.351-0.577-0.319-1.494 0.11-3.113 0.467-1.765 17.802-56.496 21.42-67.628 1.408-4.334 0.784-4.785-2.903-2.094zM262.653 442.001c-0.444 1.77-0.619 1.875-1.559 0.935-0.754-0.754-0.746-0.85 0.131-1.513 1.393-1.053 1.796-0.89 1.428 0.578zM158.035 444.198c-0.414 0.414-0.662 0.374-1.002-0.164-0.734-1.161-0.534-1.503 0.543-0.926 0.76 0.407 0.873 0.676 0.459 1.090zM263.492 434.554c-2.839 2.159-13.458 10.304-23.598 18.101-22.728 17.475-27.706 21.233-29.131 21.992-1.383 0.736-0.391 1.374-20.673-13.296-40.041-28.962-40.227-29.088-40.227-27.24 0 1.149 1.912 7.502 9.355 31.079 7.21 22.841 10.839 34.698 11.429 37.347 0.243 1.091-0.106 1.628-2.468 3.794-1.513 1.388-15.412 12.642-30.886 25.010s-28.135 22.651-28.135 22.852c0 0.201 0.57 0.509 1.267 0.683s17.374 0.058 37.061-0.259c19.686-0.317 36.152-0.44 36.589-0.272 1.21 0.464 1.985 2.504 13.307 35.008 14.088 40.445 13.035 37.621 14.038 37.621 0.777 0 2.394-4.61 12.43-35.438 4.673-14.355 9.346-28.498 10.384-31.43l1.888-5.331 6.794-0.291c3.737-0.16 18.431-0.411 32.654-0.557s26.687-0.387 27.698-0.533l1.838-0.266-1.359-1.432c-0.748-0.788-7.717-6.626-15.487-12.974s-18.222-14.885-23.226-18.972c-13.050-10.657-16.966-14.060-17.273-15.012-0.3-0.927-0.212-1.215 13.002-42.777 5.115-16.087 9.299-29.717 9.299-30.29 0-0.597-0.301-1.040-0.705-1.040-0.388 0-3.028 1.766-5.866 3.925zM262.566 442.023c-0.281 1.074-1.319 1.422-1.82 0.61-0.245-0.396 1.643-2.12 1.967-1.797 0.071 0.071 0.004 0.605-0.147 1.186zM157.784 443.591c0.515 0.834-0.072 1.011-0.728 0.219-0.378-0.455-0.414-0.73-0.097-0.73 0.28 0 0.651 0.23 0.825 0.511zM266.005 432.618c-1.528 1.094-13.577 10.282-26.776 20.418-27.553 21.159-28.561 21.878-30.087 21.473-0.602-0.16-11.87-8.076-25.039-17.591-36.353-26.266-34.645-25.183-34.071-21.59 0.161 1.004 3.327 11.509 7.038 23.346 11.335 36.159 13.385 42.948 13.385 44.314 0 1.628 0.039 1.595-34.839 29.554-14.552 11.665-26.459 21.41-26.459 21.656s0.542 0.582 1.205 0.748c0.663 0.166 17.365 0.070 37.116-0.215s36.22-0.398 36.599-0.253c1.007 0.386 2.675 4.729 11.017 28.677 13.073 37.529 14.711 42.115 15.462 43.303 0.714 1.128 0.753 1.135 1.407 0.24 0.37-0.506 5.838-16.559 12.15-35.674s11.745-35.119 12.072-35.567c0.544-0.743 3.402-0.854 33.159-1.284 17.91-0.259 33.292-0.593 34.182-0.743l1.618-0.273-1.618-1.688c-0.89-0.928-11.977-10.168-24.637-20.532-30.113-24.652-30.583-25.062-30.754-26.82-0.078-0.797 1.742-7.381 4.163-15.064 2.366-7.507 7.33-23.229 11.032-34.939s6.731-21.784 6.731-22.388c0-1.568-0.9-1.371-4.059 0.891zM262.205 442.421c-0.246 0.64-0.441 0.693-0.893 0.24s-0.426-0.673 0.121-1.012c0.892-0.551 1.172-0.271 0.772 0.772zM158.004 443.827c0 0.116-0.216 0.211-0.479 0.211s-0.479-0.228-0.479-0.507c0-0.279 0.216-0.374 0.479-0.211s0.479 0.391 0.479 0.507zM266.673 432.047c-1.165 0.78-8.906 6.633-17.202 13.007-23.879 18.345-36.117 27.585-38.021 28.708l-1.763 1.040-3.448-2.293c-1.897-1.261-13.364-9.435-25.482-18.165-22-15.847-28.824-20.63-30.177-21.149-0.529-0.203-0.717 0.069-0.717 1.041 0 1.633 0.164 2.187 10.299 34.702 4.556 14.618 8.779 28.389 9.384 30.602l1.1 4.024-2.638 2.456c-1.451 1.351-10.922 9.119-21.046 17.263-34.75 27.953-37.852 30.511-37.667 31.063 0.139 0.413 9.602 0.505 37.573 0.365l37.387-0.188 0.948 1.864c1.152 2.266 3.436 8.607 14.469 40.175 10.213 29.222 10.387 29.693 11.239 30.4 0.538 0.446 0.821 0.266 1.429-0.91 0.417-0.807 5.783-16.609 11.924-35.117s11.414-34.116 11.719-34.685c0.785-1.466 2.014-1.535 37.131-2.084 16.821-0.263 30.918-0.665 31.326-0.893 0.638-0.357 0.579-0.577-0.414-1.568-1.394-1.39-12.492-10.595-33.696-27.949-16.138-13.208-21.041-17.457-21.817-18.908-0.611-1.141 0.538-5.205 9.34-33.036 13.112-41.46 13.034-41.184 11.578-41.184-0.35 0-1.589 0.638-2.754 1.418zM262.161 442.122c-0.163 0.263-0.511 0.479-0.775 0.479s-0.346-0.215-0.183-0.479c0.163-0.263 0.511-0.479 0.775-0.479s0.346 0.215 0.183 0.479zM182.233 269.31v67.725l-1.862 0.011c-1.024 0.007-6.973-0.496-13.22-1.116s-11.54-0.944-11.764-0.72c-0.338 0.338 11.942 97.884 13.029 103.501l0.345 1.783 21.128 0.423c11.62 0.233 29.89 0.609 40.599 0.837l19.471 0.415v-231.877l3.556 0.403c4.068 0.462 25.888 2.403 27.007 2.403 0.748 0 0.615-1.261-0.873-8.296-0.728-3.443-1.644-4.174-2.122-1.693l-0.294 1.524-0.184-3.048h-92.777l-0.352 137.82-0.166-68.91c-0.109-45.378-0.397-68.91-0.843-68.91-0.447 0-0.677 23.026-0.677 67.725zM278.134 206.82c-0.225 0.225-0.385-0.175-0.356-0.889 0.033-0.789 0.193-0.949 0.409-0.409 0.196 0.489 0.172 1.073-0.054 1.298v0zM262.53 209.557c-0.464 0.464-13.926-0.602-13.926-1.103 0-0.239 3.203-0.158 7.117 0.18s6.979 0.753 6.81 0.922zM279.079 209.752c0 1.144-0.46 1.304-3.556 1.235-1.956-0.043-5.537-0.305-7.958-0.58-4.151-0.472-4.019-0.499 2.322-0.469 5.492 0.026 6.851-0.17 7.418-1.068 0.851-1.35 1.773-0.891 1.773 0.882zM168.349 337.695c3.879 0.447 3.264 0.5-3.384 0.289-4.735-0.151-8.222-0.549-8.357-0.955-0.151-0.453 1.035-0.554 3.384-0.289 1.989 0.224 5.75 0.654 8.357 0.955zM178.677 338.856c-0.652 0.17-1.719 0.17-2.37 0s-0.119-0.31 1.185-0.31c1.304 0 1.837 0.139 1.185 0.31zM157.623 342.622c-0.188 0.466-0.342 0.085-0.342-0.847s0.154-1.312 0.342-0.847c0.188 0.466 0.188 1.228 0 1.693zM158.296 347.376c-0.186 0.459-0.326-0.081-0.312-1.198s0.166-1.493 0.337-0.834c0.172 0.659 0.16 1.573-0.025 2.032zM158.996 352.443c-0.17 0.652-0.31 0.119-0.31-1.185s0.139-1.837 0.31-1.185c0.17 0.652 0.17 1.719 0 2.37zM159.673 357.861c-0.17 0.652-0.31 0.119-0.31-1.185s0.139-1.837 0.31-1.185c0.17 0.652 0.17 1.719 0 2.37zM160.35 362.601c-0.17 0.652-0.31 0.119-0.31-1.185s0.139-1.837 0.31-1.185c0.17 0.652 0.17 1.719 0 2.37zM161.028 368.019c-0.17 0.652-0.31 0.119-0.31-1.185s0.139-1.837 0.31-1.185c0.17 0.652 0.17 1.719 0 2.37zM161.703 373.445c-0.17 0.648-0.302-0.042-0.295-1.532s0.146-2.020 0.308-1.177c0.162 0.842 0.156 2.062-0.014 2.709zM162.381 378.863c-0.17 0.648-0.302-0.042-0.295-1.532s0.146-2.020 0.308-1.177c0.162 0.842 0.156 2.062-0.014 2.709zM163.059 383.596c-0.17 0.652-0.31 0.119-0.31-1.185s0.139-1.837 0.31-1.185c0.17 0.652 0.17 1.719 0 2.37zM163.735 389.022c-0.169 0.647-0.302-0.042-0.295-1.532s0.146-2.020 0.308-1.177c0.162 0.842 0.156 2.061-0.014 2.709zM165.167 398.326c-0.025 1.499-0.177 1.232-0.577-1.016-0.298-1.676-0.527-3.962-0.508-5.079 0.025-1.499 0.177-1.232 0.577 1.016 0.298 1.676 0.527 3.962 0.508 5.079zM170.333 431.090c0.557 2.748 1.154 5.14 1.329 5.314 0.458 0.458 9.589 1.46 19.375 2.126 8.451 0.575 8.441 0.576-6.205 0.673l-14.671 0.097-0.412-2.54c-0.96-5.917-4.442-33.765-4.379-35.026 0.038-0.757 0.942 4.414 2.010 11.492s2.397 15.116 2.953 17.865zM208.476 439.793c-1.397 0.146-3.683 0.146-5.079 0s-0.254-0.266 2.54-0.266c2.794 0 3.937 0.119 2.54 0.266zM181.842 328.636l-0.091 8.212-2.032-0.093c-1.117-0.051-7.104-0.566-13.303-1.145s-11.363-0.96-11.474-0.849c-0.112 0.112 0.285 3.979 0.882 8.594s2.904 22.639 5.128 40.053c4.532 35.492 7.021 54.449 7.381 56.212l0.242 1.185 14.038 0.24c7.721 0.132 25.543 0.476 39.604 0.763s26.138 0.523 26.836 0.522l1.27-0.001v-121.905h-68.39l-0.091 8.212zM162.957 337.388c0.992 0.178 0.343 0.209-1.862 0.090-1.862-0.101-3.532-0.323-3.71-0.494-0.337-0.323 2.784-0.097 5.572 0.404zM169.561 428.148c0.638 3.654 1.342 7.046 1.566 7.536 0.604 1.326 2.334 1.649 14.18 2.647l5.249 0.442-9.816 0.090c-5.399 0.049-9.985 0.025-10.193-0.055s-0.468-0.882-0.579-1.783c-0.111-0.901-0.82-6.309-1.575-12.017-1.443-10.91-1.742-14.43-0.642-7.569 0.358 2.235 1.173 7.053 1.81 10.708zM169.952 433.914c0.104 1.238 0.293 2.762 0.42 3.386l0.232 1.135 12.502 0.095-4.066-0.426c-3.811-0.399-5.611-0.674-7.024-1.072-0.774-0.218-1.292-1.216-1.822-3.507l-0.43-1.862 0.188 2.252zM181.918 325.757c-0.001 2.933-0.1 6.59-0.22 8.127l-0.217 2.794-1.050 0.007c-0.578 0.004-6.498-0.479-13.156-1.073s-12.212-0.972-12.343-0.841c-0.238 0.238 1.017 10.371 8.227 66.416 3.567 27.729 5.15 39.526 5.319 39.647 0.081 0.058 77.991 1.52 80.235 1.506l1.608-0.011v-121.905h-68.402l-0.002 5.333zM160.329 337.256c-0.421 0.081-1.031 0.078-1.354-0.007s0.021-0.151 0.766-0.147c0.745 0.004 1.010 0.073 0.589 0.154v0zM167.92 420.071c-0.093 0.229-0.163-0.040-0.156-0.599s0.083-0.746 0.169-0.417c0.086 0.329 0.080 0.787-0.012 1.016zM169.804 432.457c-0.194 0.583-0.488-0.871-1.022-5.068-0.988-7.75-0.898-8.135 0.308-1.325 0.636 3.589 0.89 5.867 0.715 6.393zM170.262 434.406c0 1.419-0.078 1.723-0.308 1.207-0.251-0.563-0.066-3.105 0.227-3.105 0.045 0 0.081 0.854 0.081 1.897zM170.612 434.787c-0.113 0.113-0.193-0.087-0.178-0.444 0.016-0.394 0.096-0.475 0.205-0.204 0.098 0.244 0.086 0.536-0.027 0.649zM172.269 438.604c0.784 0 2.4-0.105 3.591-0.232 1.671-0.179 1.972-0.288 1.32-0.474-0.685-0.196-0.717-0.248-0.169-0.273 0.372-0.017 1.134 0.206 1.692 0.498 0.796 0.415 1.601 0.482 3.725 0.309 1.601-0.13 3.056-0.079 3.556 0.125 0.61 0.248-1.395 0.35-7.184 0.366-7.605 0.020-8.049-0.013-8.381-0.634-0.193-0.36-0.335-0.932-0.316-1.27 0.019-0.345 0.19-0.131 0.388 0.486 0.324 1.011 0.468 1.101 1.778 1.101zM173.283 437.246c0.119 0.192-0.017 0.249-0.319 0.133-0.587-0.225-0.694-0.468-0.207-0.468 0.175 0 0.412 0.151 0.526 0.335zM175.487 437.604c0.371 0.251 0.234 0.282-0.508 0.116-1.245-0.279-1.515-0.472-0.649-0.465 0.357 0.002 0.878 0.16 1.157 0.349zM180.985 438.166c-0.421 0.081-1.031 0.078-1.354-0.007s0.021-0.151 0.766-0.147c0.745 0.004 1.010 0.073 0.589 0.154zM181.744 328.551c-0.137 4.47-0.343 8.132-0.459 8.139s-6.033-0.482-13.15-1.086c-7.116-0.604-13.059-0.978-13.205-0.832-0.279 0.279 1.476 14.595 7.894 64.382 4.021 31.192 5.4 41.446 5.603 41.641 0.114 0.109 41.030 0.956 68.605 1.419l13.291 0.223v-122.014h-68.33l-0.248 8.127zM169.674 430.985l-0.014 1.016-0.268-1.135c-0.147-0.624-0.351-2.148-0.453-3.386l-0.185-2.252 0.467 2.37c0.257 1.304 0.461 2.828 0.453 3.386zM179.55 438.701c0.279 0.104-0.787 0.174-2.37 0.156s-2.193-0.092-1.354-0.164c0.838-0.072 1.661-0.267 1.83-0.433s0.549-0.177 0.847-0.024c0.297 0.152 0.769 0.362 1.049 0.465zM184.375 438.49c-0.233 0.094-0.614 0.094-0.847 0s-0.042-0.171 0.423-0.171c0.466 0 0.656 0.077 0.423 0.171zM75.267 60.49c0.648 0.262 1.941 0.278 2.873 0.035s0.401-0.458-1.179-0.477c-1.58-0.020-2.343 0.179-1.694 0.442zM68.344 61.304c-1.449 0.317-3.065 0.851-3.592 1.187-0.871 0.556-0.831 0.584 0.446 0.31 1.471-0.315 8.443-1.162 10.090-1.227 0.958-0.037 0.958-0.037 0-0.449-1.323-0.569-3.826-0.505-6.944 0.178zM78.161 61.126c-1.284 0.552 3.11 0.573 5.747 0.028 1.726-0.357 1.584-0.398-1.437-0.418-1.844-0.011-3.783 0.164-4.31 0.39zM85.27 60.91c0 0.104-0.171 0.265-0.381 0.357-0.27 0.119 0.114 0.142 1.312 0.080 0.931-0.048 2.722-0.099 3.979-0.111 1.946-0.020 2.122-0.042 1.185-0.149-2.306-0.263-6.095-0.373-6.095-0.177zM62.669 63.655c-0.526 0.48-1.132 1.223-1.347 1.651-0.739 1.467-0.797 2.221-0.653 8.396l0.135 5.757 0.113-5.079c0.062-2.794 0.2-5.537 0.307-6.095s0.25-1.444 0.319-1.968c0.069-0.524 0.257-1.154 0.419-1.4 0.33-0.503 1.573-1.457 1.9-1.457 0.129 0 0.178-0.133 0.124-0.339-0.049-0.186-0.15-0.339-0.224-0.339s-0.566 0.393-1.092 0.873zM76.235 61.511c-0.073 0.19 0.026 0.254 0.391 0.254 0.59 0 1.024-0.151 1.024-0.357 0-0.269-1.31-0.174-1.416 0.103zM290.99 109.236c0.033 0.94 7.988 52.553 17.677 114.695s17.182 113.632 16.652 114.422c-0.531 0.79-6.609 1.436-13.508 1.436-11.939 0-12.489 0.208-11.415 4.309 1.141 4.358 17.893 90.981 17.893 92.523 0 0.459 16.454 0.834 36.564 0.834h36.564l0.966-28.246c0.865-25.306-0.052-35.672-8.814-99.581l-9.78-71.334h22.758c21.34 0 22.758 0.238 22.758 3.822 0 2.102-4.2 35.495-9.333 74.207s-9.967 81.69-10.742 95.508l-1.409 25.123 7.059 1.143c3.883 0.628 16.019 1.295 26.971 1.481l19.912 0.338 26.252-162.055c14.439-89.13 25.805-162.462 25.258-162.959-1.186-1.079-61.307-5.107-62.33-4.176-0.39 0.355-2.576 9.598-4.857 20.54s-4.641 21.834-5.243 24.204c-1.078 4.238-1.625 4.309-33.452 4.309h-32.356l-1.362-17.714c-0.749-9.743-1.88-20.945-2.513-24.895l-1.151-7.181h-21.604c-11.882 0-27.425-0.554-34.54-1.23-7.203-0.685-12.909-0.473-12.876 0.479zM543.638 108.505c-0.057 0.263-6.776 51.768-14.932 114.454l-14.829 113.975-17.768 2.212c-9.773 1.216-18.131 2.574-18.574 3.017-0.774 0.774 13.578 85.070 15.668 92.029 0.934 3.11 3.865 3.352 34.861 2.873l33.841-0.522 11.234-104.397c6.179-57.419 11.621-104.803 12.093-105.3 2.59-2.718 4.636 12.798 14.102 106.926l10.377 103.192 21.129 1.218c11.621 0.67 27.041 1.222 34.267 1.226 12.632 0.009 13.101-0.157 12.183-4.301-0.525-2.37-10.277-75.934-21.671-163.474l-20.717-159.164-41.271-2.242c-42.279-2.296-49.814-2.556-49.994-1.721zM796.593 110.032c-21.598 0.713-48.093 1.416-58.878 1.561l-19.609 0.264 2.493 226.035h-24.915l9.231 50.084c5.077 27.546 9.464 50.308 9.749 50.582 0.784 0.752 149.311-2.672 150.1-3.46 0.377-0.377 1.276-21.109 1.998-46.072l1.313-45.387h-79.144v-35.814l28.915-1.111c15.903-0.611 29.204-1.4 29.558-1.754s-1.69-17.009-4.541-37.012l-5.183-36.369-54.982-1.066 1.379-19.58c0.758-10.769 1.749-19.959 2.202-20.422s18.043-1.219 39.091-1.681l38.268-0.84v-79.964l-13.888 0.355c-7.638 0.195-31.559 0.938-53.156 1.652zM964.817 98.578c-27.836 3.783-45.681 15.089-56.83 36.007-7.931 14.88-12.359 32.58-18.631 74.475-4.406 29.433-5.090 40.072-5.082 79.027 0.011 50.299 2.887 76.671 11 100.838 9.479 28.238 21.39 42.146 45.943 53.649 13.383 6.27 17.145 7.185 29.691 7.223 15.888 0.049 40.797-6.459 63.692-16.639l12.93-5.749v-120.167h-38.311v12.498c0 11.853-0.272 12.606-5.268 14.58-7.834 3.095-25.902 3.028-31.801-0.118-11.811-6.299-19.753-35.521-21.642-79.638-1.395-32.568 1.537-47.117 13.043-64.721 5.846-8.945 9.518-12.742 12.367-12.791 6.68-0.113 13.491 6.799 15.822 16.054 2.424 9.625 2.695 41.424 0.521 60.978l-1.438 12.93h58.623l-0.241-45.494c-0.132-25.022-0.779-57.993-1.437-73.269l-1.196-27.775-9.578-5.216c-13.881-7.56-39.472-16.508-50.153-17.535-5.076-0.488-14.987-0.105-22.024 0.851zM1099.549 100.961c-1.608 1.938 0.092 4.138 7.428 9.615 7.345 5.484 9.514 8.294 9.518 12.333 0.002 2.877 1.757 33.605 3.898 68.284 3.676 59.535 3.719 64.238 0.777 84.284-1.714 11.677-3.483 21.605-3.93 22.061-1.775 1.811-4.227-3.347-7.521-15.818-2.655-10.054-3.863-12.339-5.231-9.894-1.125 2.011-0.987 6.323 0.376 11.736 1.227 4.872 1.599 12.748 0.864 18.287l-1.291 9.73-3.479-4.562c-3.038-3.984-3.331-7.037-2.31-24.073 0.812-13.54 0.447-21.255-1.192-25.211-3.667-8.853 0.389-35.575 9.503-62.6 4.254-12.614 7.492-25.521 7.196-28.682-0.387-4.135-2.128 0.002-6.208 14.754-4.108 14.851-7.323 22.469-11.668 27.645l-5.998 7.144-1.25-15.193c-0.848-10.302-0.071-25.039 2.413-45.774l3.664-30.58-7.028-6.087c-9.058-7.845-10.731-5.024-4.874 8.22l4.599 10.399-2.897 28.892c-1.594 15.891-2.897 34.375-2.897 41.075 0 11.537-0.24 12.183-4.536 12.183h-4.536l-1.291 43.579c-0.71 23.968-1.79 47.282-2.399 51.808-1.066 7.922-1.242 8.107-4.72 4.96-1.987-1.798-4.146-2.735-4.798-2.083s1.708 13.505 5.246 28.562c6.141 26.141 6.433 29.075 6.465 65.039 0.033 36.389 0.18 37.818 4.343 42.264l4.309 4.601-5.652 5.415c-3.109 2.978-6.191 7.87-6.85 10.871s-1.996 5.949-2.972 6.551c-1.075 0.664-1.085 2.382-0.027 4.359 1.023 1.912 1.060 6.819 0.089 11.856-4.548 23.578 0.122 39.21 11.328 37.911 7.827-0.907 12.359-12.192 13.311-33.149 0.524-11.543 1.719-18.303 3.616-20.456 2.359-2.678 2.438-4.306 0.475-9.736-2.135-5.903-1.881-7.333 2.677-15.111 6.129-10.459 10.794-45.206 10.888-81.112l0.061-22.998 9.457 10.749v101.196l5.747 4.249c7.087 5.24 8.248 15.836 1.916 17.492-2.92 0.763-3.831 2.613-3.831 7.773 0 3.724-0.897 7.325-1.993 8.003-1.111 0.687-1.399 3.068-0.649 5.381 1.778 5.488 0.99 20.192-1.313 24.495-2.486 4.646 2.876 17.774 8.861 21.696 4.326 2.835 4.907 2.708 10.459-2.281 5.208-4.68 6-6.811 6.947-18.691 0.722-9.070 0.065-17.673-2.031-26.586-3.49-14.837-3.938-13.611 10.59-28.965l9.062-9.578 5.894-38c4.736-30.533 5.894-43.967 5.894-68.368 0-18.179-0.769-30.843-1.916-31.552-1.054-0.651-1.929-7.813-1.945-15.916-0.017-9.141-0.664-13.731-1.701-12.093-0.92 1.452-2.58 2.079-3.69 1.393-2.926-1.809-3.704 14.277-0.916 18.954 5.579 9.361 4.475 54.593-1.332 54.593-4.119 0-8.318-27.301-6.77-44.009 0.735-7.928 1.24-31.723 1.122-52.876l-0.214-38.461 7.952-21.879c4.373-12.033 11.217-34.66 15.207-50.283l7.255-28.404-3.57-12.484c-3.959-13.844-7.16-19.038-9.989-16.209-1.147 1.147-0.406 5.596 2.008 12.053l3.826 10.235-16.091 45.973c-8.85 25.285-16.634 49.66-17.298 54.167-1.715 11.642-3.868 11.644-7.323 0.009-9.198-30.972-9.759-40.709-5.545-96.114 0.968-12.727 0.66-15.398-1.946-16.856-1.88-1.053-3.097-4.227-3.097-8.077 0-5.935-0.688-6.607-10.706-10.44-12.578-4.813-13.090-4.865-15.812-1.584zM1197.879 94.652c-0.663 1.073 0.631 4.921 2.875 8.552 4.063 6.573 4.067 6.738 1.092 38.034-1.643 17.288-2.988 36.205-2.988 42.039 0 9.549-0.603 11.114-6.041 15.691l-6.041 5.083 2.587 68.901-13.016-2.442-4.069 13.396c-5.233 17.228-5.128 18.153 1.015 8.936 2.796-4.195 5.361-7.966 5.7-8.38 1.591-1.941 6.455 4.608 6.455 8.69 0 3.043 1.618 5.333 4.789 6.777 2.634 1.2 4.789 2.835 4.789 3.633s0.519 2.803 1.153 4.455c0.788 2.052-0.425 3.603-3.831 4.898-3.035 1.154-4.984 3.367-4.984 5.66 0 2.071-0.918 4.333-2.040 5.026-1.363 0.843-1.095 2.31 0.808 4.423 2.265 2.514 2.486 5.092 1.080 12.582-0.972 5.181-2.168 9.821-2.658 10.311-2.151 2.151 8.914 8.365 12.933 7.264 9.078-2.487 11.62-6.312 12.525-18.847 0.638-8.842 1.799-12.635 4.433-14.483 5.46-3.83 4.31-7.487-4.109-13.059-7.915-5.238-7.975-8.72-0.194-11.189 2.235-0.709 4.614-6.143 7.489-17.105 2.317-8.836 4.214-16.613 4.214-17.281s-2.586 0.121-5.747 1.756c-3.161 1.634-5.747 2.257-5.747 1.383s3.056-10.593 6.79-21.599c5.833-17.188 6.619-21.544 5.575-30.884-0.802-7.176-2.481-12.018-4.937-14.241-2.047-1.852-5.545-6.319-7.775-9.927-3.859-6.243-3.99-8.093-2.739-38.437 0.723-17.533 2.079-35.227 3.014-39.319 1.468-6.425 1.031-8.452-3.2-14.845-5.041-7.617-7.107-8.842-9.201-5.454zM759.24 485.555c-21.745 9.963-30.238 11.883-41.872 9.468-10.21-2.12-10.643-2.028-20.673 4.361-15.942 10.155-22.62 11.966-35.983 9.756-11.402-1.886-11.485-1.865-20.63 5.093-6.318 4.807-13.365 7.969-22.591 10.136-14.443 3.392-21.090 8.601-23.093 18.099-0.6 2.847-1.478 7.087-1.949 9.422-1.403 6.941-19.978 23.999-33.969 31.193l-13.038 6.704 0.872 8.62c0.48 4.741 3.191 15.036 6.025 22.878 3.392 9.385 6.096 22.775 7.912 39.18 1.852 16.732 3.744 26.011 5.757 28.235 2.746 3.034 2.5 4.036-2.929 11.928-6.954 10.107-6.865 9.422-2.575 19.91 3.014 7.369 3.869 8.082 8.484 7.081 4.886-1.060 5.196-0.672 6.461 8.108 2.841 19.706 5.635 22.735 22.173 24.042 5.688 0.449 8.136 2.109 13.49 9.146 9.488 12.47 18.776 12.11 34.906-1.356 3.047-2.544 9.943-6.825 15.324-9.513s13.446-7.166 17.921-9.951c9.204-5.726 10.086-9.615 5.271-23.26-1.58-4.479-2.873-9.376-2.873-10.882 0-3.308 18.345-11.72 31.678-14.525 13.411-2.822 19.666-0.863 23.041 7.216 3.733 8.935 3.465 16.591-1.38 39.341l-4.127 19.38 13.572 13.572 23.067-3.29c20.51-2.925 24.114-2.983 32.516-0.52 8.057 2.362 11.795 2.397 25.365 0.237 8.754-1.393 16.49-3.203 17.191-4.023s5.023-10.784 9.604-22.143c4.581-11.359 9.246-21.373 10.368-22.254s6.78-3.115 12.574-4.964c5.795-1.849 14.683-5.109 19.752-7.244l9.217-3.882-15.543-15.837 11.99-11.883c10.106-10.017 13.339-12.072 20.584-13.087 7.4-1.037 10.914-3.369 25.296-16.787l16.702-15.582-12.333-16.381-34.019 1.056-4.421-19.597c-6.384-28.299-12.122-38.655-36.763-66.341-7.636-8.579-9.575-11.922-8.010-13.807 1.665-2.006 0.075-2.282-8.222-1.425-9.943 1.026-10.594 0.794-19.556-6.962-13.21-11.433-16.181-13.040-26.929-14.568-9.343-1.328-21.816-6.667-35.411-15.158l-6.731-4.204-11.493 5.266zM1237.189 60.215l-4.786 1.218 0.315 39.508c0.348 43.671 2.265 83.842 9.351 196.014 7.929 125.514 22.956 323.548 23.596 310.979 0.14-2.759 2.84-39.324 5.999-81.256 11.927-158.338 24.837-353.912 27.679-419.321 0.623-14.345 1.536-29.694 2.029-34.107 1.527-13.685 0.767-14.031-31.092-14.148-15.568-0.057-30.459 0.444-33.092 1.113zM136.691 70.836c-0.655 3.071-1.49 7.091-1.855 8.935-0.631 3.186 22.773 3.339 471.69 3.084 259.795-0.147 504.736-0.794 544.314-1.437l71.96-1.169 1.203-12.45-325.858-0.001c-179.222-0.001-423.599-0.574-543.060-1.273l-217.202-1.273-1.191 5.583zM1211.982 630.358c-115.186 46.888-484.584 210.705-479.154 212.49 3.41 1.122 332.934-92.926 466.641-133.181 87.495-26.342 91.999-27.927 92.692-32.62 0.341-2.311-2.97-12.685-7.358-23.054s-9.586-23.214-11.55-28.545c-3.213-8.719-8.692-13.618-14.994-13.406-0.768 0.026-21.593 8.268-46.276 18.316z" />
<glyph unicode="&#xe90e;" glyph-name="folder-plus" d="M576 704l-128 128h-448v-832h1024v704h-448zM704 256h-128v-128h-128v128h-128v128h128v128h128v-128h128v-128z" />
<glyph unicode="&#xe90f;" glyph-name="spinner" d="M384 832c0 70.692 57.308 128 128 128s128-57.308 128-128c0-70.692-57.308-128-128-128s-128 57.308-128 128zM655.53 719.53c0 70.692 57.308 128 128 128s128-57.308 128-128c0-70.692-57.308-128-128-128s-128 57.308-128 128zM832 448c0 35.346 28.654 64 64 64s64-28.654 64-64c0-35.346-28.654-64-64-64s-64 28.654-64 64zM719.53 176.47c0 35.346 28.654 64 64 64s64-28.654 64-64c0-35.346-28.654-64-64-64s-64 28.654-64 64zM448.002 64c0 0 0 0 0 0 0 35.346 28.654 64 64 64s64-28.654 64-64c0 0 0 0 0 0 0-35.346-28.654-64-64-64s-64 28.654-64 64zM176.472 176.47c0 0 0 0 0 0 0 35.346 28.654 64 64 64s64-28.654 64-64c0 0 0 0 0 0 0-35.346-28.654-64-64-64s-64 28.654-64 64zM144.472 719.53c0 0 0 0 0 0 0 53.019 42.981 96 96 96s96-42.981 96-96c0 0 0 0 0 0 0-53.019-42.981-96-96-96s-96 42.981-96 96zM56 448c0 39.765 32.235 72 72 72s72-32.235 72-72c0-39.765-32.235-72-72-72s-72 32.235-72 72z" />
<glyph unicode="&#xe910;" glyph-name="spinner3" d="M512 656.904c-32.964 0-59.686 26.724-59.686 59.686v179.060c0 32.964 26.722 59.686 59.686 59.686 32.962 0 59.688-26.722 59.688-59.686v-179.060c0-32.964-26.726-59.686-59.688-59.686zM512-36.956c-20.602 0-37.304 16.702-37.304 37.304v179.060c0 20.602 16.702 37.304 37.304 37.304 20.604 0 37.304-16.704 37.304-37.304v-179.060c0-20.602-16.7-37.304-37.304-37.304zM377.756 624.64c-19.34 0-38.146 10.034-48.512 27.988l-89.53 155.070c-15.452 26.764-6.282 60.986 20.482 76.438 26.762 15.45 60.986 6.284 76.438-20.482l89.53-155.072c15.452-26.764 6.282-60.986-20.482-76.438-8.81-5.084-18.432-7.504-27.926-7.504zM735.856 26.744c-11.602 0-22.886 6.022-29.108 16.792l-89.53 155.070c-9.27 16.056-3.77 36.592 12.29 45.864 16.056 9.264 36.59 3.77 45.864-12.292l89.532-155.068c9.27-16.058 3.768-36.592-12.292-45.864-5.286-3.048-11.060-4.502-16.756-4.502zM279.344 530.060c-8.86 0-17.838 2.256-26.064 7.006l-155.072 89.53c-24.978 14.422-33.538 46.362-19.116 71.342 14.42 24.978 46.364 33.538 71.342 19.116l155.070-89.53c24.98-14.422 33.538-46.362 19.116-71.34-9.668-16.756-27.226-26.124-45.276-26.124zM899.648 194.326c-5.064 0-10.196 1.29-14.894 4.004l-155.068 89.53c-14.274 8.24-19.164 26.494-10.924 40.768 8.242 14.276 26.496 19.166 40.766 10.924l155.070-89.532c14.274-8.24 19.164-26.492 10.924-40.766-5.53-9.574-15.562-14.928-25.874-14.928zM243.41 399.504h-179.060c-26.784 0-48.496 21.712-48.496 48.496s21.712 48.496 48.496 48.496h179.060c26.784 0 48.496-21.712 48.496-48.496s-21.712-48.496-48.496-48.496zM959.65 418.156c-0.002 0 0 0 0 0h-179.060c-16.482 0.002-29.844 13.364-29.844 29.844s13.364 29.844 29.844 29.844c0.002 0 0 0 0 0h179.060c16.482 0 29.844-13.362 29.844-29.844 0-16.48-13.364-29.844-29.844-29.844zM124.366 179.402c-15.472 0-30.518 8.028-38.81 22.39-12.362 21.41-5.026 48.79 16.384 61.148l155.072 89.532c21.41 12.368 48.79 5.028 61.15-16.384 12.362-21.412 5.026-48.79-16.384-61.15l-155.072-89.53c-7.050-4.070-14.748-6.006-22.34-6.006zM744.632 552.448c-10.314 0-20.346 5.352-25.874 14.926-8.24 14.274-3.35 32.526 10.924 40.768l155.070 89.528c14.272 8.236 32.526 3.352 40.768-10.922 8.24-14.274 3.35-32.526-10.924-40.768l-155.070-89.528c-4.7-2.714-9.83-4.004-14.894-4.004zM288.136 19.284c-6.962 0-14.016 1.774-20.48 5.504-19.626 11.332-26.35 36.428-15.020 56.054l89.53 155.070c11.33 19.628 36.426 26.352 56.054 15.022 19.626-11.332 26.35-36.43 15.020-56.054l-89.53-155.072c-7.598-13.166-21.392-20.524-35.574-20.524zM646.266 650.758c-5.062 0-10.196 1.29-14.894 4.002-14.274 8.242-19.164 26.494-10.924 40.766l89.534 155.070c8.24 14.274 26.492 19.166 40.766 10.922 14.274-8.242 19.164-26.494 10.924-40.766l-89.532-155.070c-5.53-9.57-15.56-14.924-25.874-14.924z" />
<glyph unicode="&#xe911;" glyph-name="spinner6" d="M384 832c0 70.692 57.308 128 128 128s128-57.308 128-128c0-70.692-57.308-128-128-128s-128 57.308-128 128zM790.994 448c0 0 0 0 0 0 0 57.993 47.013 105.006 105.006 105.006s105.006-47.013 105.006-105.006c0 0 0 0 0 0 0-57.993-47.013-105.006-105.006-105.006s-105.006 47.013-105.006 105.006zM688.424 176.47c0 52.526 42.58 95.106 95.106 95.106s95.106-42.58 95.106-95.106c0-52.526-42.58-95.106-95.106-95.106s-95.106 42.58-95.106 95.106zM425.862 64c0 47.573 38.565 86.138 86.138 86.138s86.138-38.565 86.138-86.138c0-47.573-38.565-86.138-86.138-86.138s-86.138 38.565-86.138 86.138zM162.454 176.47c0 43.088 34.93 78.018 78.018 78.018s78.018-34.93 78.018-78.018c0-43.088-34.93-78.018-78.018-78.018s-78.018 34.93-78.018 78.018zM57.338 448c0 39.026 31.636 70.662 70.662 70.662s70.662-31.636 70.662-70.662c0-39.026-31.636-70.662-70.662-70.662s-70.662 31.636-70.662 70.662zM176.472 719.528c0 0 0 0 0 0 0 35.346 28.654 64 64 64s64-28.654 64-64c0 0 0 0 0 0 0-35.346-28.654-64-64-64s-64 28.654-64 64zM899.464 719.528c0-64.024-51.906-115.934-115.936-115.934-64.024 0-115.936 51.91-115.936 115.934 0 64.032 51.912 115.934 115.936 115.934 64.030 0 115.936-51.902 115.936-115.934z" />
<glyph unicode="&#xe912;" glyph-name="spinner7" d="M416 32c0 53.019 42.981 96 96 96s96-42.981 96-96c0-53.019-42.981-96-96-96s-96 42.981-96 96zM0 448c0 53.019 42.981 96 96 96s96-42.981 96-96c0-53.019-42.981-96-96-96s-96 42.981-96 96zM832 448c0 53.019 42.981 96 96 96s96-42.981 96-96c0-53.019-42.981-96-96-96s-96 42.981-96 96zM121.844 742.156c0 53.019 42.981 96 96 96s96-42.981 96-96c0-53.019-42.981-96-96-96s-96 42.981-96 96zM710.156 153.844c0 53.019 42.981 96 96 96s96-42.981 96-96c0-53.019-42.981-96-96-96s-96 42.981-96 96zM121.844 153.844c0 53.019 42.981 96 96 96s96-42.981 96-96c0-53.019-42.981-96-96-96s-96 42.981-96 96zM710.156 742.156c0 53.019 42.981 96 96 96s96-42.981 96-96c0-53.019-42.981-96-96-96s-96 42.981-96 96z" />
<glyph unicode="&#xe913;" glyph-name="zoom-in" d="M992.262 88.604l-242.552 206.294c-25.074 22.566-51.89 32.926-73.552 31.926 57.256 67.068 91.842 154.078 91.842 249.176 0 212.078-171.922 384-384 384-212.076 0-384-171.922-384-384s171.922-384 384-384c95.098 0 182.108 34.586 249.176 91.844-1-21.662 9.36-48.478 31.926-73.552l206.294-242.552c35.322-39.246 93.022-42.554 128.22-7.356s31.892 92.898-7.354 128.22zM384 320c-141.384 0-256 114.616-256 256s114.616 256 256 256 256-114.616 256-256-114.614-256-256-256zM448 768h-128v-128h-128v-128h128v-128h128v128h128v128h-128z" />
<glyph unicode="&#xe914;" glyph-name="zoom-out" d="M992.262 88.604l-242.552 206.294c-25.074 22.566-51.89 32.926-73.552 31.926 57.256 67.068 91.842 154.078 91.842 249.176 0 212.078-171.922 384-384 384-212.076 0-384-171.922-384-384s171.922-384 384-384c95.098 0 182.108 34.586 249.176 91.844-1-21.662 9.36-48.478 31.926-73.552l206.294-242.552c35.322-39.246 93.022-42.554 128.22-7.356s31.892 92.898-7.354 128.22zM384 320c-141.384 0-256 114.616-256 256s114.616 256 256 256 256-114.616 256-256-114.614-256-256-256zM192 640h384v-128h-384z" />
<glyph unicode="&#xe915;" glyph-name="share" d="M256 320c0 0 58.824 192 384 192v-192l384 256-384 256v-192c-256 0-384-159.672-384-320zM704 192h-576v384h125.876c10.094 11.918 20.912 23.334 32.488 34.18 43.964 41.19 96.562 72.652 156.114 93.82h-442.478v-640h832v268.624l-128-85.334v-55.29z" />
<glyph unicode="&#xe916;" glyph-name="new-tab" d="M192 896v-768h768v768h-768zM896 192h-640v640h640v-640zM128 64v672l-64 64v-800h800l-64 64h-672zM352 704l160-160-192-192 96-96 192 192 160-160v416z" />
<glyph unicode="&#xe917;" horiz-adv-x="1365" d="M979.055 750.189c-86.649-24.407-162.382-76.274-244.428-111.198-34.242-14.576-70.575-25.803-107.431-31.073-49.005-7.006-99.212-3.707-148.498-9.565-44.044-5.24-88.696-10.339-131.338-21.739-74.523-19.913-139.666-64.469-208.919-97.865 6.234-22.752 9.901-53.145 25.187-66.149 15.767-13.412 38.874-23.3 49.919-44.303 26.195-49.815 57.002-97.24 91.838-141.252 16.928-21.389 40.984-32.943 65.868-38.624 59.924-13.681 122.897-0.854 177.807 23.657 78.197 34.905 104.586 112.366 117.922 196.267 4.333 33.807-3.851 69.212 5.206 101.507 5.379 19.178 30.25 18.541 46.65 23.099 16.402 4.559 38.299-20.752 48.703-38.744 36.83-63.664 86.838-128.215 156.441-147.788 103.938-29.233 241.764 19.325 273.133 132 12.275 44.098 5.936 91.783 5.551 137.794-0.235 28.013-2.583 60.843 18.093 81.943 8.343 8.516-4.962 29.726-7.179 43.568-2.413 15.080-2.882 28.878-23.205 26.399-35.447-4.316-72.678 1.886-108.964-2.503-34.387-4.158-68.702-5.954-102.354-15.43zM411.766 568.548c24.601 6.918 49.667 11.718 75.101 12.878 151.544 6.908 171.612-55.017 148.385-200.778-18.928-118.769-110.851-172.415-217.723-174.471-49.267-0.952-90.163 24.715-117.888 67.611-29.264 45.275-55.554 94.69-67.145 147.529-15.517 70.751 55.784 100.829 107.022 121.702 23.511 9.577 47.651 18.609 72.248 25.529zM932.88 711.331c24.692 6.586 50.064 11.119 75.173 14.864 54.718 8.159 131.398 18.627 154.107-50.154 16.96-51.368 19.531-107.282 17.431-161.15-1.988-51.037-24.090-93.965-66.958-118.258-92.992-52.706-199.424-53.408-276.25 39.125-94.281 113.564-108.577 177.071 25.323 248.373 22.473 11.966 46.486 20.613 71.175 27.201v0z" />
<glyph unicode="&#xe918;" horiz-adv-x="2240" d="M741.21 288.446l-4.098 178.955c0 0-98.949-70.38-160.63-88.795-18.512-5.527-38.064-14.366-57.941-5.23-13.139 6.039-14.214 21.239-14.214 21.239-3.381 10.531-1.804 20.393-10.942 29.306-4.898 4.778-9.752 6.772-17.327 8.82-7.932 2.144-18.65 2.199-26.529 0.765-36.051-6.562-96.036-32.559-131.801-50.002-67.944-33.138-122.185-76.075-164.729-118.282s-81.964-124.312-81.964-124.312h210.375c0 0 67.386 79.492 109.286 101.089s103.998 44.561 131.143 27.321c27.144-17.239 13.661-57.375 13.661-57.375s102.227 24.995 136.607 40.982c34.38 15.987 69.104 35.518 69.104 35.518z" />
<glyph unicode="&#xe919;" horiz-adv-x="2240" d="M745.874 681.874c0 0-4.545-34.191-1.806-78.289 2.564-41.284-0.63-80.76-3.658-118.425-2.014-25.055-6.34-16.975-40.654-41.665s-71.932-41.241-98.685-53.96c-26.753-12.719-52.588-21.496-69.67-16.393 0 0-18.641 3.496-23.353 14.978-5.708 13.907 3.602 38.775-32.656 46.495s-114.091-26.496-165.626-53.042c-61.008-31.426-115.957-71.451-164.963-123.181-30.070-31.742-75.134-116.116-75.134-116.116l-1.366 214.473c0 0 119.136 131.363 188.518 166.66s174.13 67 210.375 46.446c36.244-20.554-19.635-17.601 10.929-32.786s116.25 29.233 161.196 54.643c44.946 25.409 106.553 90.161 106.553 90.161z" />
<glyph unicode="&#xe91a;" horiz-adv-x="2240" d="M69.104 364.146c0.010-0.008 111.055 116.496 180.321 158.464 25.234 15.289 51.669 28.323 82.164 37.592 53.212 16.174 107.677 27.716 132.309 12.953 38.748-23.224-11.686-23.458 4.098-32.786s40.8-3.584 72.292 8.555c23.023 8.875 58.139 26.502 80.708 36.525 52.636 23.377 114.411 85.378 121.58 106.885l1.366 215.507c0 0-81.263-107.294-131.143-142.071s-127.732-83.288-158.464-65.571c-30.732 17.717 23.348 5.496-10.929 30.054s-147.901-8.514-202.178-30.054c-54.277-21.539-88.846-49.337-117.482-73.768s-57.375-65.571-57.375-65.571z" />
<glyph unicode="&#xe91b;" horiz-adv-x="2240" d="M118.813 325.281l-5.796 25.115 17.387-16.421 21.251 10.626-5.796-20.285 12.557-16.421h-20.285l-11.591-21.251-3.864 23.183-25.115 1.932z" />
<glyph unicode="&#xe91c;" horiz-adv-x="2240" d="M185.375 386.145l-5.796 25.115 17.387-16.421 21.251 10.626-5.796-20.285 12.557-16.421h-20.285l-11.591-21.251-3.864 23.183-25.115 1.932z" />
<glyph unicode="&#xe91d;" horiz-adv-x="2240" d="M260.719 441.205l-5.796 25.115 17.387-16.421 21.251 10.626-5.796-20.285 12.557-16.421h-20.285l-11.591-21.251-3.864 23.183-25.115 1.932z" />
<glyph unicode="&#xe91e;" horiz-adv-x="2240" d="M344.757 482.741l-5.796 25.115 17.387-16.421 21.251 10.626-5.796-20.285 12.557-16.421h-20.285l-11.591-21.251-3.864 23.183-25.115 1.932z" />
<glyph unicode="&#xe91f;" horiz-adv-x="2240" d="M430.728 497.23l-5.796 25.115 17.387-16.421 21.251 10.626-5.796-20.285 12.557-16.421h-20.285l-11.591-21.251-3.864 23.183-25.115 1.932z" />
<glyph unicode="&#xe920;" horiz-adv-x="2240" d="M503.174 477.911l-5.796 25.115 17.387-16.421 21.251 10.626-5.796-20.285 12.557-16.421h-20.285l-11.591-21.251-3.864 23.183-25.115 1.932z" />
<glyph unicode="&#xe921;" horiz-adv-x="2240" d="M585.84 498.679l-5.796 25.115 17.387-16.421 21.251 10.626-5.796-20.285 12.557-16.421h-20.285l-11.591-21.251-3.864 23.183-25.115 1.932z" />
<glyph unicode="&#xe922;" horiz-adv-x="2240" d="M666.421 536.835l-5.796 25.115 17.387-16.421 21.251 10.626-5.796-20.285 12.557-16.421h-20.285l-11.591-21.251-3.864 23.183-25.115 1.932z" />
<glyph unicode="&#xe923;" horiz-adv-x="640" d="M216.667 557.667c2.28 24.584-14.705 113.746-8.872 127.913s32.205 45.42 32.205 45.42c0 0-11.667-29.167 1.667-40.833s20-13.333 20-13.333v31.667l18.333-26.667 7.5 30c2.5-8.889-0.57 10.156-6.937 19.001 0 0 26.937-0.221 40.27-13.554s2.946-47.298 2.946-47.298c0 0 18.56-22.231 32.054 21.018 10.568 33.872 29.167-9.167 29.167-9.167s20.833 18.333 9.167 36.667c-11.667 18.333 23.333-32.5 15.833-33.333s7.5 2.5 7.5 2.5c0 0-21.667 35.833-9.167 38.333s30.833-56.667 22.5-58.333c-8.333-1.667 15 0.833 15 12.5s17.5-17.5 26.667-13.333c9.167 4.167 18.333-27.5 25-28.333s4.167-24.167 0.833-24.167c-3.333 0 6.667-24.167 6.667-24.167v-39.167l8.333 9.167c0 0 8.333 30 19.167 33.333s16.667-5 16.667-5c0 0 11.168-12.056 10-19.167-4.051-24.659-17.5-45.833-17.5-45.833 0 1.667-25-19.167-25-19.167l-52.5-64.167-36.060-10.734c0 0-23.783-6.398-44.699-9.675s-51.796-13.679-80.907-7.924c-29.111 5.755-64.652 53.732-68.333 58.333-20 25-25.833 56.667-25.833 56.667s6.053 6.25 8.333 30.833z" />
<glyph unicode="&#xe924;" horiz-adv-x="640" d="M517.5 316.833l-1.667-23.333-209.167-50-245.384 84.944v28.284l130.815 58.926z" />
<glyph unicode="&#xe925;" horiz-adv-x="640" d="M318.333 289.333c0 0 9.901-4.652 16.25-5.417s17.603 1.056 22.083 2.917c4.481 1.86 5.417 4.167 5.417 4.167l13.75 15-13.333 20.833c0 0-20.9 6.819-28.75 6.25s-11.96-2.637-16.667-6.25c-4.739-3.637-8.059-9.094-10.417-14.583-1.731-4.029-2.5-12.917-2.5-12.917 5.139-3.194 5.11-6.222 14.167-10z" />
<glyph unicode="&#xe926;" horiz-adv-x="640" d="M414.156 194.208c5.219-2.273 9.205-9.574 9.968-16.302 0.531-4.685-0.813-10.88-4.153-13.245-4.613-3.266-11.647-1.060-15.783 3.057-4.832 4.809-6.645 21.396-6.645 21.396s11.234 7.437 16.613 5.094z" />
<glyph unicode="&#xe927;" horiz-adv-x="640" d="M412.472 162.978c0 0-14.763-0.503-19.92 3.875-4.663 3.96-7.147 11.139-6.379 17.208 0.874 6.912 11.183 15.909 11.183 15.909l10.373-8.685c0 0-8.523-12.155-5.827-18.302 1.91-4.354 10.569-10.005 10.569-10.005z" />
<glyph unicode="&#xe928;" horiz-adv-x="640" d="M337.054 374.406l97.816-31.231-54.212-15.321 33.588-33.588 76.603 30.052c0 0 6.946 8.977 6.482 14.142-0.748 8.314-11.697 20.297-18.509 29.131-9.995 12.962-16.846 21.545-16.846 21.545s-0.669 17.511-4.714 25.338c-4.045 7.827-9.829 17.52-18.856 17.362-20.625-0.36-45.633-8.501-61.598-14.66s-24.574-14.713-30.296-24.547c-5.193-8.923-9.458-18.225-9.458-18.225z" />
<glyph unicode="&#xe929;" horiz-adv-x="640" d="M229.81 465.152l-2.357-154.385-147.314 45.962-3.536 140.243z" />
<glyph unicode="&#xe92a;" horiz-adv-x="640" d="M229.22 308.999l79.55 34.177-0.589 14.142-80.139-35.355-148.875 45.704 0.088-12.117z" />
<glyph unicode="&#xe92b;" horiz-adv-x="640" d="M227.453 321.962l80.139 37.123-78.96 21.802z" />
<glyph unicode="&#xe92c;" horiz-adv-x="640" d="M463.155 132.811h-17.088l4.5 18.831-5.089 125.536 17.678 3.536-4.125-129.636z" />
<glyph unicode="&#xe92d;" horiz-adv-x="640" d="M80 320.167l-2.458-26.977 5.725-22.288 0.522-109.539-7.813-12.274 24.857-3.089-6.667 15 6.064 105.381 7.471 19.274 2.298 22.845-16.701 5.202z" />
<glyph unicode="&#xe92e;" horiz-adv-x="640" d="M373.333 187.667l-47.458-41.827-11.479 73.301-8.563 27.693 114.167 23.333c0 0 2.799-8.387-1.667-16.667s-21.658-20.928-32.012-24.411c-10.353-3.483-24.655 0.244-24.655 0.244s1.308-18.392 3.474-25.372c2.166-6.979 8.192-16.295 8.192-16.295z" />
<glyph unicode="&#xe92f;" horiz-adv-x="640" d="M279.167 201l-51.667-26.667 38.333 45.833-28.333 7.5 10.833 35.833 41.667-13.333z" />
<glyph unicode="&#xe930;" horiz-adv-x="640" d="M235.833 227.25l30-8.333-39.583-47.226c0 0 23.414 21.173 33.071 25.99s21.929 5.819 21.929 5.819l-2.083-40.417-71.25-28.333c0 0-21.003 0.799-27.5 5.417s-9.701 10.492-10 17.083c-0.341 7.51 4.263 15.105 9.583 20.417 9.982 9.965 38.333 17.917 38.333 17.917s13.75 10 14.583 11.667c0.833 1.667 2.917 20 2.917 20z" />
<glyph unicode="&#xe931;" horiz-adv-x="640" d="M213.9 276.001l0.589-80.139-15.321-3.536 1.179 87.21z" />
<glyph unicode="&#xe932;" horiz-adv-x="640" d="M338.233 210.593c0 0 2.864-17.334 1.768-25.927-1.65-12.939-12.374-37.123-12.374-37.123s21.475 32.145 32.409 37.123c10.934 4.978 16.499 2.357 16.499 2.357s1.387-15.706 1.179-23.57c-0.152-5.725-1.768-17.088-1.768-17.088l-53.622-36.534c0 0-20.302 1.023-27.106 3.536s-13.553 8.839-13.553 8.839c0 0-1.263 1.988 2.357 11.785s19.775 28.059 24.749 44.194c3.31 10.74 2.946 33.588 2.946 33.588z" />
<glyph unicode="&#xe933;" horiz-adv-x="640" d="M58.333 356v-30l249.167-82.5 210.833 49.167-1.667 26.667-202.5-47.5z" />
<glyph unicode="&#xe934;" horiz-adv-x="640" d="M366.954 201.298c0 0 30.294 7.075 40.265-1.933 4.563-4.122 2.514-22.007 2.514-22.007l-4.717 4.465c-1.737 1.644-3.432 5.992-4.679 6.962-5.164 4.019-9.040 1.879-12.771 4.276l-19.577-0.402-3.211 10.709z" />
<glyph unicode="&#xe935;" horiz-adv-x="640" d="M355.833 242.667l6.667-15c0 0 16.102-1.35 25.833 2.5s25.294 14.622 29.167 22.5c3.872 7.878 1.768 17.601 1.768 17.601z" />
<glyph unicode="&#xe936;" horiz-adv-x="640" d="M460.503 389.727l-9.133-13.553 12.374 9.723z" />
<glyph unicode="&#xe937;" horiz-adv-x="640" d="M438.412 432.016l-4.687-23.125 8.333 20.312 1.667-13.229 3.958 12.396c0 0-3.038 2.338-4.626 2.933s-4.645 0.713-4.645 0.713z" />
<glyph unicode="&#xe938;" horiz-adv-x="640" d="M433.692 342.881l-6.187 23.57 5.303 3.83-13.258 1.473 2.062 7.66-12.669 2.357-8.25-15.615-2.357-10.901z" />
<glyph unicode="&#xe939;" horiz-adv-x="640" d="M399.515 295.446c-8.918-3.474-18.968-9.813-27.522-8.178s-11.198 12.174-17.41 12.482c-6.211 0.309-6.967-6.009-11.25-6.25-3.605-0.203-8.826 0.752-10 4.167-2.022 5.881 6.265 10.75 9.167 16.25 3.055 5.79-7.917 1.667-7.917 1.667s-8.619-10.079-14.583-10.417c-2.855-0.162-6.622 1.445-7.5 4.167-1.602 4.967 1.24 8.076 4.583 12.083 0.765 0.918 2.5 5 2.5 5l2.917 4.583c0 0 6.879 3.525 10.619 4.289 5.033 1.028 10.302 0.86 15.408 0.295 3.487-0.386 6.991-1.136 10.223-2.5 4.829-2.037 9.171-7.519 13.333-8.333s9.583 1.667 9.583 1.667l26.667-26.667c0 0-5.77-3.117-8.818-4.304z" />
<glyph unicode="&#xe93a;" horiz-adv-x="640" d="M292.86 247.716l1.179-12.964 5.303-2.946-1.768-22.981 5.893-12.964 3.376-87.212-2.198-12.962 16.499 1.178-3.324 10.046-0.212 89.538 5.303 10.607-0.589 23.57 4.125 7.071v9.428l-18.267-2.357z" />
<glyph unicode="&#xe93b;" horiz-adv-x="640" d="M436.667 582.667l99.167 12.5-5.833-10.833-95-15.833z" />
<glyph unicode="&#xe93c;" horiz-adv-x="640" d="M534.167 593.5c16.729 34.903 33.307 70.806 30.286 112.096-2.163 29.566-9.002 63.832-28.375 87.845-20.949 25.966-48.767 46.668-75.328 55.934s-57.337 6.411-77.416 5.791c-20.079-0.62-25.716-2.036-42.5-5.833s-45.050-11.37-61.036-18.333c-15.986-6.964-32.329-19.042-45.404-30.75s-19.747-20.422-26.834-34.292c-7.087-13.871-14.414-29.849-16.077-45.893s-2.615-42.097 3.518-50.732c6.133-8.635 7.816-26.571 11.667-5 2.062 11.554 1.835 1.627 5.098 20.261 0.679 3.88 6.824 7.158 11.122 14.204 13.602 22.298 14.432 25.103 15.488 24.929 0 0-4.329-17.374-0.875-26.060 4.168-10.482 23.333-22.5 23.333-22.5-0.002 13.333-1.381 29.763 9.133 44.714 0 0-7.848-13.202-6.251-25.506 2.298-17.712 14.375-35.46 15.056-25.261 1.147 17.184 9.562 47.72 9.562 47.72l5-29.167c0 0 12.11 24.356 19.958 32.012 2.77 2.702 6.709-5.345 6.709-5.345s5.765-9.026 6.667-14.167c2.009-11.461 0.578-28.052-6.179-44.773-2.278-5.638 21.566 10.302 28.839 17.088s3.322 29.009 14.453 32.096c10.076 2.794 13.938-18.758 21.22-19.411s12.786 8.055 12.786 8.055l21.053-6.733c0 0-9.308 19.428-6.137 32.096 6.712 26.815 5.151-56.933 22.988-53.030 8.559 1.873 13.052 32.899 22.702-0.22 5.108-17.531 32.096-16.792 32.096-16.792s5.827-7.906 7.012-14.209c2.418-12.857 2.5-39.167 2.5-39.167s-9.751-37.817 5-41.667c14.751-3.85 22.034 25.12 29.167 40z" />
<glyph unicode="&#xe93d;" horiz-adv-x="640" d="M383.016 420.074c0 0-22.648-5.048-33.302-6.718s-30.337-3.594-30.337-3.594c0 0 5.207-10.218 6.885-15.671 1.845-5.996 3.427-18.505 3.427-18.505l7.66-1.473c0 0 4.46 12.816 8.839 18.562s11.147 10.363 17.237 14.901c6.212 4.628 19.592 12.5 19.592 12.5z" />
<glyph unicode="&#xe93e;" horiz-adv-x="640" d="M379.775 328.15l27.106 7.66 34.471-34.177-25.633-8.544z" />
<glyph unicode="&#xe93f;" horiz-adv-x="640" d="M386.667 421.417c0 0-12.113-3.87-17.044-6.296s-8.527-4.193-12.539-7.871c-4.013-3.678-7.437-8.618-10.77-14.243s-9.23-19.507-9.23-19.507c0 0 14.3 9.896 21.244 11.076s20.423-3.993 20.423-3.993l4.247 21.906z" />
<glyph unicode="&#xe940;" horiz-adv-x="640" d="M290 564.75c0 0-6.667-63.75-10-67.083s6.344-1.176 12.5 10.833c6.156 12.009 5.833 64.167 5.833 64.167s-3.461-1.559-4.893-2.9c-1.432-1.341-3.44-5.017-3.44-5.017z" />
<glyph unicode="&#xe941;" horiz-adv-x="640" d="M206.667 661.833c0 0 3.256 18.651 7.012 24.655s11.321 11.179 11.321 11.179l10-91.667-20.387-3.333c-1.137 13.454-4.159 15.043-7.241 40.362z" />
<glyph unicode="&#xe942;" horiz-adv-x="640" d="M209.775 518.185c0 0 1.499-4.084 4.248-11.513s7.064-18.221 10.656-24.116c6.621-10.865 16.712-24.517 25.898-34.017s30.007-26.51 39.492-32.552c9.485-6.042 16.344-4.458 16.344-4.458s-20.419 18.781-30.957 31.332c-10.538 12.55-25.89 31.122-32.093 44.093s-9.428 30.052-9.428 30.052c-8.348 2.008-15.812 0.098-24.159 1.179z" />
<glyph unicode="&#xe943;" horiz-adv-x="640" d="M305.833 411c5.796 0.804 10.67 0.482 14.583-2.5s4.753-8.659 6.25-13.333c2.111-6.59 3.75-20.417 3.75-20.417l-72.083 21.667 16.667 5.417-2.917-5.833 10 12.083 13.333 0.417-7.917-6.25c0 0 12.537 7.946 18.333 8.75z" />
<glyph unicode="&#xe944;" horiz-adv-x="640" d="M330.417 373.5c0 0-1.406 20.687-4.167 26.667s-3.862 7.387-7.917 9.583c-4.055 2.196-10.761 2.961-15.417 2.083s-8.996-3.449-11.25-6.25c-2.254-2.801-2.5-8.333-2.5-8.333s16.607-1.923 23.482-5.881c6.875-3.958 17.768-17.869 17.768-17.869z" />
<glyph unicode="&#xe945;" horiz-adv-x="640" d="M385.302 589.895c-20.226 0.098-39.505-5.366-59.276-7.42-8.251-0.857-16.784-0.997-25.119-0.026-11.082 1.291-21.887 4.518-32.97 6.033-9.905 1.353-19.935 2.763-29.857 2.922-17.339 0.281-22.134-2.052-39.027-4.498 0.17-4.462-3.855-19.235-3.855-19.235 2.744-3.263 1.385-2.734 2.698-7.13 3.114-10.426 7.363-20.659 12.671-30.482 2.579-4.774 7.233-8.133 12.376-10.468 12.385-5.623 26.826-6.587 40.117-5.005 18.928 2.252 28.761 14.951 36.078 29.504 2.721 5.918 2.788 12.782 6.463 18.179 2.182 3.205 7.587 1.787 11.411 1.757s7.285-5.777 8.617-9.591c4.714-13.5 12.262-27.85 26.453-35.051 21.192-10.753 53.874-9.14 66.643 9.699 4.997 7.373 6.112 16.373 8.441 24.756 1.418 5.104 2.627 11.195 8.254 13.948 2.271 1.111 0.474 5.663 0.716 8.295 0.263 2.867 0.884 5.4-3.689 6.013-7.977 1.071-15.792 4.147-23.956 5.248-7.737 1.044-15.334 2.513-23.189 2.552zM251.74 586.567c5.742-0.030 11.474-0.469 17.096-1.59 33.497-6.675 34.637-18.982 21.913-44.261-10.368-20.598-33.28-25.539-56.755-20.319-10.822 2.405-18.417 9.211-22.229 18.459-4.024 9.761-7.18 20.119-6.943 30.331 0.318 13.673 17.486 15.408 29.783 16.521 5.643 0.51 11.395 0.889 17.136 0.859zM373.168 585.248c5.744-0.095 11.529-0.599 17.216-1.232 12.392-1.381 29.707-3.491 31.064-17.182 1.014-10.225-1.357-20.523-4.641-30.205-3.112-9.173-10.196-15.819-20.843-17.992-23.097-4.714-46.404 0.729-58.349 21.569-14.657 25.577-14.452 37.869 18.564 43.822 5.541 0.999 11.245 1.314 16.989 1.219z" />
<glyph unicode="&#xe946;" horiz-adv-x="640" d="M363.636 576.162l43.294-21.055-38.006-22.652-7.47 10.523 22.242 12.212-25.678 11.594z" />
<glyph unicode="&#xe947;" horiz-adv-x="640" d="M258.476 533.080l-39.017 26.488 42.118 17.051 5.415-11.321-21.103-9.578 19.967-14.211z" />
<glyph unicode="&#xe948;" horiz-adv-x="640" d="M228.333 521.833c-16.209 9.193-30.413 32.763-23.333 50 5.573 13.57 41.667 14.167 41.667 14.167s42.131-0.061 49.857-15.202c7.726-15.141-4.726-33.542-19.024-43.964-11.931-8.697-36.324-12.284-49.167-5z" />
<glyph unicode="&#xe949;" horiz-adv-x="640" d="M355.015 521.535c-16.209 9.193-30.413 32.763-23.333 50 5.573 13.57 41.667 14.167 41.667 14.167s39.774 3.475 47.5-11.667c7.726-15.141 0.964-40.411-13.333-50.833-11.931-8.697-39.658-8.95-52.5-1.667z" />
<glyph unicode="&#xe94a;" horiz-adv-x="1365" d="M903.319 652.835l211.209-55.021-134.631-163.383-44.95 44.947 80.077 90.239-124.165 28.033z" />
<glyph unicode="&#xe94b;" horiz-adv-x="1365" d="M506.614 301.602l-199.621 88.249 159.138 139.623 37.142-51.587-78.457-75.284 102.965-48.537z" />
<glyph unicode="&#xe94c;" glyph-name="book" d="M896 832v-832h-672c-53.026 0-96 42.98-96 96s42.974 96 96 96h608v768h-640c-70.398 0-128-57.6-128-128v-768c0-70.4 57.602-128 128-128h768v896h-64zM224.056 128v0c-0.018-0.002-0.038 0-0.056 0-17.672 0-32-14.326-32-32s14.328-32 32-32c0.018 0 0.038 0.002 0.056 0.002v-0.002h607.89v64h-607.89z" />
<glyph unicode="&#xe94d;" glyph-name="books" horiz-adv-x="1152" d="M224 832h-192c-17.6 0-32-14.4-32-32v-704c0-17.6 14.4-32 32-32h192c17.6 0 32 14.4 32 32v704c0 17.6-14.4 32-32 32zM192 640h-128v64h128v-64zM544 832h-192c-17.6 0-32-14.4-32-32v-704c0-17.6 14.4-32 32-32h192c17.6 0 32 14.4 32 32v704c0 17.6-14.4 32-32 32zM512 640h-128v64h128v-64zM765.088 782.52l-171.464-86.394c-15.716-7.918-22.096-27.258-14.178-42.976l287.978-571.548c7.918-15.718 27.258-22.098 42.976-14.178l171.464 86.392c15.716 7.92 22.096 27.26 14.178 42.974l-287.978 571.55c-7.92 15.718-27.26 22.1-42.976 14.18z" />
<glyph unicode="&#xe94e;" glyph-name="profile" d="M864 960h-768c-52.8 0-96-43.2-96-96v-832c0-52.8 43.2-96 96-96h768c52.8 0 96 43.2 96 96v832c0 52.8-43.2 96-96 96zM832 64h-704v768h704v-768zM256 384h448v-64h-448zM256 256h448v-64h-448zM320 672c0 53.019 42.981 96 96 96s96-42.981 96-96c0-53.019-42.981-96-96-96s-96 42.981-96 96zM480 576h-128c-52.8 0-96-28.8-96-64v-64h320v64c0 35.2-43.2 64-96 64z" />
<glyph unicode="&#xe94f;" glyph-name="price-tag" d="M976 960h-384c-26.4 0-63.274-15.274-81.942-33.942l-476.116-476.116c-18.668-18.668-18.668-49.214 0-67.882l412.118-412.118c18.668-18.668 49.214-18.668 67.882 0l476.118 476.118c18.666 18.666 33.94 55.54 33.94 81.94v384c0 26.4-21.6 48-48 48zM736 576c-53.020 0-96 42.98-96 96s42.98 96 96 96 96-42.98 96-96-42.98-96-96-96z" />
<glyph unicode="&#xe950;" glyph-name="price-tags" horiz-adv-x="1280" d="M1232 960h-384c-26.4 0-63.274-15.274-81.942-33.942l-476.116-476.116c-18.668-18.668-18.668-49.214 0-67.882l412.118-412.118c18.668-18.668 49.214-18.668 67.882 0l476.118 476.118c18.666 18.666 33.94 55.54 33.94 81.94v384c0 26.4-21.6 48-48 48zM992 576c-53.020 0-96 42.98-96 96s42.98 96 96 96 96-42.98 96-96-42.98-96-96-96zM128 416l544 544h-80c-26.4 0-63.274-15.274-81.942-33.942l-476.116-476.116c-18.668-18.668-18.668-49.214 0-67.882l412.118-412.118c18.668-18.668 49.214-18.668 67.882 0l30.058 30.058-416 416z" />
<glyph unicode="&#xe951;" glyph-name="display" d="M0 896v-640h1024v640h-1024zM960 320h-896v512h896v-512zM672 192h-320l-32-128-64-64h512l-64 64z" />
<glyph unicode="&#xe952;" glyph-name="key" d="M704 960c-176.73 0-320-143.268-320-320 0-20.026 1.858-39.616 5.376-58.624l-389.376-389.376v-192c0-35.346 28.654-64 64-64h64v64h128v128h128v128h128l83.042 83.042c34.010-12.316 70.696-19.042 108.958-19.042 176.73 0 320 143.268 320 320s-143.27 320-320 320zM799.874 639.874c-53.020 0-96 42.98-96 96s42.98 96 96 96 96-42.98 96-96-42.98-96-96-96z" />
<glyph unicode="&#xe953;" glyph-name="key2" d="M1002.132 645.758l-101.106 101.104c-24.792 24.794-65.37 65.368-90.162 90.164l-101.106 101.104c-24.792 24.794-68.954 29.166-98.13 9.716l-276.438-184.292c-29.176-19.452-40.218-61.028-24.536-92.39l70.486-140.974c2.154-4.306 4.646-8.896 7.39-13.66l-356.53-356.53-32-224h192v64h128v128h128v128h128v71.186c6.396-3.812 12.534-7.216 18.192-10.044l140.97-70.488c31.366-15.682 72.94-4.638 92.39 24.538l184.294 276.44c19.454 29.172 15.078 73.33-9.714 98.126zM150.628 105.374l-45.254 45.254 311.572 311.57 45.254-45.254-311.572-311.57zM917.020 536.236l-45.256-45.256c-12.446-12.444-32.808-12.444-45.254 0l-271.53 271.53c-12.446 12.444-12.446 32.81 0 45.254l45.256 45.256c12.446 12.444 32.808 12.444 45.254 0l271.53-271.53c12.446-12.444 12.446-32.81 0-45.254z" />
<glyph unicode="&#xe954;" glyph-name="switch" d="M640 813.412v-135.958c36.206-15.804 69.5-38.408 98.274-67.18 60.442-60.44 93.726-140.8 93.726-226.274s-33.286-165.834-93.726-226.274c-60.44-60.44-140.798-93.726-226.274-93.726s-165.834 33.286-226.274 93.726c-60.44 60.44-93.726 140.8-93.726 226.274s33.286 165.834 93.726 226.274c28.774 28.774 62.068 51.378 98.274 67.182v135.956c-185.048-55.080-320-226.472-320-429.412 0-247.424 200.578-448 448-448 247.424 0 448 200.576 448 448 0 202.94-134.95 374.332-320 429.412zM448 960h128v-512h-128z" />
<glyph unicode="&#xe955;" glyph-name="clipboard" d="M928 832h-288c0 70.692-57.306 128-128 128-70.692 0-128-57.308-128-128h-288c-17.672 0-32-14.328-32-32v-832c0-17.674 14.328-32 32-32h832c17.674 0 32 14.326 32 32v832c0 17.672-14.326 32-32 32zM512 896c35.346 0 64-28.654 64-64s-28.654-64-64-64c-35.346 0-64 28.654-64 64s28.654 64 64 64zM896 0h-768v768h128v-96c0-17.672 14.328-32 32-32h448c17.674 0 32 14.328 32 32v96h128v-768zM448 101.49l-205.254 237.254 58.508 58.51 146.746-114.744 274.742 242.744 58.514-58.508z" />
</font>
</defs>
</svg>
