<?xml version="1.0" encoding="UTF-8" standalone="no"?>
<!-- Created with Inkscape (http://www.inkscape.org/) -->

<svg
   xmlns:dc="http://purl.org/dc/elements/1.1/"
   xmlns:cc="http://creativecommons.org/ns#"
   xmlns:rdf="http://www.w3.org/1999/02/22-rdf-syntax-ns#"
   xmlns:svg="http://www.w3.org/2000/svg"
   xmlns="http://www.w3.org/2000/svg"
   xmlns:sodipodi="http://sodipodi.sourceforge.net/DTD/sodipodi-0.dtd"
   xmlns:inkscape="http://www.inkscape.org/namespaces/inkscape"
   id="svg5021"
   version="1.1"
   inkscape:version="0.91 r13725"
   width="1485"
   height="678.75"
   viewBox="0 0 1485 678.75"
   sodipodi:docname="bandera.svg">
  <metadata
     id="metadata5027">
    <rdf:RDF>
      <cc:Work
         rdf:about="">
        <dc:format>image/svg+xml</dc:format>
        <dc:type
           rdf:resource="http://purl.org/dc/dcmitype/StillImage" />
        <dc:title></dc:title>
      </cc:Work>
    </rdf:RDF>
  </metadata>
  <defs
     id="defs5025" />
  <sodipodi:namedview
     pagecolor="#ffffff"
     bordercolor="#666666"
     borderopacity="1"
     objecttolerance="10"
     gridtolerance="10"
     guidetolerance="10"
     inkscape:pageopacity="0"
     inkscape:pageshadow="2"
     inkscape:window-width="1020"
     inkscape:window-height="507"
     id="namedview5023"
     showgrid="false"
     inkscape:zoom="0.78091254"
     inkscape:cx="429.64691"
     inkscape:cy="236.39611"
     inkscape:window-x="0"
     inkscape:window-y="72"
     inkscape:window-maximized="0"
     inkscape:current-layer="layer1" />
  <g
     inkscape:groupmode="layer"
     id="layer1"
     inkscape:label="Layer 1"
     style="display:inline">
    <path
       style="fill:#ff3731;fill-opacity:1;fill-rule:evenodd;stroke:#ff3731;stroke-width:1px;stroke-linecap:butt;stroke-linejoin:miter;stroke-opacity:1"
       d="M 492.58537,445.13415 489.8689,326.51524 c 0,0 -66.8681,46.65091 -107.75305,58.85671 -12.27039,3.6632 -25.90733,10.0938 -37.12499,0.90549 -5.99241,-4.90834 -8.2034,-7.04181 -10.77955,-16.41273 -1.2856,-4.67647 2.77773,-12.97329 -4.61375,-17.09032 -6.64653,-3.7021 -20.14059,-7.61074 -30.35029,-5.75241 -23.89597,4.34945 -66.21756,20.97977 -89.92424,32.54199 -45.03636,21.96513 -79.70904,52.98692 -107.9084,80.96347 -28.199349,27.97655 -54.329264,82.39939 -54.329264,82.39939 l 139.445124,0 c 0,0 44.66622,-52.69079 72.43902,-67.0061 27.7728,-14.31531 68.93434,-29.53677 86.92683,-18.10975 17.99249,11.42702 9.05488,38.03048 9.05488,38.03048 0,0 67.76003,-16.56765 90.54878,-27.16463 22.78875,-10.59698 47.08537,-23.54268 47.08537,-23.54268 z"
       id="path5037"
       inkscape:connector-curvature="0"
       sodipodi:nodetypes="ccsssssszcczzczc" />
    <path
       style="fill:#7443cb;fill-opacity:1;fill-rule:evenodd;stroke:#7443cb;stroke-width:1px;stroke-linecap:butt;stroke-linejoin:miter;stroke-opacity:1"
       d="m 494.39634,184.35366 c 0,0 -3.01279,22.66333 -1.19742,51.89352 1.69953,27.365 -0.41731,53.53089 -2.42453,78.49672 -1.3352,16.60725 -4.20234,11.2515 -26.94706,27.61727 -22.74472,16.36577 -47.67948,27.33647 -65.41269,35.76688 -17.73321,8.43041 -34.85749,14.2485 -46.17988,10.86585 0,0 -12.5818,-2.22862 -15.47944,-9.92794 -4.2361,-11.25576 2.38749,-25.7015 -21.64557,-30.81901 -24.03305,-5.11751 -75.624,17.56254 -109.78373,35.15867 -40.43869,20.8305 -76.86107,47.36052 -109.344313,81.64926 -19.931879,21.03974 -49.801829,76.96646 -49.801829,76.96646 L 45.27439,399.85976 c 0,0 78.96826,-87.07304 124.95732,-110.46952 45.98906,-23.39648 115.42095,-44.41066 139.44512,-30.78658 24.02417,13.62408 -13.01467,11.66662 7.2439,21.73171 20.25857,10.06509 77.05567,-19.37707 106.84756,-36.21952 29.79189,-16.84245 70.62805,-59.76219 70.62805,-59.76219 z"
       id="path5039"
       inkscape:connector-curvature="0"
       sodipodi:nodetypes="csszzsszascczzzzc" />
    <path
       style="fill:#fce416;fill-opacity:1;fill-rule:evenodd;stroke:#fce416;stroke-width:1px;stroke-linecap:butt;stroke-linejoin:miter;stroke-opacity:1"
       d="m 47.085366,396.2378 c 0.0063,0.005 73.612224,-77.21809 119.524394,-105.03658 16.72616,-10.13449 34.24821,-18.77355 54.46186,-24.91742 35.27143,-10.72062 71.37266,-18.37134 87.69972,-8.58563 25.68389,15.39379 -7.74616,15.54911 2.71647,21.73171 10.46262,6.1826 27.044,2.37578 47.91797,-5.6706 15.26089,-5.88269 38.53697,-17.56649 53.49666,-24.2105 34.88919,-15.49523 75.83659,-52.75059 80.58842,-67.00609 l 0.90548,-146.689031 c 0,0 -53.86436,71.118881 -86.92683,94.170731 -33.06247,23.05185 -84.666,55.20682 -105.03658,43.46341 -20.37058,-11.74341 15.47574,-3.64292 -7.2439,-19.92073 -22.71964,-16.27781 -98.03488,5.64365 -134.0122,19.92073 -35.97732,14.27708 -58.89079,32.70235 -77.871952,48.89635 -18.98116,16.194 -38.030488,43.46341 -38.030488,43.46341 z"
       id="path5035"
       inkscape:connector-curvature="0"
       sodipodi:nodetypes="cssszsscczzzzzcc" />
  </g>
  <g
     inkscape:groupmode="layer"
     id="layer2"
     inkscape:label="Layer 2">
    <path
       style="fill:#ffffff;fill-rule:evenodd;stroke:#c8c8c8;stroke-width:1px;stroke-linecap:butt;stroke-linejoin:miter;stroke-opacity:1;fill-opacity:1"
       d="m 78.754018,420.71854 -3.84166,-16.64719 11.524979,10.88471 14.086083,-7.04305 -3.841658,13.44581 8.323598,10.8847 -13.445811,0 -7.683319,14.08609 -2.561106,-15.36664 -16.647191,-1.28055 z"
       id="path5041"
       inkscape:connector-curvature="0"
       sodipodi:nodetypes="ccccccccccc" />
    <path
       style="fill:#ffffff;fill-rule:evenodd;stroke:#6b3ebb;stroke-width:1px;stroke-linecap:butt;stroke-linejoin:miter;stroke-opacity:1;fill-opacity:1"
       d="m 122.87403,380.37487 -3.84166,-16.64719 11.52498,10.88471 14.08609,-7.04305 -3.84167,13.44581 8.32361,10.8847 -13.44582,0 -7.68332,14.08609 -2.5611,-15.36664 -16.64719,-1.28055 z"
       id="path5041-3"
       inkscape:connector-curvature="0"
       sodipodi:nodetypes="ccccccccccc" />
    <path
       style="fill:#ffffff;fill-rule:evenodd;stroke:#ffffff;stroke-width:1px;stroke-linecap:butt;stroke-linejoin:miter;stroke-opacity:1;fill-opacity:1"
       d="m 172.8156,343.87911 -3.84166,-16.64719 11.52498,10.88471 14.08608,-7.04305 -3.84165,13.44581 8.32359,10.8847 -13.44581,0 -7.68332,14.08609 -2.5611,-15.36664 -16.64719,-1.28055 z"
       id="path5041-9"
       inkscape:connector-curvature="0"
       sodipodi:nodetypes="ccccccccccc"
       inkscape:transform-center-x="75.931843"
       inkscape:transform-center-y="36.489519" />
    <path
       style="fill:#ffffff;fill-rule:evenodd;stroke:#ffffff;stroke-width:1px;stroke-linecap:butt;stroke-linejoin:miter;stroke-opacity:1;fill-opacity:1"
       d="m 228.51967,316.34722 -3.84166,-16.64719 11.52498,10.88471 14.08608,-7.04305 -3.84166,13.44581 8.3236,10.8847 -13.44581,0 -7.68332,14.08609 -2.56111,-15.36664 -16.64719,-1.28055 z"
       id="path5041-39"
       inkscape:connector-curvature="0"
       sodipodi:nodetypes="ccccccccccc" />
    <path
       style="fill:#ffffff;fill-rule:evenodd;stroke:#fbf8f8;stroke-width:1px;stroke-linecap:butt;stroke-linejoin:miter;stroke-opacity:1;fill-opacity:1"
       d="m 285.50428,306.74306 -3.84166,-16.64719 11.52498,10.88471 14.08608,-7.04305 -3.84166,13.44581 8.3236,10.8847 -13.44581,0 -7.68332,14.08609 -2.56111,-15.36664 -16.64719,-1.28055 z"
       id="path5041-2"
       inkscape:connector-curvature="0"
       sodipodi:nodetypes="ccccccccccc" />
    <path
       style="fill:#ffffff;fill-rule:evenodd;stroke:#ffffff;stroke-width:1px;stroke-linecap:butt;stroke-linejoin:miter;stroke-opacity:1;fill-opacity:1"
       d="m 333.52502,319.5486 -3.84166,-16.64719 11.52498,10.88471 14.08608,-7.04305 -3.84165,13.44581 8.32359,10.8847 -13.44581,0 -7.68332,14.08609 -2.5611,-15.36664 -16.64719,-1.28055 z"
       id="path5041-1"
       inkscape:connector-curvature="0"
       sodipodi:nodetypes="ccccccccccc" />
    <path
       style="fill:#ffffff;fill-rule:evenodd;stroke:#ffffff;stroke-width:1px;stroke-linecap:butt;stroke-linejoin:miter;stroke-opacity:1;fill-opacity:1"
       d="m 388.31909,305.78252 -3.84166,-16.64719 11.52498,10.88471 14.08609,-7.04305 -3.84166,13.44581 8.3236,10.8847 -13.44581,0 -7.68332,14.08609 -2.56111,-15.36664 -16.64719,-1.28055 z"
       id="path5041-7"
       inkscape:connector-curvature="0"
       sodipodi:nodetypes="ccccccccccc"
       inkscape:transform-center-x="27.911101"
       inkscape:transform-center-y="14.07984" />
    <path
       style="fill:#ffffff;fill-rule:evenodd;stroke:#ffffff;stroke-width:1px;stroke-linecap:butt;stroke-linejoin:miter;stroke-opacity:1;fill-opacity:1"
       d="m 441.73176,280.49173 -3.84166,-16.64719 11.52498,10.88471 14.08608,-7.04305 -3.84166,13.44581 8.3236,10.8847 -13.44581,0 -7.68332,14.08609 -2.56111,-15.36664 -16.64719,-1.28055 z"
       id="path5041-26"
       inkscape:connector-curvature="0"
       sodipodi:nodetypes="ccccccccccc"
       inkscape:transform-center-x="22.148611"
       inkscape:transform-center-y="5.1159679" />
  </g>
</svg>
