<?xml version="1.0" encoding="UTF-8" standalone="no"?>
<!-- Created with Inkscape (http://www.inkscape.org/) -->

<svg
   xmlns:dc="http://purl.org/dc/elements/1.1/"
   xmlns:cc="http://creativecommons.org/ns#"
   xmlns:rdf="http://www.w3.org/1999/02/22-rdf-syntax-ns#"
   xmlns:svg="http://www.w3.org/2000/svg"
   xmlns="http://www.w3.org/2000/svg"
   xmlns:sodipodi="http://sodipodi.sourceforge.net/DTD/sodipodi-0.dtd"
   xmlns:inkscape="http://www.inkscape.org/namespaces/inkscape"
   id="svg4190"
   version="1.1"
   inkscape:version="0.91 r13725"
   width="625"
   height="468.75"
   viewBox="0 0 625 468.75"
   sodipodi:docname="iaveg.svg">
  <metadata
     id="metadata4196">
    <rdf:RDF>
      <cc:Work
         rdf:about="">
        <dc:format>image/svg+xml</dc:format>
        <dc:type
           rdf:resource="http://purl.org/dc/dcmitype/StillImage" />
        <dc:title></dc:title>
      </cc:Work>
    </rdf:RDF>
  </metadata>
  <defs
     id="defs4194" />
  <sodipodi:namedview
     pagecolor="#ffffff"
     bordercolor="#666666"
     borderopacity="1"
     objecttolerance="10"
     gridtolerance="10"
     guidetolerance="10"
     inkscape:pageopacity="0"
     inkscape:pageshadow="2"
     inkscape:window-width="1020"
     inkscape:window-height="561"
     id="namedview4192"
     showgrid="false"
     inkscape:zoom="1.1404218"
     inkscape:cx="397.62925"
     inkscape:cy="312.94382"
     inkscape:window-x="0"
     inkscape:window-y="18"
     inkscape:window-maximized="0"
     inkscape:current-layer="layer1" />
  <g
     inkscape:groupmode="layer"
     id="layer1"
     inkscape:label="Layer 1"
     style="display:inline">
    <path
       style="display:inline;fill:none;fill-rule:evenodd;stroke:none;stroke-width:1.09734166px;stroke-linecap:butt;stroke-linejoin:miter;stroke-opacity:1"
       d="m 319.1738,43.809355 c 0,0 182.67426,52.476744 270.69425,81.253235 6.98751,2.28445 0.39704,10.09971 -3.14006,19.95144 -2.65311,7.38966 -4.77647,17.78079 -10.9477,15.30469 C 493.84274,127.44252 319.1738,43.809355 319.1738,43.809355 Z"
       id="path4201-3"
       inkscape:connector-curvature="0"
       sodipodi:nodetypes="csssc" />
    <path
       style="display:inline;fill:none;fill-rule:evenodd;stroke:none;stroke-width:1.152946px;stroke-linecap:butt;stroke-linejoin:miter;stroke-opacity:1"
       d="m 361.34996,41.430108 c 0,0 -209.32898,78.796892 -313.040038,114.587502 -8.233158,2.84125 -8.600508,-6.05576 -13.412457,-14.3586 -3.60941,-6.22788 -10.15009,-14.00406 -2.50469,-16.22746 C 133.9034,95.910794 361.34996,41.430108 361.34996,41.430108 Z"
       id="path4201-5"
       inkscape:connector-curvature="0"
       sodipodi:nodetypes="csssc" />
    <path
       style="fill:#000000;fill-opacity:1;stroke:#000000;stroke-width:1.24503958;stroke-linejoin:round;stroke-miterlimit:4;stroke-dasharray:none;stroke-opacity:1"
       d="m 28.833123,409.1572 c -1.510528,-16.38267 12.675725,-233.46014 15.073633,-230.65611 1.304524,1.52546 13.403567,167.64607 15.53489,213.295 l 0.882955,18.91121 -15.674277,0 c -11.636476,0 -15.711095,-0.39932 -15.817201,-1.5501 z"
       id="path4258"
       inkscape:connector-curvature="0" />
    <path
       style="fill:#000000;fill-opacity:1;stroke:#000000;stroke-width:1.24503958;stroke-linejoin:round;stroke-miterlimit:4;stroke-dasharray:none;stroke-opacity:1"
       d="m 84.78039,336.61256 7.7e-4,-53.01339 -6.141977,0.42571 -6.141978,0.42571 0.606721,-4.14595 c 0.333697,-2.28027 1.638916,-12.12773 2.900488,-21.88324 1.261572,-9.75551 2.56433,-18.00785 2.895018,-18.33854 0.330688,-0.33069 8.206423,-0.94502 17.501631,-1.36517 l 16.900377,-0.76391 0,53.42506 0,53.42506 7.02791,-0.72535 c 5.72278,-0.59064 6.90921,-0.40129 6.3888,1.01966 -0.35151,0.95975 -2.51666,11.37112 -4.81146,23.13637 l -4.17237,21.39137 -16.47735,0 -16.477352,0 7.72e-4,-53.01339 z"
       id="path4260"
       inkscape:connector-curvature="0" />
    <path
       style="fill:#000000;fill-opacity:1;stroke:#020000;stroke-width:3.545;stroke-linejoin:round;stroke-miterlimit:4;stroke-dasharray:none;stroke-opacity:1"
       d="m 42.673272,153.45873 c -3.090288,-3.72357 -12.561233,-23.42961 -11.983775,-24.93444 0.710239,-1.85085 2.648093,-2.43372 55.95024,-16.82864 C 138.63497,97.653668 330.34616,49.663716 332.62163,50.120422 c 0.94218,0.189103 -6.8643,3.513479 -17.34772,7.387502 -10.48342,3.874022 -40.82415,15.11397 -67.42386,24.977662 -98.2683,36.439814 -199.214991,72.765364 -202.21091,72.765364 -0.813153,0 -2.147793,-0.8065 -2.965868,-1.79222 z"
       id="path4262"
       inkscape:connector-curvature="0" />
    <path
       style="fill:#000000;fill-opacity:1;stroke:#000000;stroke-width:1.24503958;stroke-linejoin:round;stroke-miterlimit:4;stroke-dasharray:none;stroke-opacity:1"
       d="m 107.53229,227.70654 -11.349502,-9.07119 -11.492154,8.60685 c -6.320685,4.73376 -11.672385,8.42662 -11.892666,8.20633 -0.220283,-0.22028 1.54842,-6.18771 3.93045,-13.26095 2.382029,-7.07325 4.330962,-13.23677 4.330962,-13.69672 0,-0.45996 -5.580357,-5.16568 -12.400793,-10.45717 -6.820437,-5.29149 -12.400794,-9.89251 -12.400794,-10.22449 0,-0.33197 6.787627,-0.39942 15.083615,-0.14987 l 15.083616,0.45372 5.141834,-15.41157 5.141834,-15.41157 3.878298,12.31137 c 2.13307,6.77126 4.26187,13.88201 4.73067,15.80166 l 0.85237,3.49029 14.10638,-0.86868 c 7.75851,-0.47777 14.10638,-0.58132 14.10638,-0.23011 0,0.35121 -5.29585,4.75184 -11.76855,9.77918 -6.47271,5.02735 -11.77405,9.72852 -11.78076,10.44707 -0.007,0.71854 1.94593,7.12095 4.3392,14.22756 2.39327,7.10661 4.20688,13.283 4.03026,13.72529 -0.17663,0.4423 -5.42842,-3.27785 -11.67065,-8.267 z"
       id="path4264"
       inkscape:connector-curvature="0" />
    <path
       style="fill:#000000;fill-opacity:1;stroke:#000000;stroke-width:1.24503958;stroke-linejoin:round;stroke-miterlimit:4;stroke-dasharray:none;stroke-opacity:1"
       d=""
       id="path4266"
       inkscape:connector-curvature="0" />
    <path
       style="fill:#000000;fill-opacity:1;stroke:#000000;stroke-width:0.62251979;stroke-linejoin:round;stroke-miterlimit:4;stroke-dasharray:none;stroke-opacity:1"
       d=""
       id="path4268"
       inkscape:connector-curvature="0" />
    <path
       style="fill:#000000;fill-opacity:1;stroke:#000000;stroke-width:0.62251979;stroke-linejoin:round;stroke-miterlimit:4;stroke-dasharray:none;stroke-opacity:1"
       d="m 45.17879,411.05692 c -11.722581,-0.24324 -15.17222,-0.50176 -16.013089,-1.20005 -0.971467,-0.80676 -1.034469,-1.93812 -0.673296,-12.09078 0.619975,-17.4277 2.629624,-55.38396 4.678674,-88.36614 1.026526,-16.52332 1.752537,-32.00881 1.613358,-34.41221 -0.193976,-3.34964 -0.136265,-3.7908 0.2472,-1.88965 0.333748,1.65465 0.433827,0.10684 0.30068,-4.6503 -0.141412,-5.05247 -0.05107,-6.31733 0.31002,-4.34028 0.359933,1.97074 0.449452,0.69606 0.304813,-4.34028 -0.141822,-4.93824 -0.04475,-6.36795 0.315723,-4.65029 0.365302,1.74063 0.453546,0.53891 0.295947,-4.03026 -0.151496,-4.39223 -0.04785,-5.90522 0.31856,-4.6503 0.370451,1.26876 0.466232,-0.0125 0.301277,-4.03026 -0.164631,-4.00985 -0.06879,-5.29653 0.300205,-4.03026 0.369424,1.26775 0.465894,-0.0157 0.302925,-4.03025 -0.165051,-4.06585 -0.06902,-5.31421 0.31002,-4.03026 0.377155,1.27755 0.470442,0.0153 0.297865,-4.03026 -0.172528,-4.0444 -0.07206,-5.40459 0.3206,-4.34028 0.394591,1.06957 0.48437,-0.0837 0.289606,-3.72024 -0.19928,-3.72084 -0.102501,-4.90575 0.329178,-4.03025 0.431724,0.87558 0.528648,-0.30903 0.329756,-4.03026 -0.194623,-3.64133 -0.10472,-4.79122 0.290862,-3.72024 0.398029,1.0776 0.492528,-0.0564 0.310019,-3.72024 -0.185788,-3.72969 -0.09186,-4.8172 0.321328,-3.72024 0.414228,1.09975 0.510091,0.0189 0.329954,-3.72023 -0.180011,-3.7365 -0.09211,-4.72899 0.302033,-3.41022 0.394198,1.31895 0.490162,0.23662 0.329851,-3.72024 -0.133503,-3.2952 -0.05002,-4.56473 0.203873,-3.1002 0.407107,2.34834 0.455668,2.24124 0.913675,-2.01513 0.266044,-2.47241 0.710962,-4.49529 0.988707,-4.49529 0.74265,0 1.126931,2.48958 2.021557,13.09669 0.638722,7.57301 0.887354,8.96069 1.208433,6.74458 0.222339,-1.53459 0.312267,0.13951 0.199841,3.72024 -0.144884,4.61451 -0.05309,5.78817 0.315228,4.03026 0.36724,-1.75278 0.458162,-0.5708 0.310019,4.03026 -0.149306,4.63721 -0.05885,5.79681 0.3144,4.03026 0.376753,-1.78316 0.462834,-0.73766 0.306305,3.72023 -0.152541,4.34432 -0.05779,5.55077 0.316511,4.03026 0.37431,-1.52053 0.469062,-0.3141 0.316537,4.03026 -0.156918,4.46948 -0.07099,5.50803 0.307818,3.72024 0.374836,-1.76906 0.464775,-0.61353 0.313688,4.03026 -0.146478,4.50212 -0.05487,5.74535 0.296953,4.03025 0.349179,-1.70218 0.445378,-0.34072 0.306677,4.34028 -0.144302,4.87002 -0.05714,6.02254 0.304821,4.03026 0.363146,-1.99884 0.451073,-0.85579 0.31002,4.03026 -0.142386,4.93223 -0.0551,6.04799 0.315273,4.03026 0.364633,-1.98644 0.45468,-0.73618 0.312596,4.34027 -0.140019,5.00266 -0.04908,6.29785 0.304767,4.34028 0.359595,-1.9894 0.44783,-0.83272 0.307443,4.03026 -0.142386,4.93224 -0.0551,6.04799 0.315274,4.03026 0.364633,-1.98644 0.454679,-0.73618 0.312595,4.34028 -0.146457,5.23269 -0.05859,6.38785 0.330161,4.34027 0.435592,-2.29432 0.48216,-1.96375 0.262037,1.86012 -0.364688,6.33521 1.139467,28.59931 1.675588,24.80159 0.231279,-1.63831 0.290119,-0.81644 0.142528,1.99083 -0.138248,2.62956 -0.0392,7.9309 0.220095,11.78075 0.387975,5.76034 0.54227,6.50571 0.871399,4.20957 0.246235,-1.71784 0.305248,-0.97557 0.153548,1.93133 -0.135519,2.59683 -0.03469,8.03767 0.224065,12.09077 0.418148,6.54983 0.513883,6.99007 0.860955,3.95905 0.214771,-1.87562 0.309434,0.35652 0.210361,4.96032 -0.127687,5.93344 -0.03743,7.37764 0.31002,4.96032 0.347443,-2.41733 0.437706,-0.97313 0.31002,4.96031 -0.121491,5.64553 -0.02239,7.36128 0.304406,5.27034 0.347679,-2.22453 0.421731,-1.2613 0.262171,3.41022 -0.122302,3.58073 0.265082,15.25537 0.860854,25.94366 0.595772,10.68828 0.942108,19.47735 0.769635,19.53125 -0.172473,0.0539 -7.037189,-0.0415 -15.254923,-0.21201 z"
       id="path4272"
       inkscape:connector-curvature="0" />
    <path
       style="fill:#000000;fill-opacity:1;stroke:#000000;stroke-width:0.62251979;stroke-linejoin:round;stroke-miterlimit:4;stroke-dasharray:none;stroke-opacity:1"
       d=""
       id="path4274"
       inkscape:connector-curvature="0" />
    <path
       style="fill:#000000;fill-opacity:1;stroke:#000000;stroke-width:0.62251979;stroke-linejoin:round;stroke-miterlimit:4;stroke-dasharray:none;stroke-opacity:1"
       d=""
       id="path4276"
       inkscape:connector-curvature="0" />
    <path
       style="fill:#000000;fill-opacity:1;stroke:#000000;stroke-width:0.62251979;stroke-linejoin:round;stroke-miterlimit:4;stroke-dasharray:none;stroke-opacity:1"
       d="m 44.795361,411.08626 c -12.802864,-0.29547 -14.842797,-0.47755 -15.772254,-1.40782 -0.996783,-0.99765 -1.017479,-2.31251 -0.312304,-19.84127 0.415373,-10.32505 1.488063,-31.0496 2.383754,-46.05456 0.895692,-15.00496 1.653107,-31.88554 1.683146,-37.5124 0.03443,-6.44995 0.210067,-9.08498 0.47527,-7.13046 0.242745,1.78903 0.333267,-0.0466 0.214033,-4.34027 -0.113642,-4.09227 -0.009,-6.60343 0.232447,-5.58036 0.248715,1.05369 0.462264,-1.76883 0.492573,-6.51042 0.02943,-4.60379 0.779722,-17.71763 1.66732,-29.14186 4.16066,-53.55162 5.64084,-70.69321 6.014054,-69.64723 0.266825,0.74782 0.558439,0.0267 0.858007,-2.12167 0.877663,-6.29429 1.837792,-4.35128 2.651652,5.36615 0.395062,4.71701 0.496652,5.04408 0.884819,2.84868 0.263801,-1.49201 0.337152,-0.38035 0.184102,2.79018 -0.139927,2.89868 -0.04535,4.77486 0.210173,4.16928 0.255521,-0.60559 1.106752,7.20691 1.891623,17.36111 4.237941,54.82794 5.596933,74.81467 5.369085,78.96327 -0.195594,3.56132 -0.126377,4.11192 0.305839,2.43292 0.405765,-1.57624 0.489406,-0.55813 0.305633,3.72024 -0.139238,3.24155 -0.03145,5.34429 0.239698,4.67601 0.637344,-1.57082 1.366698,9.95989 0.989736,15.64721 -0.170846,2.57759 -0.08683,3.57679 0.22015,2.61825 0.647721,-2.02249 1.388085,9.20923 1.027384,15.58598 -0.1504,2.65889 -0.06818,3.78854 0.196905,2.70519 0.563987,-2.30495 2.540957,31.2361 2.284141,38.75248 -0.148531,4.34714 -0.09456,4.72728 0.308095,2.17014 0.324268,-2.05931 0.43298,0.0224 0.32379,6.2004 -0.104031,5.88601 -0.0039,7.93476 0.272748,5.58035 0.249208,-2.12092 0.349949,0.94444 0.234337,7.13046 -0.111536,5.96788 -0.411691,10.8639 -0.667012,10.88004 -0.25532,0.0161 -7.081346,-0.12337 -15.168944,-0.31002 z"
       id="path4278"
       inkscape:connector-curvature="0" />
    <path
       style="fill:#000000;fill-opacity:1;stroke:none;stroke-width:0.62251979;stroke-linejoin:round;stroke-miterlimit:4;stroke-dasharray:none;stroke-opacity:1"
       d="m 45.239173,411.70357 c 5.178129,-0.37773 4.833277,-0.43069 -4.784357,-0.73478 -8.119688,-0.25673 -10.554574,-0.54654 -11.241249,-1.33796 -0.681865,-0.78587 -0.937597,-4.30096 -1.151475,-15.82721 -0.151216,-8.14933 -0.114975,-12.39236 0.08054,-9.42897 0.311178,4.71656 0.415367,3.8773 0.8361,-6.73498 0.264344,-6.66763 1.039791,-22.73055 1.723216,-35.69539 0.683424,-12.96484 1.115253,-26.45163 0.959619,-29.97065 -0.176428,-3.98922 -0.110599,-5.25712 0.174838,-3.3675 0.305827,2.02461 0.460994,-0.21125 0.467401,-6.73497 0.0099,-10.12289 1.804246,-39.60051 5.513175,-90.57293 3.286517,-45.16717 3.542642,-48.14598 4.107101,-47.76705 0.288705,0.19382 0.524918,-0.25192 0.524918,-0.99051 0,-0.73859 0.309747,-2.19608 0.688326,-3.23886 0.639567,-1.76166 0.724325,-1.80054 1.1965,-0.54898 0.279495,0.74086 0.567378,2.40777 0.63974,3.70424 l 0.131566,2.35724 0.490613,-2.69399 c 0.340167,-1.86788 0.412597,-0.9385 0.2362,3.03075 -0.148775,3.34771 -0.04286,5.17039 0.255077,4.38969 0.348793,-0.91396 0.623011,0.46681 0.869411,4.37774 0.197956,3.14203 1.493907,21.47263 2.879889,40.73467 1.385983,19.26204 3.231538,45.93255 4.101233,59.26782 2.788058,42.75 3.573585,55.4611 5.910215,95.63671 1.012567,17.40992 1.890444,32.41208 1.950837,33.33815 0.222661,3.41424 -0.149552,6.50898 -0.920615,7.65439 -0.68868,1.02303 -2.127291,1.20192 -11.005704,1.36863 -6.441847,0.12096 -8.152758,0.0415 -4.63311,-0.2153 z m 15.638475,-8.99112 c -0.136974,-1.19562 -0.246793,-0.0524 -0.244043,2.54064 0.0027,2.59296 0.114821,3.5712 0.249044,2.17384 0.134224,-1.39735 0.131973,-3.51886 -0.005,-4.71448 l 2.1e-5,0 z"
       id="path4280"
       inkscape:connector-curvature="0" />
    <path
       style="fill:#000000;fill-opacity:1;stroke:#000000;stroke-width:0.12034634;stroke-linejoin:round;stroke-miterlimit:4;stroke-dasharray:none;stroke-opacity:1"
       d="m 33.776779,276.68517 c 0.838299,-4.35777 9.037638,-34.24539 9.527338,-34.72834 0.132573,-0.13075 0.931298,-0.15485 1.080822,-0.0326 0.323279,0.26427 9.359773,34.30743 9.359773,35.26104 l 0,0.26622 -10.057674,0 -10.057673,0 0.147414,-0.76631 z m 10.140574,-31.29345 c 0.219187,-0.16909 0.151528,-0.92937 -0.08658,-0.97293 -0.135096,-0.0247 -0.221248,0.081 -0.222735,0.27332 -0.0013,0.1725 -0.06388,0.42369 -0.138981,0.5582 -0.137515,0.24629 0.181789,0.347 0.448299,0.14141 z"
       id="path4290"
       inkscape:connector-curvature="0" />
    <path
       style="fill:#000000;fill-opacity:1;stroke:#000000;stroke-width:0.220094;stroke-linejoin:round;stroke-miterlimit:4;stroke-dasharray:none;stroke-opacity:1"
       d=""
       id="path4298"
       inkscape:connector-curvature="0" />
    <path
       style="fill:#000000;fill-opacity:1;stroke:#000000;stroke-width:0.220094;stroke-linejoin:round;stroke-miterlimit:4;stroke-dasharray:none;stroke-opacity:1"
       d="m 110.25285,231.78478 c -7.17388,-5.67741 -13.300695,-10.50782 -13.61514,-10.73425 l -0.571718,-0.41168 -13.548318,10.07795 c -7.451574,5.54288 -13.579874,10.0464 -13.618443,10.00783 -0.03857,-0.0386 2.345564,-7.31438 5.298072,-16.16847 4.866022,-14.59239 5.334063,-16.12347 5.003306,-16.36697 -1.662738,-1.22415 -28.769775,-22.51768 -28.723851,-22.5636 0.03284,-0.0328 7.847518,0.22844 17.365958,0.58062 9.51844,0.35218 17.368702,0.57048 17.445025,0.48511 0.07632,-0.0854 2.676891,-7.78191 5.779041,-17.10344 3.102148,-9.32152 5.668911,-16.91739 5.70392,-16.87971 0.03501,0.0377 2.451256,7.66438 5.369438,16.94822 2.91819,9.28385 5.37464,16.95328 5.45877,17.04319 0.0841,0.0899 7.19203,0.0144 15.79531,-0.16782 8.60327,-0.18222 15.68264,-0.29098 15.73192,-0.2417 0.0493,0.0493 -5.98314,4.89242 -13.40537,10.76254 -7.42223,5.87013 -13.49497,10.78912 -13.49497,10.93109 0,0.14198 2.51564,7.8036 5.59031,17.02583 3.07467,9.22224 5.56552,16.84198 5.53523,16.93277 -0.0303,0.0908 -5.92461,-4.48009 -13.09849,-10.15751 z m 6.9183,-6.02283 c -2.58045,-7.70873 -4.69946,-13.90861 -4.70893,-13.77751 -0.009,0.1311 1.17343,3.87971 2.62865,8.33025 2.92023,8.93101 4.58831,14.50897 4.58831,15.34297 0,0.82863 -0.5921,0.89736 -1.88756,0.21909 -1.51794,-0.79473 -7.91076,-5.62417 -15.4948,-11.70549 l -6.092691,-4.88545 -7.608384,5.67445 c -7.784249,5.80561 -12.411761,9.12461 -14.413264,10.33765 -1.23898,0.7509 -1.854197,0.71473 -1.854197,-0.10901 0,-0.81345 1.711847,-6.48078 4.895912,-16.20865 1.618022,-4.94335 3.002227,-9.33317 3.076009,-9.75517 0.07378,-0.42199 -2.131712,5.98381 -4.901097,14.23512 -2.769385,8.2513 -4.99246,15.04515 -4.940166,15.09745 0.05229,0.0523 3.182439,-2.20382 6.955876,-5.01359 3.77344,-2.80976 9.501623,-7.07323 12.729295,-9.47436 3.227672,-2.40113 5.989808,-4.31381 6.138079,-4.25039 0.148272,0.0634 5.939338,4.60527 12.869038,10.093 6.9297,5.48773 12.6247,9.95246 12.65555,9.92161 0.0308,-0.0309 -2.05519,-6.36323 -4.63563,-14.07197 z M 75.616541,204.32668 c 0,-0.0416 -0.221958,-0.26356 -0.493239,-0.49324 l -0.493238,-0.41761 0.417606,0.49324 c 0.392447,0.46352 0.568871,0.59303 0.568871,0.41761 z m -1.431001,-1.21634 c -0.23779,-0.22831 -3.095833,-2.51197 -6.351207,-5.07479 -8.932275,-7.03203 -11.947334,-9.60323 -11.947334,-10.18852 0,-0.32545 0.16731,-0.53736 0.493238,-0.62471 0.271282,-0.0727 2.712812,-0.14862 5.425624,-0.16872 l 4.932386,-0.0365 -3.945908,-0.16329 c -2.17025,-0.0898 -5.261092,-0.22232 -6.868538,-0.29448 -1.757747,-0.0789 -2.89361,-0.0503 -2.849822,0.0717 0.0706,0.19671 21.2325,16.86064 21.440386,16.88322 0.05693,0.006 -0.09104,-0.17555 -0.328825,-0.40385 z m 57.27212,-11.58683 c 2.80079,-2.21562 5.1495,-4.12087 5.21934,-4.23388 0.0739,-0.11951 -0.4058,-0.19823 -1.14644,-0.18817 -0.70039,0.01 -1.15013,0.0671 -0.99941,0.12788 0.59616,0.24056 0.20713,0.97351 -1.2057,2.27159 -1.35287,1.24299 -3.96756,3.36713 -13.03251,10.58743 -1.7724,1.41173 -3.28853,2.67355 -3.36919,2.80405 -0.13732,0.2222 1.54488,-1.09368 14.53391,-11.3689 z m -17.47812,-3.67458 4.27473,-0.29494 -5.6367,0.0465 -5.6367,0.0466 -0.86819,-2.74767 c -0.4775,-1.51121 -1.33787,-4.25028 -1.91192,-6.08682 -0.57406,-1.83653 -1.07879,-3.3041 -1.12163,-3.26127 -0.0428,0.0428 0.5045,2.0387 1.21631,4.43525 0.71181,2.39654 1.51391,5.26156 1.78244,6.36669 l 0.48824,2.00934 1.56934,-0.10937 c 0.86314,-0.0602 3.49298,-0.2421 5.84408,-0.40432 z M 91.253544,172.06778 c 4.738567,-14.11208 5.112078,-15.12481 5.572254,-15.10858 0.561209,0.0198 0.559539,0.0295 0.172592,-1.00388 -0.200765,-0.53617 -0.328063,-0.66822 -0.422659,-0.43843 -0.273022,0.66321 -10.655426,31.89625 -10.638678,32.00399 0.03758,0.24171 0.408307,-0.83587 5.316491,-15.4531 z m 29.905356,15.3037 c -0.211,-0.0551 -0.55626,-0.0551 -0.76726,0 -0.211,0.0551 -0.0384,0.10025 0.38363,0.10025 0.42199,0 0.59463,-0.0451 0.38363,-0.10025 z m -18.59858,-13.85886 c -0.14824,-0.49479 -0.30989,-0.85927 -0.35921,-0.80994 -0.0493,0.0493 0.0316,0.49451 0.17985,0.9893 0.14824,0.49479 0.30989,0.85927 0.35921,0.80994 0.0493,-0.0493 -0.0316,-0.49451 -0.17985,-0.9893 z m -1.20142,-3.84057 c -0.0806,-0.32126 -0.18889,-0.54184 -0.24056,-0.49017 -0.0517,0.0517 -0.028,0.35681 0.0527,0.67807 0.0806,0.32127 0.18888,0.54184 0.24055,0.49017 0.0517,-0.0517 0.028,-0.3568 -0.0526,-0.67807 z m -1.27681,-4.0118 c -0.0728,-0.0728 -0.124659,0.0566 -0.11514,0.28772 0.01052,0.25537 0.06246,0.30732 0.13244,0.13244 0.0633,-0.15824 0.0555,-0.34732 -0.0173,-0.42016 l -10e-6,0 z m -1.134583,-3.6608 c -0.08063,-0.32126 -0.188882,-0.54184 -0.240554,-0.49017 -0.05167,0.0517 -0.02798,0.35681 0.05265,0.67807 0.08063,0.32127 0.188882,0.54184 0.240553,0.49017 0.05167,-0.0517 0.02798,-0.3568 -0.05265,-0.67807 z m -1.315303,-4.16512 c -0.08063,-0.32127 -0.188882,-0.54185 -0.240554,-0.49017 -0.05167,0.0517 -0.02798,0.3568 0.05265,0.67807 0.08063,0.32126 0.188882,0.54184 0.240554,0.49016 0.05167,-0.0517 0.02798,-0.3568 -0.05265,-0.67806 z"
       id="path4300"
       inkscape:connector-curvature="0" />
    <path
       style="fill:#000000;fill-opacity:1;stroke:#000000;stroke-width:0.220094;stroke-linejoin:round;stroke-miterlimit:4;stroke-dasharray:none;stroke-opacity:1"
       d="m 54.491027,187.50479 c -1.18822,-0.95654 -1.102761,-1.01289 1.08193,-0.71344 0.766774,0.10509 0.943061,0.18742 0.633444,0.2958 -0.235956,0.0826 -0.478335,0.40365 -0.538619,0.71345 l -0.109609,0.56326 -1.067146,-0.85907 z"
       id="path4302"
       inkscape:connector-curvature="0" />
    <path
       style="fill:#000000;fill-opacity:1;stroke:#000000;stroke-width:0.220094;stroke-linejoin:round;stroke-miterlimit:4;stroke-dasharray:none;stroke-opacity:1"
       d="m 117.34698,237.44571 c -3.25595,-2.56013 -9.29782,-7.31827 -13.42637,-10.57365 -4.128547,-3.25537 -7.672784,-5.91154 -7.876077,-5.90259 -0.203294,0.009 -5.055391,3.50487 -10.782438,7.76871 -14.078581,10.48163 -16.26825,12.08106 -16.382683,11.96663 -0.05393,-0.0539 2.218503,-7.08494 5.04985,-15.62448 2.831347,-8.53953 5.207551,-15.78934 5.280451,-16.11069 0.121455,-0.53538 -0.07377,-0.74485 -2.33316,-2.50337 -10.244349,-7.97333 -26.459393,-20.78108 -26.393268,-20.84721 0.0445,-0.0445 4.114667,0.0657 9.044807,0.24478 19.287033,0.70078 25.523927,0.86029 25.710384,0.65753 0.10342,-0.11246 2.621936,-7.50441 5.596703,-16.42654 2.974768,-8.92214 5.535384,-16.51801 5.690255,-16.87972 l 0.281586,-0.65765 0.245372,0.76726 c 0.134955,0.42199 2.330984,7.37665 4.880068,15.4548 2.54908,8.07816 4.86848,15.42741 5.15423,16.33168 l 0.51953,1.64413 8.17385,-0.13818 c 4.49562,-0.076 11.6142,-0.20987 15.81908,-0.29749 5.40786,-0.11268 7.60285,-0.0907 7.5004,0.0751 -0.0797,0.12889 -4.65446,3.80858 -10.16623,8.17709 -14.81505,11.74208 -16.75335,13.34079 -16.61421,13.70339 0.61825,1.61111 11.10722,33.66587 11.03861,33.73447 -0.05,0.05 -2.75479,-2.00381 -6.01074,-4.56395 z m 1.64798,-6.05312 c -1.48565,-4.46244 -2.73662,-8.0781 -2.77992,-8.03479 -0.0433,0.0433 0.3197,1.30347 0.8067,2.80037 1.41866,4.36064 2.65744,8.7328 2.65744,9.37922 0,1.62447 -1.13477,1.16232 -6.04131,-2.46042 -1.80148,-1.33012 -3.15285,-2.28956 -3.00306,-2.13211 0.49795,0.52343 10.90638,8.70158 10.98453,8.63081 0.0422,-0.0383 -1.13873,-3.72064 -2.62438,-8.18308 z m -43.871658,3.7585 c 2.200392,-1.61783 4.000713,-2.98162 4.000713,-3.03064 0,-0.049 -1.060463,0.6362 -2.356584,1.52274 -3.728886,2.55052 -4.439147,2.78884 -4.439147,1.48948 0,-0.79842 1.199538,-4.90267 3.59549,-12.30207 1.032078,-3.18736 1.839354,-5.83236 1.793943,-5.87777 -0.08312,-0.0831 -7.14317,20.94596 -7.14317,21.27668 0,0.25703 0.15375,0.15298 4.548755,-3.07842 z m 4.658364,-3.45625 c 0.150096,-0.18085 0.223578,-0.32882 0.163293,-0.32882 -0.06028,0 -0.232414,0.14797 -0.38251,0.32882 -0.150096,0.18085 -0.223577,0.32883 -0.163293,0.32883 0.06028,0 0.232414,-0.14798 0.38251,-0.32883 z m 30.471184,-1.06924 c 0,-0.0455 -0.17264,-0.21816 -0.38363,-0.38363 -0.34769,-0.27268 -0.35545,-0.26493 -0.0828,0.0828 0.28638,0.36516 0.4664,0.48129 0.4664,0.30087 z m -5.26121,-4.16513 c 0,-0.0455 -0.17264,-0.21815 -0.38363,-0.38363 -0.3477,-0.27268 -0.35545,-0.26492 -0.0828,0.0828 0.28638,0.36516 0.4664,0.48128 0.4664,0.30086 z m -1.09609,-0.87687 c 0,-0.0455 -0.17263,-0.21815 -0.38363,-0.38363 -0.34769,-0.27268 -0.35544,-0.26492 -0.0828,0.0828 0.28638,0.36516 0.4664,0.48129 0.4664,0.30086 z m -1.09608,-0.87687 c 0,-0.0455 -0.17264,-0.21815 -0.38363,-0.38363 -0.3477,-0.27267 -0.35545,-0.26492 -0.0828,0.0828 0.28638,0.36516 0.4664,0.48129 0.4664,0.30086 z m -0.87687,-0.65051 c 0,-0.0416 -0.22196,-0.26356 -0.49324,-0.49324 l -0.49324,-0.41761 0.41761,0.49324 c 0.39244,0.46352 0.56887,0.59304 0.56887,0.41761 z m -1.09609,-0.88692 c 0,-0.10617 -3.931974,-3.26673 -4.384342,-3.52417 -0.586307,-0.33367 -0.022,0.16356 2.15125,1.8955 2.175072,1.7334 2.233092,1.77571 2.233092,1.62867 z m -5.041993,-3.31218 c 0.150096,-0.18086 0.223577,-0.32883 0.163293,-0.32883 -0.06029,0 -0.232414,0.14797 -0.38251,0.32883 -0.150096,0.18085 -0.223578,0.32882 -0.163293,0.32882 0.06029,0 0.232414,-0.14797 0.38251,-0.32882 z M 64.21725,195.33164 c 0,-0.0455 -0.172634,-0.21816 -0.38363,-0.38363 -0.347691,-0.27268 -0.355444,-0.26493 -0.08277,0.0828 0.286379,0.36516 0.466397,0.48128 0.466397,0.30086 z m -1.096086,-0.87687 c 0,-0.0455 -0.172633,-0.21815 -0.38363,-0.38363 -0.34769,-0.27268 -0.355444,-0.26492 -0.08277,0.0828 0.286378,0.36516 0.466396,0.48128 0.466396,0.30086 z m -0.876868,-0.65755 c 0,-0.0455 -1.388537,-1.24063 -3.085638,-2.65593 -1.697101,-1.4153 -3.140223,-2.71551 -3.206937,-2.88937 -0.06671,-0.17385 -0.24269,-0.26951 -0.391056,-0.21258 -0.148367,0.0569 -0.653538,-0.23145 -1.122602,-0.64085 -0.469064,-0.40939 -0.943271,-0.74625 -1.053793,-0.74857 -0.296249,-0.006 -0.251241,0.032 4.433469,3.75988 4.468483,3.55583 4.426557,3.52375 4.426557,3.38742 z m 67.080444,-0.68459 c 0.15009,-0.18086 0.22358,-0.32883 0.16329,-0.32883 -0.0603,0 -0.23241,0.14797 -0.38251,0.32883 -0.15009,0.18085 -0.22358,0.32882 -0.16329,0.32882 0.0603,0 0.23241,-0.14797 0.38251,-0.32882 z m 6.92877,-5.5046 c 0.49693,-0.39602 0.35746,-0.52388 -0.57147,-0.52388 -0.77904,0 -0.87687,0.0586 -0.87687,0.52525 0,0.55731 -1.15636,1.77207 -3.67189,3.85736 -2.52696,2.09476 -1.4026,1.34538 1.72236,-1.14795 1.70086,-1.35707 3.22989,-2.57692 3.39787,-2.71078 z m -22.57073,0.15993 c 0.30938,-0.0827 -1.07431,-0.11092 -3.07487,-0.0626 -2.93883,0.071 -3.65689,0.0302 -3.73895,-0.21188 -0.0559,-0.16483 -0.55188,-1.68076 -1.10224,-3.36873 -1.12075,-3.43739 -1.11553,-3.29874 0.0402,1.06729 l 0.80479,3.04024 3.25428,-0.15693 c 1.78985,-0.0863 3.50741,-0.22462 3.81678,-0.30736 z m -53.630656,-0.91421 c -1.320131,-0.2349 -4.903476,-0.22527 -4.165125,0.0112 0.301423,0.0965 1.583844,0.173 2.849823,0.16992 1.839897,-0.004 2.10383,-0.0408 1.315302,-0.18111 l 0,1e-5 z m 36.729763,-30.02156 c 0.34909,0 0.383237,-0.31349 0.107451,-0.98648 -0.170836,-0.41688 -0.19019,-0.41149 -0.393755,0.10961 -0.117748,0.30143 -0.281293,0.79466 -0.363436,1.09609 -0.124287,0.45608 -0.108979,0.48367 0.09123,0.16441 0.132318,-0.211 0.383648,-0.38363 0.558511,-0.38363 z"
       id="path4304"
       inkscape:connector-curvature="0" />
    <path
       style="fill:#000000;fill-opacity:1;stroke:#000000;stroke-width:0.220094;stroke-linejoin:round;stroke-miterlimit:4;stroke-dasharray:none;stroke-opacity:1"
       d="m 117.47167,237.54472 c -3.18665,-2.5064 -9.24658,-7.29091 -13.46651,-10.63226 -4.21993,-3.34135 -7.820572,-6.03982 -8.001426,-5.99661 -0.180854,0.0432 -5.014592,3.56514 -10.741639,7.82651 -14.172248,10.54526 -16.268915,12.07622 -16.382683,11.96245 -0.05393,-0.0539 2.218503,-7.08494 5.04985,-15.62448 2.831347,-8.53953 5.207014,-15.7872 5.279259,-16.10594 0.123722,-0.54584 -0.451265,-1.03568 -9.896152,-8.43058 -14.275468,-11.17701 -18.90427,-14.84956 -18.821008,-14.93282 0.04006,-0.0401 4.106591,0.0737 9.036731,0.25285 19.287033,0.70078 25.523927,0.86029 25.710384,0.65753 0.10342,-0.11246 2.43358,-6.96184 5.178132,-15.22085 5.283309,-15.89872 6.246255,-18.70505 6.37437,-18.57694 0.04385,0.0439 2.010602,6.1899 4.370562,13.65788 2.35995,7.46797 4.77725,15.10718 5.37177,16.976 l 1.08095,3.39787 8.27943,-0.13807 c 4.5537,-0.0759 11.67072,-0.21019 15.8156,-0.29834 5.23163,-0.11127 7.49279,-0.0901 7.39434,0.0692 -0.078,0.12622 -4.65305,3.80642 -10.16677,8.17823 -14.76014,11.70328 -16.75602,13.34853 -16.62078,13.70093 0.60828,1.58515 11.10675,33.67728 11.03915,33.74488 -0.0493,0.0493 -2.6969,-1.96104 -5.88356,-4.46743 z m 1.55851,-6.05496 c -1.50732,-4.51358 -2.77333,-8.17378 -2.81333,-8.13377 -0.04,0.04 0.47117,1.78464 1.13595,3.87696 2.50374,7.88034 2.71344,8.99497 1.71877,9.13613 -0.63135,0.0896 -2.0282,-0.76794 -5.69488,-3.49615 -1.59754,-1.18866 -2.90463,-2.12013 -2.90463,-2.06993 0,0.0502 1.99762,1.66541 4.43915,3.58935 2.44153,1.92394 4.93058,3.90438 5.53122,4.40099 0.60063,0.49661 1.14523,0.90293 1.21021,0.90293 0.065,0 -1.11513,-3.69293 -2.62246,-8.20651 z m -44.075901,3.8028 c 2.293356,-1.69863 4.169736,-3.13204 4.169736,-3.18536 0,-0.0533 -1.060463,0.63325 -2.356584,1.52571 -3.714404,2.55759 -4.439147,2.80245 -4.439147,1.49976 0,-0.80918 1.20576,-4.92286 3.702864,-12.63303 1.09125,-3.36938 1.947894,-6.16235 1.903656,-6.20659 -0.07961,-0.0796 -7.360257,21.60679 -7.360257,21.92352 0,0.0904 0.04725,0.16439 0.104998,0.16439 0.05775,0 1.981379,-1.38978 4.274734,-3.0884 z m 4.827387,-3.59772 c 0.150096,-0.18085 0.223578,-0.32882 0.163293,-0.32882 -0.06028,0 -0.232414,0.14797 -0.38251,0.32882 -0.150096,0.18085 -0.223577,0.32883 -0.163293,0.32883 0.06028,0 0.232414,-0.14798 0.38251,-0.32883 z m 30.471184,-1.06924 c 0,-0.0455 -0.17264,-0.21816 -0.38363,-0.38363 -0.34769,-0.27268 -0.35545,-0.26493 -0.0828,0.0828 0.28638,0.36516 0.4664,0.48129 0.4664,0.30087 z m -1.09609,-0.87687 c 0,-0.0455 -0.17263,-0.21816 -0.38363,-0.38363 -0.34769,-0.27268 -0.35544,-0.26493 -0.0828,0.0828 0.28638,0.36516 0.4664,0.48128 0.4664,0.30086 z m -4.16512,-3.28826 c 0,-0.0455 -0.17264,-0.21815 -0.38363,-0.38363 -0.3477,-0.27268 -0.35545,-0.26492 -0.0828,0.0828 0.28638,0.36516 0.4664,0.48128 0.4664,0.30086 z m -1.09609,-0.87687 c 0,-0.0455 -0.17263,-0.21815 -0.38363,-0.38363 -0.34769,-0.27268 -0.35544,-0.26492 -0.0828,0.0828 0.28638,0.36516 0.4664,0.48129 0.4664,0.30086 z m -1.09608,-0.87687 c 0,-0.0455 -0.17264,-0.21815 -0.38363,-0.38363 -0.3477,-0.27267 -0.35545,-0.26492 -0.0828,0.0828 0.28638,0.36516 0.4664,0.48129 0.4664,0.30086 z m -0.87687,-0.65051 c 0,-0.0416 -0.22196,-0.26356 -0.49324,-0.49324 l -0.49324,-0.41761 0.41761,0.49324 c 0.39244,0.46352 0.56887,0.59304 0.56887,0.41761 z m -1.09609,-0.89064 c 0,-0.19684 -4.459277,-3.63729 -4.714399,-3.63729 -0.150651,0 -0.409298,0.16382 -0.574775,0.36405 -0.273953,0.33148 -0.258645,0.33775 0.171152,0.0701 0.432018,-0.26901 0.608474,-0.18879 2.082563,0.94678 0.885801,0.68239 1.906492,1.48579 2.268199,1.78534 0.68691,0.56886 0.76726,0.61818 0.76726,0.47099 z m -5.699644,-2.89989 c 0,-0.0603 -0.295944,0.10113 -0.657652,0.35869 -0.361708,0.25755 -0.657651,0.51761 -0.657651,0.57789 0,0.0603 0.295943,-0.10112 0.657651,-0.35868 0.361708,-0.25756 0.657652,-0.51761 0.657652,-0.5779 z M 64.21725,195.33164 c 0,-0.0455 -0.172634,-0.21816 -0.38363,-0.38363 -0.347691,-0.27268 -0.355444,-0.26493 -0.08277,0.0828 0.286379,0.36516 0.466397,0.48128 0.466397,0.30086 z m -1.096086,-0.87687 c 0,-0.0455 -0.172633,-0.21815 -0.38363,-0.38363 -0.34769,-0.27268 -0.355444,-0.26492 -0.08277,0.0828 0.286378,0.36516 0.466396,0.48128 0.466396,0.30086 z m -0.876868,-0.66029 c 0,-0.047 -1.336617,-1.19636 -2.97026,-2.5542 -1.633643,-1.35784 -3.11109,-2.66986 -3.283215,-2.91561 -0.172125,-0.24574 -0.377548,-0.38221 -0.456495,-0.30326 -0.07895,0.0789 -0.542888,-0.19829 -1.030979,-0.61608 -0.48809,-0.41778 -0.98477,-0.75961 -1.103732,-0.75961 -0.310499,0 -0.318782,-0.007 4.418983,3.76681 4.439887,3.53659 4.425698,3.52574 4.425698,3.38195 z m 67.080444,-0.68185 c 0.15009,-0.18086 0.22358,-0.32883 0.16329,-0.32883 -0.0603,0 -0.23241,0.14797 -0.38251,0.32883 -0.15009,0.18085 -0.22358,0.32882 -0.16329,0.32882 0.0603,0 0.23241,-0.14797 0.38251,-0.32882 z m 5.96121,-4.69647 c 0.68643,-0.55175 1.25365,-1.07717 1.2605,-1.16759 0.007,-0.0904 -0.38214,-0.16442 -0.86441,-0.16442 -0.77336,0 -0.87687,0.0606 -0.87687,0.5133 0,0.50907 -1.0912,1.65939 -3.94595,4.15978 -1.12853,0.98845 1.64007,-1.10115 4.42673,-3.34107 z m -21.20745,-0.70024 c 0.0632,-0.0633 -1.50971,-0.0705 -3.49545,-0.0162 -2.93851,0.0804 -3.62948,0.0425 -3.71269,-0.20358 -0.0562,-0.16631 -0.55114,-1.68345 -1.0998,-3.37142 -0.54865,-1.68797 -0.95938,-2.87174 -0.91273,-2.6306 0.11844,0.61224 1.70112,6.55157 1.78236,6.68866 0.0836,0.14115 7.2821,-0.31065 7.43831,-0.46686 l 0,0 z m -54.026376,-0.86958 c -1.013723,-0.17277 -5.108722,-0.21694 -4.216678,-0.0455 0.273069,0.0525 0.45484,0.16236 0.403936,0.24416 -0.0509,0.0818 1.008096,0.1084 2.353333,0.0591 2.032695,-0.0745 2.279238,-0.11804 1.459409,-0.25777 z m 36.729763,-30.01415 c 0.34909,0 0.383237,-0.31349 0.107451,-0.98648 -0.170836,-0.41688 -0.19019,-0.41149 -0.393755,0.10961 -0.117748,0.30143 -0.281293,0.79466 -0.363436,1.09609 -0.124287,0.45608 -0.108979,0.48367 0.09123,0.16441 0.132318,-0.211 0.383648,-0.38363 0.558511,-0.38363 z"
       id="path4306"
       inkscape:connector-curvature="0" />
    <path
       style="fill:#000000;fill-opacity:1;stroke:#000000;stroke-width:0.220094;stroke-linejoin:round;stroke-miterlimit:4;stroke-dasharray:none;stroke-opacity:1"
       d="m 119.78071,239.43626 c -1.92467,-1.49595 -7.05071,-5.52078 -11.39121,-8.94408 -9.746797,-7.68717 -12.150316,-9.48251 -12.510009,-9.34448 -0.398664,0.15298 -2.989973,2.04198 -14.453696,10.53638 -12.813866,9.49482 -12.382771,9.18434 -12.537422,9.02969 -0.07208,-0.0721 2.146253,-7.06321 4.929621,-15.53584 2.783367,-8.47264 5.125507,-15.67186 5.204756,-15.99827 0.188101,-0.77475 0.434036,-0.55622 -8.66742,-7.70172 -4.159646,-3.26572 -10.374451,-8.1609 -13.81068,-10.87818 l -6.247688,-4.94052 1.039549,-0.0667 c 0.571752,-0.0367 6.753989,0.13592 13.738304,0.38363 6.984314,0.2477 14.373119,0.45037 16.419564,0.45037 3.340023,0 3.736245,-0.0393 3.87164,-0.38363 0.08296,-0.21099 2.611437,-7.72128 5.618844,-16.68953 3.007409,-8.96825 5.552505,-16.45688 5.655771,-16.64141 0.160268,-0.28638 0.20674,-0.27411 0.317414,0.0838 1.755177,5.67663 10.684762,33.72437 10.761182,33.8008 0.059,0.059 5.7582,-0.006 12.66492,-0.14354 14.57803,-0.29114 18.8096,-0.30945 18.79441,-0.0813 -0.006,0.0904 -1.26378,1.16144 -2.79502,2.38003 -11.93993,9.50202 -22.43929,17.91054 -23.17126,18.55694 l -0.87687,0.77436 1.37671,4.13331 c 4.37619,13.13866 9.69679,29.5534 9.63722,29.7321 -0.0381,0.11425 -1.64397,-1.01623 -3.56863,-2.51218 z m 1.53461,-0.67167 c -0.66146,-2.21729 -2.61487,-8.02743 -2.67775,-7.96456 -0.0435,0.0435 0.17305,0.94892 0.48125,2.01201 0.62208,2.14576 0.7194,3.48804 0.26552,3.66221 -0.42642,0.16363 -1.96202,-0.57721 -3.62832,-1.75046 -0.79621,-0.56062 -1.36726,-0.92891 -1.269,-0.81843 0.35817,0.40271 6.62227,5.32166 6.79626,5.33684 0.0985,0.009 0.11297,-0.20633 0.032,-0.47761 z m -47.616929,-2.66742 c 1.296121,-0.93531 2.356584,-1.73908 2.356584,-1.78616 0,-0.0471 -0.607181,0.30683 -1.34929,0.78648 -0.742109,0.47964 -1.580615,0.87208 -1.863346,0.87208 -0.450226,0 -0.514055,-0.10476 -0.514055,-0.84378 0,-0.46408 0.40567,-2.21507 0.901489,-3.8911 1.353635,-4.57573 1.241058,-4.40426 -0.551757,0.84039 -1.852236,5.41847 -2.096795,6.3072 -1.638741,5.95516 0.166392,-0.12788 1.362995,-0.99776 2.659116,-1.93307 z M 58.517604,190.72808 c 0,-0.0455 -0.172633,-0.21816 -0.38363,-0.38363 -0.34769,-0.27268 -0.355444,-0.26493 -0.08277,0.0828 0.286378,0.36516 0.466396,0.48128 0.466396,0.30086 z m -1.749226,-1.55677 c -0.530004,-0.54003 -1.019016,-0.92651 -1.086693,-0.85883 -0.110336,0.11034 1.705324,1.81824 1.949889,1.83417 0.05525,0.004 -0.333192,-0.4353 -0.863196,-0.97534 z m 79.285702,-1.90073 c -0.47088,-0.26352 -1.24891,0.0412 -1.24891,0.48917 0,0.22288 -0.32061,0.774 -0.71246,1.22472 -0.63273,0.72779 -0.54632,0.687 0.77222,-0.36451 1.05455,-0.84098 1.39906,-1.23191 1.18915,-1.34938 z m -24.5042,0.55087 c 0.0502,-0.0438 -0.96566,-0.0796 -2.25756,-0.0796 l -2.34889,0 -0.32503,-0.71246 -0.32502,-0.71246 0.14217,0.76726 c 0.0782,0.422 0.18734,0.84388 0.24255,0.93753 0.0943,0.15993 4.67464,-0.0283 4.87178,-0.20023 z M 96.949842,156.66778 c 0.05231,-0.0904 0.02583,-0.35516 -0.05886,-0.5883 -0.15425,-0.42465 -0.262804,-0.34727 -0.517745,0.36908 -0.135242,0.38001 0.372014,0.57286 0.5766,0.21922 z"
       id="path4308"
       inkscape:connector-curvature="0" />
    <path
       style="fill:#000000;fill-opacity:1;stroke:#000000;stroke-width:0.220094;stroke-linejoin:round;stroke-miterlimit:4;stroke-dasharray:none;stroke-opacity:1"
       d="m 121.31345,240.67139 c -1.0797,-0.82248 -6.05697,-4.71681 -11.0606,-8.65405 -11.20622,-8.81792 -13.747155,-10.73531 -14.226493,-10.73531 -0.443476,0 0.660778,-0.79221 -14.441952,10.3608 -6.664652,4.92168 -12.277675,9.00996 -12.473384,9.08507 -0.297161,0.11403 -0.330182,0.0312 -0.200262,-0.50235 0.110393,-0.45335 8.794347,-27.21811 10.12207,-31.19717 0.187863,-0.56301 0.346337,-0.43427 -26.473326,-21.50579 l -2.371651,-1.86335 1.589075,-0.0668 c 0.873991,-0.0368 6.028222,0.085 11.453846,0.27067 18.500422,0.63295 21.452295,0.6727 21.831047,0.29395 0.184699,-0.1847 2.784323,-7.62287 5.776941,-16.52926 2.992617,-8.9064 5.568679,-16.44006 5.72458,-16.74149 0.21515,-0.41598 0.311943,-0.4688 0.401684,-0.21922 0.06503,0.18086 2.004807,6.29702 4.310615,13.59147 5.57232,17.62806 6.34845,20.02873 6.53826,20.22371 0.0885,0.0909 5.63055,0.0604 12.31561,-0.0679 6.68506,-0.12831 13.77664,-0.20271 15.75906,-0.16535 l 3.60441,0.0679 -13.01467,10.41282 c -7.15807,5.72705 -13.25418,10.61398 -13.54691,10.85985 l -0.53224,0.44705 4.38862,13.36363 c 6.2768,19.11324 6.65036,20.28178 6.56533,20.53689 -0.0421,0.12633 -0.95996,-0.44325 -2.03966,-1.26574 z m -1.0853,-5.03064 c -0.54634,-1.5674 -0.93807,-2.6032 -0.87052,-2.30178 0.0676,0.30142 0.18105,1.11318 0.25222,1.8039 0.17188,1.66829 -0.1308,1.7739 -2.06446,0.72036 -1.75387,-0.95559 -1.55494,-0.73273 1.36653,1.53096 1.38451,1.07278 2.2138,1.58766 2.25087,1.39749 0.0323,-0.16561 -0.3883,-1.58353 -0.93464,-3.15093 z m -47.431195,1.06085 c 1.83301,-1.31978 2.124093,-1.60809 1.076735,-1.06648 -0.856635,0.44298 -1.493888,0.42336 -1.596846,-0.0492 -0.04597,-0.21099 0.0499,-0.97551 0.213055,-1.69893 0.541517,-2.40108 0.506355,-2.42915 -0.27453,-0.21922 -1.003123,2.83889 -1.429688,4.27474 -1.269945,4.27474 0.07042,0 0.903605,-0.55842 1.851531,-1.24093 z m 62.973865,-48.93613 c 0.41437,-0.45852 0.41321,-0.4621 -0.14964,-0.4621 -0.39758,0 -0.61221,0.14754 -0.71756,0.49324 -0.0827,0.27128 -0.31128,0.68452 -0.50801,0.91831 -0.32819,0.39001 -0.30344,0.38744 0.29995,-0.0311 0.36171,-0.25092 0.84557,-0.66416 1.07526,-0.91831 z m -27.26531,0.0318 c -0.95707,-0.0448 -1.70733,-0.18613 -1.80519,-0.34008 -0.10481,-0.1649 -0.16871,-0.17461 -0.17081,-0.0259 -0.006,0.45367 0.29807,0.52953 1.95133,0.48621 l 1.6624,-0.0436 -1.63773,-0.0766 z m -11.624907,-31.539 c 0,-0.18085 -0.09865,-0.26786 -0.219218,-0.19334 -0.120569,0.0745 -0.219217,0.28346 -0.219217,0.46431 0,0.18085 0.09865,0.26786 0.219217,0.19334 0.12057,-0.0745 0.219218,-0.28345 0.219218,-0.46431 z"
       id="path4310"
       inkscape:connector-curvature="0" />
    <path
       style="fill:#000000;fill-opacity:1;stroke:#000000;stroke-width:0.220094;stroke-linejoin:round;stroke-miterlimit:4;stroke-dasharray:none;stroke-opacity:1"
       d="m 122.4194,241.52076 c -0.48228,-0.32771 -5.61196,-4.30377 -11.39929,-8.83568 -15.436324,-12.0878 -14.72423,-11.57461 -15.49172,-11.16452 -0.281124,0.15021 -6.084729,4.38164 -12.896901,9.40317 -13.698657,10.09785 -13.544763,9.98839 -13.75204,9.78112 -0.08079,-0.0808 0.162436,-1.1053 0.540507,-2.27667 0.378072,-1.17138 2.666827,-8.20652 5.086123,-15.63364 2.419295,-7.42713 4.398719,-13.6567 4.398719,-13.84349 0,-0.55787 -1.727979,-1.98824 -15.558621,-12.87899 l -13.223683,-10.41282 1.950579,-0.0699 c 1.072819,-0.0385 6.833642,0.0831 12.801828,0.27023 18.022564,0.56496 18.715748,0.57913 19.499822,0.39865 0.908664,-0.20915 0.460453,0.97542 7.442845,-19.67084 2.609635,-7.71644 4.836914,-14.02989 4.949511,-14.02989 0.112594,0 2.449453,7.05331 5.193021,15.67402 2.74356,8.62071 5.16457,16.21659 5.38002,16.87972 l 0.39173,1.20569 15.86837,-0.0823 c 11.32405,-0.0587 15.82648,-0.0145 15.72208,0.1544 -0.0805,0.13018 -5.77239,4.73555 -12.64873,10.23415 -6.87634,5.49859 -12.878,10.33674 -13.33702,10.75143 l -0.83457,0.75399 1.91661,5.86428 c 1.05414,3.22535 3.51078,10.74331 5.4592,16.70656 1.94841,5.96326 3.51465,10.97165 3.48053,11.12975 -0.0436,0.20198 -0.32278,0.11029 -0.93892,-0.30839 z m -1.53979,-3.74264 c -0.17076,-0.57271 -0.50363,-1.58385 -0.73971,-2.24698 l -0.42926,-1.20569 0.0188,0.89667 c 0.0318,1.51361 -0.27538,1.69014 -1.68792,0.96999 -0.4694,-0.23932 -0.88828,-0.40031 -0.93083,-0.35775 -0.0931,0.0931 3.70851,2.98152 3.92675,2.98359 0.0839,8.8e-4 0.0129,-0.46713 -0.15787,-1.03983 l 1e-5,0 z m -48.312149,-0.96344 c 0.712438,-0.49975 1.295343,-0.93746 1.295343,-0.97269 0,-0.0352 -0.33505,-0.01 -0.744554,0.0568 -0.903374,0.1466 -1.101461,-0.24868 -0.78843,-1.5733 0.384654,-1.62769 0.188249,-1.32644 -0.566209,0.86847 -0.773763,2.25107 -0.842101,2.52939 -0.621061,2.52939 0.07126,0 0.712472,-0.40888 1.424911,-0.90863 z m 63.333789,-49.30702 c 0,-0.4755 -0.67436,-0.15021 -1.00197,0.48334 l -0.35559,0.68762 0.67878,-0.48334 c 0.37333,-0.26583 0.67878,-0.57526 0.67878,-0.68762 z M 96.880603,156.38082 c 0,-0.12769 -0.09865,-0.17119 -0.219218,-0.0967 -0.120569,0.0745 -0.219217,0.17898 -0.219217,0.23215 0,0.0532 0.09865,0.0967 0.219217,0.0967 0.12057,0 0.219218,-0.10447 0.219218,-0.23215 z"
       id="path4312"
       inkscape:connector-curvature="0" />
    <path
       style="fill:#000000;fill-opacity:1;stroke:#000000;stroke-width:0.220094;stroke-linejoin:round;stroke-miterlimit:4;stroke-dasharray:none;stroke-opacity:1"
       d="m 121.87136,241.18541 c -0.66314,-0.50329 -5.94079,-4.61673 -11.72812,-9.14096 -11.714631,-9.15788 -13.571964,-10.54321 -14.135501,-10.54321 -0.433907,0 -2.459919,1.43926 -14.033901,9.96952 -10.205632,7.52175 -12.706759,9.32159 -12.953663,9.32159 -0.109651,0 -0.199365,-0.15237 -0.199365,-0.3386 0,-0.18623 1.81623,-5.93246 4.036068,-12.7694 5.858536,-18.04386 6.046234,-18.64702 5.911784,-18.99739 -0.170659,-0.44473 -4.065525,-3.61165 -15.647498,-12.72301 -5.485909,-4.31568 -10.664913,-8.39975 -11.508899,-9.0757 l -1.53452,-1.22901 2.740214,-0.0647 c 1.507118,-0.0356 7.573952,0.0878 13.481854,0.27427 5.907901,0.18642 12.498064,0.33884 14.644807,0.3387 l 3.903167,-2.2e-4 0.520933,-1.17792 c 0.286512,-0.64785 2.026566,-5.6049 3.866784,-11.01566 6.117201,-17.98628 7.339245,-21.45644 7.547825,-21.43307 0.226335,0.0254 0.566238,1.05677 6.710921,20.36402 2.30232,7.23416 4.21926,13.19108 4.25986,13.2376 0.0406,0.0465 7.1947,0.0674 15.898,0.0464 14.56232,-0.0351 15.8007,-0.01 15.52957,0.31687 -0.16205,0.19525 -6.19476,5.08909 -13.40604,10.8752 -7.21127,5.78609 -13.1114,10.64155 -13.1114,10.7899 0,0.14835 1.43551,4.65447 3.19003,10.0136 5.14566,15.7173 7.55161,23.22519 7.55161,23.56522 0,0.48032 -0.21967,0.39385 -1.53452,-0.60409 z m -0.87687,-2.76188 c 0,-0.3491 -0.93874,-3.00674 -1.13781,-3.22122 -0.1285,-0.13844 -0.15208,-0.0842 -0.064,0.14729 0.1794,0.47142 -0.24978,1.27763 -0.68015,1.27763 -0.1826,0 -0.62304,-0.15051 -0.97876,-0.33446 -1.04887,-0.54239 -0.75112,-0.19796 0.94256,1.09034 1.57261,1.19621 1.91815,1.38364 1.91815,1.04042 z m -48.446989,-1.66523 0.986477,-0.67118 -0.657651,-0.12002 c -0.597424,-0.10903 -0.655361,-0.19471 -0.632648,-0.93564 0.01375,-0.44859 -0.0029,-0.81562 -0.03693,-0.81562 -0.03406,0 -0.281708,0.66587 -0.55032,1.47971 -0.268611,0.81385 -0.540037,1.61921 -0.603169,1.7897 -0.131199,0.35431 -0.004,0.29243 1.494242,-0.72695 z m 63.244619,-49.41791 c -0.14553,-0.14553 -0.98695,0.63203 -0.98695,0.91204 0,0.1229 0.24623,-0.008 0.54718,-0.2906 0.30094,-0.28272 0.49884,-0.56237 0.43977,-0.62144 z"
       id="path4314"
       inkscape:connector-curvature="0" />
    <path
       style="fill:#000000;fill-opacity:1;stroke:#000000;stroke-width:0.220094;stroke-linejoin:round;stroke-miterlimit:4;stroke-dasharray:none;stroke-opacity:1"
       d="m 121.07416,240.62137 c -1.06866,-0.81746 -5.98757,-4.64386 -10.93092,-8.50313 -10.602565,-8.2774 -12.311163,-9.58155 -13.37635,-10.21003 l -0.800083,-0.47206 -1.928637,1.32755 c -1.060753,0.73016 -6.058813,4.36179 -11.106807,8.0703 -12.132831,8.9134 -13.588367,9.95835 -13.871158,9.95835 -0.131667,0 -0.239395,-0.17183 -0.239395,-0.38184 0,-0.21001 2.168157,-7.09069 4.818127,-15.29039 2.649971,-8.19971 4.882728,-15.23343 4.961686,-15.6305 0.115045,-0.57857 0.03978,-0.83514 -0.37898,-1.29192 -0.577633,-0.63008 -9.513691,-7.79354 -20.86885,-16.7292 l -7.382213,-5.80926 2.464971,-0.0719 c 1.355734,-0.0395 8.581129,0.0926 16.056433,0.29363 7.475304,0.20105 14.225289,0.33204 14.999969,0.29111 l 1.408506,-0.0744 0.866278,-2.30178 c 0.476451,-1.26598 2.768447,-7.87538 5.093321,-14.68755 5.257029,-15.40376 5.667579,-16.55089 5.923379,-16.55089 0.241338,0 0.04495,-0.59049 6.197333,18.63345 l 4.77072,14.90677 15.82862,0.0562 c 8.70574,0.0309 15.82862,0.11871 15.82862,0.19505 0,0.0763 -0.13796,0.24833 -0.30657,0.38219 -2.85329,2.26527 -21.21296,17.10733 -23.43152,18.94218 -2.58923,2.14141 -3.00097,2.5669 -2.87479,2.97076 0.081,0.25926 1.84967,5.6997 3.93036,12.08988 7.07126,21.71708 6.96706,21.37367 6.48532,21.37367 -0.10689,0 -1.0687,-0.66882 -2.13737,-1.48628 z m -0.56484,-3.61049 c -0.43073,-1.32485 -0.49512,-1.41212 -0.71878,-0.97423 -0.18231,0.35691 -0.42625,0.47263 -0.94577,0.44864 -0.38506,-0.0178 -0.70011,0.007 -0.70011,0.0553 0,0.13864 2.68498,2.07833 2.76547,1.99785 0.0398,-0.0398 -0.14059,-0.72716 -0.40081,-1.52752 z M 72.711914,236.608 c 0.62264,-0.38559 0.625334,-0.58882 0.009,-0.67798 -0.299398,-0.0433 -0.531271,-0.27068 -0.607425,-0.59562 -0.103119,-0.44001 -0.184885,-0.3298 -0.502226,0.67691 -0.48493,1.53838 -0.478447,1.6078 0.114188,1.22268 0.271281,-0.1763 0.715196,-0.45799 0.986477,-0.62599 z m 62.880396,-49.02899 c -0.15203,-0.15203 -0.56793,0.15686 -0.56793,0.42179 0,0.14536 0.12579,0.12873 0.33413,-0.0442 0.18377,-0.15252 0.28898,-0.32245 0.2338,-0.37762 z"
       id="path4316"
       inkscape:connector-curvature="0" />
    <path
       style="fill:#000000;fill-opacity:1;stroke:#000000;stroke-width:0.220094;stroke-linejoin:round;stroke-miterlimit:4;stroke-dasharray:none;stroke-opacity:1"
       d="m 121.73106,241.15982 c -0.70654,-0.52131 -6.24905,-4.81638 -12.31668,-9.5446 -6.06764,-4.72822 -11.559585,-8.94702 -12.204329,-9.3751 l -1.172262,-0.77834 -1.387135,0.94046 c -1.513136,1.02589 -5.513629,3.93264 -16.293899,11.83914 -7.951894,5.8321 -8.97259,6.55097 -9.301421,6.55097 -0.533036,0 -0.747786,0.7352 5.026562,-17.20854 4.386234,-13.63019 4.619584,-14.40172 4.484531,-14.82724 -0.157115,-0.49501 -3.738274,-3.4177 -17.50657,-14.28759 l -11.158818,-8.80974 1.732481,-0.0781 c 0.952865,-0.0429 7.355401,0.0501 14.227858,0.20666 15.875449,0.36173 18.654953,0.37249 18.956076,0.0733 0.313189,-0.31114 0.956988,-2.11582 6.4065,-17.95853 5.607969,-16.30338 5.220683,-15.21125 5.442804,-15.34852 0.100952,-0.0624 0.262217,0.0115 0.358368,0.16415 0.09615,0.15268 2.546672,7.67618 5.445604,16.71889 l 5.27079,16.44128 3.72186,0.14045 c 2.04702,0.0772 8.161,0.14932 13.58662,0.16016 5.42563,0.0108 10.87591,0.0216 12.11175,0.024 1.23584,0.002 2.24698,0.0829 2.24698,0.179 0,0.0961 -1.64774,1.50184 -3.66164,3.12384 -20.84458,16.7883 -22.86364,18.46275 -22.86364,18.96126 0,0.1704 1.96442,6.35418 4.36536,13.74172 6.63358,20.41103 6.48011,19.8988 5.96196,19.8988 -0.1073,0 -0.77317,-0.42652 -1.47971,-0.94783 z m -1.04918,-3.3817 c -0.0775,-0.33157 -0.24949,-0.87737 -0.38217,-1.2129 -0.21438,-0.54209 -0.2807,-0.57485 -0.5953,-0.29401 -0.19473,0.17382 -0.59263,0.3497 -0.88422,0.39083 -0.47853,0.0675 -0.4155,0.15486 0.64718,0.89686 0.64754,0.45213 1.21742,0.82206 1.26639,0.82206 0.049,0 0.0256,-0.27128 -0.0519,-0.60284 z m -48.425232,-0.95515 0.747375,-0.4619 -0.502281,-0.48164 c -0.276256,-0.26491 -0.549935,-0.44509 -0.608175,-0.40042 -0.164787,0.12641 -0.629514,1.80587 -0.499704,1.80587 0.06347,0 0.451729,-0.20786 0.862785,-0.46191 z"
       id="path4318"
       inkscape:connector-curvature="0" />
    <path
       style="fill:#000000;fill-opacity:1;stroke:#000000;stroke-width:0.220094;stroke-linejoin:round;stroke-miterlimit:4;stroke-dasharray:none;stroke-opacity:1"
       d="m 122.90661,242.00486 c -0.32387,-0.16803 -5.59701,-4.19301 -11.7181,-8.94441 -12.957289,-10.05789 -14.666775,-11.33999 -15.120192,-11.33999 -0.440517,0 -1.968239,1.07688 -14.09448,9.93507 -12.071592,8.81827 -12.019974,8.78114 -12.693086,9.13236 -0.525094,0.27399 -0.526164,0.27212 -0.390719,-0.68246 0.0747,-0.52646 1.658192,-5.6923 3.518872,-11.47963 5.228932,-16.2637 6.057458,-18.9289 6.057458,-19.48558 0,-0.33155 -0.352538,-0.84191 -0.982995,-1.42304 -0.985471,-0.90838 -12.653502,-10.23973 -22.195832,-17.75083 -2.801378,-2.20506 -5.159841,-4.11668 -5.24103,-4.24804 -0.14766,-0.23892 0.847344,-0.23155 26.143825,0.19367 l 8.575213,0.14415 0.672308,-1.74335 c 0.709262,-1.83917 2.388239,-6.66511 7.501483,-21.56173 3.117509,-9.08236 3.580357,-10.3032 3.906177,-10.3032 0.175539,0 3.007055,8.57923 8.067158,24.44271 1.53836,4.82277 2.90065,8.84116 3.02731,8.92974 0.12667,0.0886 6.59308,0.16327 14.36981,0.16597 13.6378,0.005 17.09894,0.096 17.09894,0.45086 0,0.0916 -4.5598,3.85056 -10.13288,8.35336 -12.3898,10.0104 -15.76284,12.79449 -16.11865,13.30425 -0.22146,0.31728 -0.21332,0.58013 0.0422,1.36451 6.50336,19.96131 10.51034,32.63681 10.36355,32.78359 -0.0371,0.0371 -0.3325,-0.07 -0.65637,-0.23798 z m -2.3886,-4.66518 c -0.26415,-0.97851 -0.56979,-1.36646 -0.79315,-1.00674 -0.0854,0.13755 -0.4019,0.2857 -0.70333,0.32924 -0.52327,0.0756 -0.50444,0.11125 0.41652,0.78936 0.53051,0.39061 1.04046,0.71021 1.13322,0.71021 0.0928,0 0.0688,-0.36993 -0.0533,-0.82207 z m -48.196651,-0.66277 0.480083,-0.38874 -0.450224,-0.40745 c -0.442356,-0.40032 -0.454147,-0.39711 -0.675011,0.1838 -0.414425,1.09002 -0.198181,1.29528 0.645152,0.61239 z"
       id="path4320"
       inkscape:connector-curvature="0" />
    <path
       style="fill:#000000;fill-opacity:1;stroke:#000000;stroke-width:0.220094;stroke-linejoin:round;stroke-miterlimit:4;stroke-dasharray:none;stroke-opacity:1"
       d="m 121.46193,241.01992 c -0.96947,-0.71883 -5.68844,-4.34719 -10.4866,-8.06302 -12.888847,-9.98153 -13.290742,-10.28802 -14.173983,-10.80914 l -0.812579,-0.47944 -1.253014,0.82982 c -0.68916,0.4564 -6.28405,4.49524 -12.433091,8.9752 -6.14904,4.47997 -11.641762,8.45878 -12.206048,8.84181 -1.053771,0.71529 -1.495022,0.8577 -1.495022,0.48251 0,-0.30766 1.520726,-5.18033 5.474954,-17.54268 4.257067,-13.30914 4.445859,-13.94641 4.283305,-14.45857 -0.178758,-0.56321 -8.953044,-7.68664 -24.178901,-19.62969 -2.305657,-1.80854 -4.196764,-3.36225 -4.202459,-3.45267 -0.01484,-0.23567 7.428699,-0.20728 21.872378,0.0834 10.688662,0.21512 12.609982,0.20731 12.860367,-0.0523 0.341418,-0.35396 1.43795,-3.41295 6.98524,-19.48667 4.775827,-13.83836 4.765603,-13.81068 5.102294,-13.81068 0.25076,0 1.893894,4.86812 6.437319,19.07189 1.09916,3.43623 2.58838,8.03347 3.30938,10.2161 l 1.31089,3.96842 1.99918,0.1419 c 1.09955,0.078 7.8289,0.14299 14.95412,0.14432 12.52571,0.002 14.59907,0.0672 14.59907,0.45699 0,0.10055 -3.13207,2.72219 -6.96015,5.82587 -19.33133,15.67323 -19.34591,15.68552 -19.34591,16.32338 0,0.22653 1.91728,6.35479 4.26061,13.61835 4.50355,13.95948 6.26181,19.54663 6.26181,19.8979 0,0.41271 -0.4155,0.20275 -2.16316,-1.09305 z m -1.1173,-4.04025 c -0.24562,-0.74423 -0.24953,-0.74604 -0.905,-0.41905 l -0.6583,0.32841 0.83255,0.62287 c 0.92764,0.694 1.09517,0.57198 0.73075,-0.53223 z m -48.054095,-0.31632 c 0.463628,-0.35667 0.477814,-0.41952 0.155122,-0.68733 -0.39663,-0.32917 -0.64662,-0.15873 -0.874766,0.5964 -0.178872,0.59204 0.03338,0.61886 0.719644,0.0909 z"
       id="path4322"
       inkscape:connector-curvature="0" />
    <path
       style="fill:#000000;fill-opacity:1;stroke:#000000;stroke-width:0.220094;stroke-linejoin:round;stroke-miterlimit:4;stroke-dasharray:none;stroke-opacity:1"
       d="m 122.63862,241.92092 c -0.36171,-0.22237 -4.20897,-3.14896 -8.54947,-6.50353 -12.49359,-9.65572 -16.381082,-12.62384 -17.274988,-13.18953 l -0.8337,-0.52759 -1.796905,1.25778 c -0.988297,0.69177 -6.877263,4.95108 -13.086588,9.46512 -6.209325,4.51404 -11.512057,8.30911 -11.783847,8.43348 -1.104857,0.5056 -1.352037,1.43973 4.362808,-16.48757 2.405344,-7.5455 4.430038,-14.17437 4.499322,-14.73082 l 0.125966,-1.01173 -1.725968,-1.47342 c -2.265831,-1.93429 -9.325052,-7.60341 -18.824906,-15.11792 -4.219929,-3.33802 -7.701711,-6.15151 -7.737292,-6.2522 -0.129167,-0.36554 1.869347,-0.37807 17.481114,-0.10965 8.735045,0.15018 16.202115,0.22109 16.593488,0.15758 0.688035,-0.11165 0.743874,-0.20347 1.687018,-2.77418 0.536488,-1.46229 2.902001,-8.2323 5.256698,-15.04448 5.25365,-15.19889 5.388892,-15.56441 5.758753,-15.56441 0.288777,0 1.162589,2.59039 8.518997,25.25433 1.39722,4.30461 2.65076,7.89477 2.78564,7.97813 0.13488,0.0834 7.17827,0.21137 15.65197,0.28446 8.47371,0.0731 15.48378,0.21005 15.57793,0.30435 0.26454,0.26492 -0.42868,0.85861 -11.20562,9.59677 -11.63179,9.4313 -14.35475,11.6938 -14.76027,12.26428 -0.32914,0.46303 -0.65942,-0.6513 5.55504,18.74189 3.88351,12.11911 4.71128,14.78837 4.71128,15.1921 0,0.36091 -0.21788,0.32928 -0.98647,-0.14324 z m -2.08257,-4.05529 c 0,-0.21957 -0.49594,-1.45762 -0.5839,-1.45762 -0.0564,0 -0.31255,0.11238 -0.56919,0.24973 -0.46193,0.24721 -0.46013,0.25493 0.17882,0.76617 0.58522,0.46825 0.97427,0.64464 0.97427,0.44172 z m -48.223369,-1.35331 c 0.152514,-0.18377 0.21817,-0.39325 0.145905,-0.46551 -0.224492,-0.2245 -0.807954,0.11053 -0.807954,0.46393 0,0.42936 0.306415,0.43009 0.662049,0.002 l 0,5e-5 z"
       id="path4324"
       inkscape:connector-curvature="0" />
    <path
       style="fill:#000000;fill-opacity:1;stroke:#000000;stroke-width:0.220094;stroke-linejoin:round;stroke-miterlimit:4;stroke-dasharray:none;stroke-opacity:1"
       d="m 121.98096,241.51588 c -0.60284,-0.44006 -5.15185,-3.92919 -10.10891,-7.75362 -13.098523,-10.10565 -15.389208,-11.82258 -15.77338,-11.82258 -0.450732,0 -0.439898,-0.008 -14.297551,10.03012 -6.545462,4.74116 -12.144136,8.73116 -12.4415,8.86665 -1.159342,0.52823 -1.271059,0.98696 3.18729,-13.08752 4.293585,-13.55433 5.465158,-17.37504 5.617371,-18.31923 0.125989,-0.78151 0.124522,-0.78313 -3.238604,-3.5734 -1.850559,-1.53533 -8.223052,-6.65007 -14.161096,-11.36607 -5.938044,-4.716 -10.796444,-8.6443 -10.796444,-8.72955 0,-0.36631 2.258123,-0.40395 12.604985,-0.21013 6.028472,0.11293 13.449178,0.20824 16.49046,0.21181 l 5.529603,0.006 0.306446,-0.60285 c 0.357953,-0.70417 0.743916,-1.79507 6.495592,-18.35943 4.924079,-14.18094 4.990706,-14.35872 5.38132,-14.35872 0.286508,0 1.991443,4.99554 8.203358,24.03622 1.57914,4.84034 2.99231,8.90089 3.14038,9.02343 0.17191,0.14227 5.82898,0.2892 15.65125,0.40649 8.46012,0.10103 15.4641,0.26737 15.56442,0.36965 0.26059,0.2657 -0.74871,1.13413 -10.96535,9.43488 -10.93741,8.88636 -14.6116,11.95447 -14.91675,12.45614 -0.16072,0.26422 -0.14588,0.68377 0.0504,1.42491 0.21394,0.80786 8.14933,25.8616 9.80541,30.95781 0.64471,1.98395 0.35872,2.19027 -1.32868,0.9585 z m -1.74779,-4.39497 c -0.2033,-0.81003 -0.2835,-0.85812 -0.71364,-0.42798 -0.34511,0.34511 -0.34131,0.38896 0.06,0.69244 0.63752,0.48209 0.82224,0.40735 0.65362,-0.26446 z m -47.890479,-1.0054 c -0.189695,-0.18969 -0.302919,-0.17115 -0.458613,0.0751 -0.336128,0.53167 -0.244555,0.6879 0.248524,0.42401 0.347917,-0.1862 0.399784,-0.30942 0.210089,-0.49912 z"
       id="path4326"
       inkscape:connector-curvature="0" />
    <path
       style="fill:#000000;fill-opacity:1;stroke:#000000;stroke-width:0.220094;stroke-linejoin:round;stroke-miterlimit:4;stroke-dasharray:none;stroke-opacity:1"
       d="m 120.61685,240.53004 c -1.29942,-0.98826 -6.16051,-4.71699 -10.80244,-8.28607 -10.403936,-7.99937 -12.682942,-9.71981 -13.335332,-10.06692 -0.633237,-0.33692 -0.178864,-0.62916 -9.463246,6.08648 -18.329156,13.25797 -18.414239,13.31559 -18.414239,12.46961 0,-0.52604 0.875342,-3.43414 4.282231,-14.22662 3.300643,-10.45592 4.961596,-15.88368 5.231566,-17.09603 0.111244,-0.49955 -0.04855,-0.7452 -1.129836,-1.73687 -0.692671,-0.63526 -7.054958,-5.78708 -14.138411,-11.44848 -7.083454,-5.66141 -12.879007,-10.36873 -12.879007,-10.46072 0,-0.092 0.261059,-0.23278 0.58013,-0.31286 0.319072,-0.0801 7.95338,-0.0267 16.96513,0.11858 9.011749,0.14531 16.54889,0.2013 16.749204,0.12443 0.553681,-0.21247 0.908671,-1.14636 6.09145,-16.02517 6.449132,-18.51427 5.966762,-17.22155 6.426109,-17.22155 0.355891,0 1.096018,2.11011 5.689931,16.22207 2.13909,6.57103 4.2782,13.0455 4.75357,14.3877 l 0.86431,2.44037 3.1102,0.13309 c 1.71061,0.0732 8.43717,0.18804 14.94792,0.2552 6.51075,0.0672 12.21639,0.17701 12.6792,0.24411 l 0.84147,0.12199 -0.62225,0.65562 c -0.34224,0.36059 -3.53237,3.03306 -7.08917,5.93883 -3.55679,2.90577 -8.34121,6.81385 -10.63203,8.68462 -5.97385,4.87847 -7.76624,6.43619 -7.90704,6.8718 -0.13715,0.42433 -0.0971,0.55619 5.95189,19.58194 2.34131,7.36411 4.25693,13.60358 4.25693,13.86548 0,0.27322 -0.13761,0.4762 -0.32283,0.4762 -0.17755,0 -1.38599,-0.80857 -2.68541,-1.79683 z m -0.42388,-3.41915 c -0.12855,-0.49154 -0.60377,-0.6509 -0.83334,-0.27945 -0.11201,0.18124 0.75229,0.97065 0.90048,0.82245 0.0326,-0.0326 0.002,-0.27698 -0.0671,-0.543 z m -47.965281,-0.71747 c 0.235937,-0.38175 -0.03278,-0.4626 -0.333442,-0.10032 -0.172908,0.20834 -0.18954,0.33413 -0.04418,0.33413 0.128216,0 0.298144,-0.10521 0.377619,-0.23381 z"
       id="path4328"
       inkscape:connector-curvature="0" />
    <path
       style="fill:#000000;fill-opacity:1;stroke:#000000;stroke-width:0.220094;stroke-linejoin:round;stroke-miterlimit:4;stroke-dasharray:none;stroke-opacity:1"
       d="m 121.76724,241.41632 c -0.69936,-0.50081 -6.21503,-4.70674 -12.25704,-9.34654 -12.612917,-9.68573 -13.073979,-10.01479 -13.772539,-9.82938 -0.275652,0.0732 -5.433572,3.6967 -11.462044,8.05232 -16.641209,12.0234 -15.859449,11.528 -15.596456,9.88333 0.07348,-0.45953 1.523206,-5.26861 3.221608,-10.68683 5.188534,-16.55241 6.12716,-19.65992 6.12716,-20.28517 0,-0.74532 0.01774,-0.73028 -15.948046,-13.5288 -6.661461,-5.33997 -12.111747,-9.80089 -12.111747,-9.91315 0,-0.11226 0.248299,-0.26643 0.551775,-0.3426 0.303476,-0.0762 7.949057,-0.032 16.990181,0.0982 9.041125,0.13019 16.580269,0.18227 16.753653,0.11574 0.46086,-0.17685 1.224551,-2.16464 5.043373,-13.12725 5.984393,-17.17928 6.734076,-19.27881 7.078021,-19.82236 0.326844,-0.51652 0.344693,-0.51957 0.644218,-0.10994 0.169435,0.23171 2.672243,7.58027 5.561803,16.33013 2.88955,8.74986 5.37627,16.0764 5.52604,16.28121 0.24883,0.34028 1.55727,0.39094 15.17907,0.58765 8.19872,0.1184 15.24008,0.27142 15.64746,0.34005 l 0.74069,0.12479 -0.74069,0.77273 c -0.40738,0.425 -5.48246,4.65456 -11.27794,9.39901 -13.78483,11.2849 -13.99988,11.47244 -14.07806,12.27704 -0.0355,0.36487 0.79755,3.37884 1.90589,6.89585 1.08288,3.43623 3.35546,10.63334 5.05018,15.99358 1.69471,5.36024 3.08129,9.97202 3.08129,10.2484 0,0.71786 -0.41188,0.62739 -1.85785,-0.40804 z m -1.73933,-4.48747 c -0.1125,-0.29314 -0.20169,-0.31713 -0.40888,-0.10994 -0.2072,0.2072 -0.19506,0.30824 0.0556,0.46318 0.4082,0.25228 0.5364,0.12409 0.35324,-0.35324 z m -47.699626,-0.64339 c 0,-0.0532 -0.09865,-0.0967 -0.219217,-0.0967 -0.12057,0 -0.219218,0.10447 -0.219218,0.23216 0,0.12768 0.09865,0.17118 0.219218,0.0967 0.120569,-0.0745 0.219217,-0.17899 0.219217,-0.23216 z"
       id="path4330"
       inkscape:connector-curvature="0" />
    <path
       style="fill:#000000;fill-opacity:1;stroke:none;stroke-width:0.220094;stroke-linejoin:round;stroke-miterlimit:4;stroke-dasharray:none;stroke-opacity:1"
       d="m 122.07335,241.67766 c -0.53309,-0.35707 -4.07666,-3.0364 -7.87459,-5.95407 C 103.2676,227.326 97.665582,223.0961 96.794165,222.58195 l -0.807179,-0.47624 -1.578475,1.04961 c -0.868164,0.57729 -6.117386,4.31914 -11.664938,8.31522 -10.070757,7.25429 -13.194647,9.44363 -13.813841,9.68123 -0.242337,0.093 -0.328139,-0.0317 -0.328139,-0.47674 0,-0.74751 0.07525,-1.00107 4.71456,-15.88553 2.085693,-6.6916 4.018675,-12.99542 4.295516,-14.00848 l 0.503346,-1.84194 -1.207636,-1.12406 c -0.6642,-0.61824 -4.999633,-4.17439 -9.634293,-7.90256 -15.907398,-12.79609 -17.327273,-13.96702 -17.242433,-14.21944 0.06362,-0.18928 4.395266,-0.23133 17.199415,-0.16696 l 17.114381,0.086 0.433954,-0.8533 c 0.52757,-1.03737 1.572909,-3.93991 6.623336,-18.39066 4.675146,-13.37697 4.754719,-13.59221 5.144665,-13.91583 0.246106,-0.20425 0.375661,-0.12173 0.654052,0.41662 0.190936,0.36923 2.647123,7.60313 5.458194,16.07533 2.81107,8.47221 5.22506,15.61706 5.36442,15.87745 0.35919,0.67116 0.92173,0.70273 16.99728,0.95394 7.70013,0.12033 14.15307,0.30431 14.33986,0.40884 0.29186,0.16334 0.26521,0.26424 -0.18956,0.71765 -0.63835,0.63643 -5.71816,4.84989 -15.42489,12.79422 -7.38718,6.04592 -9.63189,7.99125 -9.98723,8.6552 -0.27965,0.52253 0.24624,2.38269 4.27529,15.12264 6.0022,18.97911 5.96665,18.85267 5.30003,18.85267 -0.16018,0 -0.72741,-0.29214 -1.2605,-0.64921 z m -2.06534,-4.612 c -0.0745,-0.12057 -0.23413,-0.21922 -0.3547,-0.21922 -0.12057,0 -0.15825,0.0986 -0.0837,0.21922 0.0745,0.12057 0.23413,0.21922 0.3547,0.21922 0.12057,0 0.15825,-0.0986 0.0837,-0.21922 z"
       id="path4332"
       inkscape:connector-curvature="0" />
    <path
       style="fill:#000000;fill-opacity:1;stroke:#000000;stroke-width:0.3112599;stroke-linejoin:round;stroke-miterlimit:4;stroke-dasharray:none;stroke-opacity:1"
       d="m 83.419577,316.17267 0,-31.00198 -0.852554,-0.005 c -0.468905,-0.003 -3.192047,0.22697 -6.051426,0.51066 -2.859379,0.28369 -5.282764,0.43191 -5.385299,0.32938 -0.154585,-0.15458 5.466439,-44.80774 5.964138,-47.37884 l 0.157961,-0.81602 9.671512,-0.19351 c 5.319331,-0.10644 13.682391,-0.27895 18.584581,-0.38337 l 8.91307,-0.18984 0,53.07251 0,53.0725 1.62761,-0.18466 c 1.86203,-0.21127 11.85058,-1.10003 12.36288,-1.10003 0.34227,0 0.28153,0.57732 -0.39957,3.79774 -0.33329,1.57588 -0.75264,1.91049 -0.97133,0.77505 l -0.13436,-0.69754 -0.0422,0.69754 -0.0422,0.69755 -21.23488,0 -21.234896,0 -0.08046,-31.54452 -0.08046,-31.54452 -0.07602,31.54452 c -0.05006,20.77232 -0.181888,31.54452 -0.386039,31.54452 -0.204613,0 -0.31002,-10.54068 -0.31002,-31.00199 z m 43.900103,28.60579 c -0.10302,-0.10302 -0.17629,0.0801 -0.16283,0.4069 0.0149,0.36116 0.0883,0.43462 0.1873,0.18731 0.0896,-0.2238 0.0786,-0.49119 -0.0245,-0.59421 l -10e-6,0 z m -7.14314,-1.25276 c -0.21241,-0.21241 -6.37502,0.27551 -6.37502,0.50474 0,0.10951 1.46601,0.0724 3.25781,-0.0825 1.79179,-0.1549 3.19454,-0.3449 3.11721,-0.42223 z m 7.57587,-0.0896 c 0,-0.52383 -0.21073,-0.59705 -1.6276,-0.56551 -0.89518,0.0199 -2.53441,0.13939 -3.64273,0.26545 -1.90022,0.21614 -1.8396,0.22839 1.06298,0.21483 2.51389,-0.0118 3.13631,0.0779 3.39564,0.48901 0.38968,0.61777 0.81171,0.40784 0.81171,-0.40378 z M 77.06417,284.8687 c 1.77573,-0.20483 1.49419,-0.22885 -1.5491,-0.13218 -2.167575,0.0689 -3.763601,0.25124 -3.825571,0.43715 -0.06907,0.20722 0.473751,0.25353 1.5491,0.13218 0.910488,-0.10275 2.631995,-0.29947 3.825571,-0.43715 z m 4.727803,-0.53176 c -0.298394,-0.078 -0.786675,-0.078 -1.085069,0 -0.298395,0.078 -0.05425,0.14178 0.542534,0.14178 0.596788,0 0.840929,-0.0638 0.542535,-0.14178 z m -9.63781,-1.72391 c -0.086,-0.21314 -0.15637,-0.0388 -0.15637,0.38752 0,0.42628 0.07037,0.60066 0.15637,0.38752 0.086,-0.21313 0.086,-0.56191 0,-0.77504 z m 0.308053,-2.17604 c -0.08492,-0.2099 -0.149233,0.0369 -0.142915,0.54843 0.0063,0.51153 0.0758,0.68327 0.154403,0.38163 0.0786,-0.30164 0.07343,-0.72017 -0.01149,-0.93006 z m 0.320371,-2.31925 c -0.07798,-0.2984 -0.141779,-0.0543 -0.141779,0.54253 0,0.59679 0.0638,0.84093 0.141779,0.54254 0.07798,-0.2984 0.07798,-0.78668 0,-1.08507 z m 0.31002,-2.48016 c -0.07798,-0.2984 -0.141779,-0.0543 -0.141779,0.54253 0,0.59679 0.0638,0.84093 0.141779,0.54254 0.07798,-0.2984 0.07798,-0.78668 0,-1.08507 z m 0.31002,-2.17014 c -0.07798,-0.29839 -0.141779,-0.0543 -0.141779,0.54253 0,0.59679 0.0638,0.84093 0.141779,0.54254 0.07798,-0.29839 0.07798,-0.78668 0,-1.08507 z m 0.31002,-2.48016 c -0.07798,-0.29839 -0.141779,-0.0543 -0.141779,0.54254 0,0.59678 0.0638,0.84092 0.141779,0.54253 0.07798,-0.29839 0.07798,-0.78667 0,-1.08507 z m 0.309323,-2.48377 c -0.0776,-0.29641 -0.138267,0.0191 -0.134826,0.70116 0.0034,0.68204 0.06693,0.92455 0.141083,0.53892 0.07416,-0.38564 0.07134,-0.94368 -0.0063,-1.24008 z m 0.31002,-2.48016 c -0.0776,-0.29641 -0.138267,0.0191 -0.134826,0.70116 0.0034,0.68204 0.06693,0.92456 0.141083,0.53892 0.07415,-0.38564 0.07134,-0.94368 -0.0063,-1.24008 z m 0.310716,-2.16653 c -0.07798,-0.29839 -0.141779,-0.0543 -0.141779,0.54254 0,0.59679 0.0638,0.84093 0.141779,0.54253 0.07798,-0.29839 0.07798,-0.78667 0,-1.08507 z m 0.309324,-2.48377 c -0.07759,-0.2964 -0.138268,0.0191 -0.134827,0.70116 0.0034,0.68204 0.06693,0.92456 0.141084,0.53892 0.07415,-0.38564 0.07134,-0.94367 -0.0063,-1.24008 z m 0.655267,-4.25916 c -0.01167,-0.68602 -0.08096,-0.564 -0.26406,0.46503 -0.13653,0.7673 -0.241115,1.81362 -0.232412,2.32515 0.01167,0.68602 0.08096,0.56401 0.264061,-0.46503 0.13653,-0.7673 0.241115,-1.81361 0.232411,-2.32515 z m 2.365034,-14.99825 c 0.254752,-1.2581 0.528482,-2.35274 0.608289,-2.43255 0.209783,-0.20978 4.389593,-0.66844 8.869215,-0.97323 3.868662,-0.26322 3.863834,-0.26374 -2.840433,-0.30792 l -6.715682,-0.0443 -0.188648,1.16258 c -0.439497,2.70846 -2.033366,15.4565 -2.004663,16.03364 0.01723,0.34646 0.431244,-2.02075 0.920032,-5.26045 0.488787,-3.23971 1.097138,-6.91973 1.35189,-8.17782 z m 17.460515,-3.98379 c -0.639416,-0.0669 -1.685733,-0.0669 -2.325149,0 -0.639416,0.0669 -0.116257,0.12161 1.162575,0.12161 1.278831,0 1.80199,-0.0547 1.162574,-0.12161 z"
       id="path4334"
       inkscape:connector-curvature="0" />
    <path
       style="fill:#000000;fill-opacity:1;stroke:#000000;stroke-width:0.3112599;stroke-linejoin:round;stroke-miterlimit:4;stroke-dasharray:none;stroke-opacity:1"
       d=""
       id="path4336"
       inkscape:connector-curvature="0" />
    <path
       style="fill:#000000;fill-opacity:1;stroke:#000000;stroke-width:0.3112599;stroke-linejoin:round;stroke-miterlimit:4;stroke-dasharray:none;stroke-opacity:1"
       d=""
       id="path4338"
       inkscape:connector-curvature="0" />
    <path
       style="fill:#000000;fill-opacity:1;stroke:#000000;stroke-width:0.15562995;stroke-linejoin:round;stroke-miterlimit:4;stroke-dasharray:none;stroke-opacity:1"
       d="m 83.240563,289.0156 -0.04151,-3.75899 -0.93006,0.0426 c -0.511532,0.0234 -3.251924,0.25923 -6.08976,0.524 -2.837835,0.26477 -5.201487,0.43962 -5.25256,0.38854 -0.05107,-0.0511 0.130624,-1.82147 0.40377,-3.93421 0.273147,-2.11275 1.329503,-10.3634 2.34746,-18.33478 2.074748,-16.2469 3.214177,-24.92465 3.378683,-25.73165 l 0.110595,-0.54254 6.426154,-0.10994 c 3.534385,-0.0605 11.692616,-0.21772 18.129405,-0.34944 6.43679,-0.13172 11.96483,-0.2392 12.28454,-0.23883 l 0.58128,6.7e-4 0,27.90179 0,27.90178 -15.653244,0 -15.653246,0 -0.04151,-3.75899 z m -8.644559,-4.00625 c 0.454251,-0.0815 0.156891,-0.0958 -0.852554,-0.0411 -0.852555,0.0463 -1.6168,0.14794 -1.698323,0.22594 -0.154431,0.14776 1.27457,0.0442 2.550877,-0.18487 z m 3.023002,-41.54663 c 0.291839,-1.67278 0.614349,-3.22519 0.716689,-3.4498 0.27654,-0.60694 1.068233,-0.75474 6.490964,-1.21179 l 2.402654,-0.20251 -4.493401,-0.0412 c -2.47137,-0.0226 -4.570992,-0.0114 -4.665827,0.025 -0.09483,0.0364 -0.21403,0.4037 -0.264879,0.81624 -0.05085,0.41254 -0.375194,2.88799 -0.720768,5.50099 -0.660495,4.99424 -0.797248,6.6055 -0.294052,3.46461 0.163903,-1.02307 0.536782,-3.22876 0.82862,-4.90153 z"
       id="path4340"
       inkscape:connector-curvature="0" />
    <path
       style="fill:#000000;fill-opacity:1;stroke:#000000;stroke-width:0.15562995;stroke-linejoin:round;stroke-miterlimit:4;stroke-dasharray:none;stroke-opacity:1"
       d="m 77.797713,240.82311 c 0.04745,-0.5669 0.13402,-1.26444 0.192374,-1.5501 l 0.106097,-0.51938 2.861455,-0.0218 2.861456,-0.0219 -1.861328,0.19505 c -1.744324,0.18278 -2.568339,0.30855 -3.215412,0.49075 -0.354249,0.0998 -0.591646,0.5568 -0.833945,1.60554 l -0.196973,0.85255 0.08628,-1.03072 z"
       id="path4342"
       inkscape:connector-curvature="0" />
    <path
       style="fill:#000000;fill-opacity:1;stroke:#000000;stroke-width:0.15562995;stroke-linejoin:round;stroke-miterlimit:4;stroke-dasharray:none;stroke-opacity:1"
       d="m 83.275631,290.33318 c -5.12e-4,-1.34277 -0.04573,-3.01688 -0.10048,-3.72023 l -0.09955,-1.27884 -0.480807,-0.003 c -0.264444,-0.002 -2.974421,0.21949 -6.022172,0.49111 -3.04775,0.27162 -5.590321,0.44489 -5.650157,0.38506 -0.109078,-0.10909 0.465489,-4.7476 3.765959,-30.40282 1.632983,-12.6935 2.357535,-18.09378 2.435026,-18.14887 0.03713,-0.0264 35.70143,-0.69585 36.72882,-0.68943 l 0.73629,0.005 0,27.90179 0,27.90178 -15.655997,0 -15.656002,0 -9.3e-4,-2.44141 z m -9.882761,-5.26371 c -0.192819,-0.0371 -0.471837,-0.0357 -0.62004,0.003 -0.148203,0.0388 0.0096,0.0691 0.35058,0.0674 0.341022,-0.002 0.462279,-0.0335 0.26946,-0.0705 l 0,-10e-6 z m 3.47495,-37.9095 c -0.04246,-0.10494 -0.07462,0.0185 -0.07146,0.27422 0.0032,0.25577 0.0379,0.34163 0.0772,0.19081 0.0393,-0.15082 0.03672,-0.36008 -0.0057,-0.46503 z m 0.862118,-5.66996 c -0.08895,-0.26687 -0.223227,0.39867 -0.468052,2.31995 -0.452097,3.54786 -0.411221,3.72401 0.140794,0.60673 0.290913,-1.64281 0.407542,-2.68583 0.327258,-2.92668 z m 0.209852,-0.89227 c 0,-0.64954 -0.03554,-0.78892 -0.14095,-0.55269 -0.114933,0.25757 -0.03004,1.42126 0.103685,1.42126 0.0205,0 0.03727,-0.39086 0.03727,-0.86857 z m 0.160084,-0.17452 c -0.05151,-0.0515 -0.08814,0.04 -0.08141,0.20345 0.0074,0.18058 0.04417,0.21731 0.09365,0.0936 0.04478,-0.1119 0.03927,-0.24559 -0.01224,-0.2971 z m 0.758588,-1.74709 c 0.358811,0 1.09858,0.0479 1.643933,0.10639 0.76476,0.0821 0.902915,0.13171 0.604026,0.21706 -0.313424,0.0895 -0.328244,0.11345 -0.07751,0.12517 0.170511,0.008 0.519115,-0.0945 0.774675,-0.22778 0.3642,-0.1899 0.732834,-0.22052 1.705109,-0.14166 0.732743,0.0594 1.399066,0.0361 1.627979,-0.057 0.279345,-0.11359 -0.638665,-0.16032 -3.288507,-0.16741 -3.481157,-0.009 -3.684538,0.006 -3.836496,0.29001 -0.08825,0.1649 -0.153342,0.42648 -0.144639,0.58129 0.0089,0.15777 0.08684,0.0601 0.177434,-0.22233 0.148516,-0.46297 0.214461,-0.50378 0.813991,-0.50378 z m 0.464248,0.62181 c 0.05431,-0.0879 -0.0079,-0.11385 -0.145862,-0.0609 -0.268542,0.10305 -0.317675,0.21416 -0.0947,0.21416 0.08022,0 0.188478,-0.069 0.240566,-0.15324 z m 1.008661,-0.16386 c 0.169807,-0.11491 0.107099,-0.1293 -0.232515,-0.0533 -0.56996,0.12749 -0.693687,0.21621 -0.297102,0.21304 0.163406,-0.001 0.401734,-0.0732 0.529617,-0.15971 z m 2.517104,-0.25756 c -0.192819,-0.0371 -0.471836,-0.0357 -0.620039,0.003 -0.148204,0.0388 0.0096,0.0691 0.350579,0.0674 0.341022,-0.002 0.462279,-0.0335 0.26946,-0.0705 z"
       id="path4344"
       inkscape:connector-curvature="0" />
    <path
       style="fill:#000000;fill-opacity:1;stroke:#000000;stroke-width:0.15562995;stroke-linejoin:round;stroke-miterlimit:4;stroke-dasharray:none;stroke-opacity:1"
       d="m 83.19586,289.05435 c -0.06255,-2.04613 -0.157176,-3.72273 -0.210278,-3.72578 -0.0531,-0.003 -2.761898,0.2206 -6.01955,0.49699 -3.257651,0.2764 -5.977727,0.44781 -6.044612,0.38093 -0.12777,-0.12777 0.675711,-6.68117 3.613382,-29.47171 1.840468,-14.27839 2.472075,-18.97254 2.564801,-19.06179 0.05199,-0.05 18.782029,-0.43753 31.404817,-0.6497 l 6.08414,-0.10226 0,27.92678 0,27.92678 -15.639483,0 -15.639487,0 -0.11373,-3.72024 z m -5.52505,-46.8905 -0.0063,-0.46503 -0.122754,0.51938 c -0.06752,0.28566 -0.160879,0.9832 -0.207474,1.5501 l -0.08472,1.03072 0.213815,-1.08507 c 0.117598,-0.59679 0.210961,-1.29433 0.207473,-1.5501 z m 4.52068,-3.53204 c 0.127884,-0.0474 -0.360398,-0.0795 -1.085069,-0.0714 -0.724671,0.008 -1.003689,0.0419 -0.62004,0.0751 0.38365,0.0331 0.760547,0.1223 0.837549,0.19818 0.077,0.0759 0.251389,0.0809 0.387525,0.0112 0.136136,-0.0697 0.352152,-0.16561 0.480035,-0.21302 z m 2.208892,0.0967 c -0.10657,-0.043 -0.280956,-0.043 -0.387525,0 -0.106569,0.043 -0.01938,0.0782 0.193762,0.0782 0.213139,0 0.300332,-0.0352 0.193763,-0.0782 z"
       id="path4346"
       inkscape:connector-curvature="0" />
    <path
       style="fill:#000000;fill-opacity:1;stroke:#000000;stroke-width:0.44018799;stroke-linejoin:round;stroke-miterlimit:4;stroke-dasharray:none;stroke-opacity:1"
       d="m 34.454507,411.76311 c 0.296835,-0.1201 0.888721,-0.12741 1.315303,-0.0162 0.426582,0.11117 0.183718,0.20943 -0.539699,0.21836 -0.723416,0.009 -1.072438,-0.082 -0.775604,-0.20211 z"
       id="path4348"
       inkscape:connector-curvature="0" />
    <path
       style="fill:#000000;fill-opacity:1;stroke:#000000;stroke-width:0.220094;stroke-linejoin:round;stroke-miterlimit:4;stroke-dasharray:none;stroke-opacity:1"
       d="m 31.285427,411.39052 c -0.663132,-0.14512 -1.40299,-0.3897 -1.644129,-0.54351 -0.398771,-0.25436 -0.380314,-0.26721 0.204017,-0.1421 0.673285,0.14417 3.864682,0.53215 4.61876,0.56151 0.438434,0.0171 0.438434,0.0171 0,0.20547 -0.605727,0.26029 -1.751385,0.23096 -3.178648,-0.0814 z"
       id="path4350"
       inkscape:connector-curvature="0" />
    <path
       style="fill:#000000;fill-opacity:1;stroke:#000000;stroke-width:0.220094;stroke-linejoin:round;stroke-miterlimit:4;stroke-dasharray:none;stroke-opacity:1"
       d=""
       id="path4352"
       inkscape:connector-curvature="0" />
    <path
       style="fill:#000000;fill-opacity:1;stroke:#000000;stroke-width:0.220094;stroke-linejoin:round;stroke-miterlimit:4;stroke-dasharray:none;stroke-opacity:1"
       d=""
       id="path4354"
       inkscape:connector-curvature="0" />
    <path
       style="fill:#000000;fill-opacity:1;stroke:#000000;stroke-width:0.220094;stroke-linejoin:round;stroke-miterlimit:4;stroke-dasharray:none;stroke-opacity:1"
       d=""
       id="path4356"
       inkscape:connector-curvature="0" />
    <path
       style="fill:#000000;fill-opacity:1;stroke:#000000;stroke-width:0.220094;stroke-linejoin:round;stroke-miterlimit:4;stroke-dasharray:none;stroke-opacity:1"
       d="m 35.779378,411.47189 c -0.587905,-0.25263 1.423547,-0.26224 2.630605,-0.0126 0.790035,0.16341 0.724909,0.18234 -0.657651,0.19117 -0.843986,0.005 -1.731815,-0.075 -1.972954,-0.1786 z"
       id="path4358"
       inkscape:connector-curvature="0" />
    <path
       style="fill:#000000;fill-opacity:1;stroke:#000000;stroke-width:0.220094;stroke-linejoin:round;stroke-miterlimit:4;stroke-dasharray:none;stroke-opacity:1"
       d=""
       id="path4360"
       inkscape:connector-curvature="0" />
    <path
       style="fill:#000000;fill-opacity:1;stroke:#000000;stroke-width:0.07781497;stroke-linejoin:round;stroke-miterlimit:4;stroke-dasharray:none;stroke-opacity:1"
       d="m 39.03338,411.57068 c 0,-0.0476 -0.07847,-0.12113 -0.174386,-0.16346 -0.123387,-0.0545 0.05227,-0.0652 0.600664,-0.0367 0.426277,0.0222 1.245892,0.0451 1.821366,0.0509 0.890932,0.009 0.971502,0.0191 0.542535,0.0681 -1.055499,0.12043 -2.790179,0.17088 -2.790179,0.0811 z"
       id="path4362"
       inkscape:connector-curvature="0" />
    <path
       style="fill:#000000;fill-opacity:1;stroke:#000000;stroke-width:0.07781497;stroke-linejoin:round;stroke-miterlimit:4;stroke-dasharray:none;stroke-opacity:1"
       d=""
       id="path4364"
       inkscape:connector-curvature="0" />
    <path
       style="fill:#000000;fill-opacity:1;stroke:#000000;stroke-width:0.07781497;stroke-linejoin:round;stroke-miterlimit:4;stroke-dasharray:none;stroke-opacity:1"
       d="m 28.687805,410.31434 c -0.240587,-0.21988 -0.518078,-0.55993 -0.616645,-0.75567 -0.338206,-0.67161 -0.365051,-1.01682 -0.298907,-3.84361 l 0.06166,-2.63517 0.05179,2.32515 c 0.02848,1.27883 0.09175,2.53442 0.140581,2.79018 0.04883,0.25577 0.114515,0.66113 0.145956,0.9008 0.03144,0.23967 0.117666,0.5281 0.19161,0.64095 0.150937,0.23036 0.720218,0.66714 0.869523,0.66714 0.05921,0 0.08149,0.0607 0.05684,0.15501 -0.02229,0.0853 -0.06853,0.15501 -0.102755,0.15501 -0.03422,0 -0.259064,-0.1799 -0.499652,-0.39979 z"
       id="path4366"
       inkscape:connector-curvature="0" />
    <path
       style="fill:#000000;fill-opacity:1;stroke:#000000;stroke-width:0.07781497;stroke-linejoin:round;stroke-miterlimit:4;stroke-dasharray:none;stroke-opacity:1"
       d="m 34.89759,411.29542 c -0.03331,-0.0868 0.01209,-0.11626 0.179131,-0.11626 0.270181,0 0.468936,0.0692 0.468936,0.1633 0,0.12306 -0.599492,0.0795 -0.648067,-0.047 z"
       id="path4368"
       inkscape:connector-curvature="0" />
    <path
       style="fill:#000000;fill-opacity:1;stroke:#000000;stroke-width:0.92265087;stroke-linejoin:round;stroke-miterlimit:4;stroke-dasharray:none;stroke-opacity:1"
       d="m 133.20448,389.44893 c 0.0151,-0.43029 3.65646,-24.05672 8.09179,-52.50318 4.43532,-28.44646 7.86546,-52.01669 7.62256,-52.3783 -0.24293,-0.36161 -3.02546,-0.65746 -6.1834,-0.65746 -5.46516,0 -5.71688,-0.095 -5.22534,-1.97241 0.52226,-1.99479 8.19066,-41.64786 8.19066,-42.35365 0,-0.20998 7.53194,-0.38179 16.73767,-0.38179 l 16.73768,0 0.44202,12.93021 c 0.39603,11.58428 -0.0239,16.32923 -4.03471,45.58446 l -4.47677,32.65426 10.41796,0 c 9.76889,0 10.41801,-0.10898 10.41801,-1.74979 0,-0.9624 -1.92256,-16.24853 -4.27234,-33.9692 -2.34975,-17.72067 -4.56254,-37.39465 -4.91729,-43.71996 l -0.64498,-11.50056 3.23139,-0.52307 c 1.77727,-0.28767 7.33305,-0.59266 12.34618,-0.67773 l 9.11477,-0.15471 12.01741,74.18288 c 6.60956,40.80056 11.81263,74.36915 11.56238,74.59688 -0.54303,0.49412 -28.06398,2.33788 -28.53254,1.91153 -0.17853,-0.16247 -1.179,-4.39365 -2.22325,-9.40264 -1.04422,-5.00898 -2.12428,-9.9948 -2.40011,-11.07963 -0.49327,-1.94015 -0.74374,-1.9724 -15.31314,-1.9724 l -14.81162,0 -0.62353,8.10877 c -0.34296,4.45983 -0.86059,9.58808 -1.15034,11.39611 l -0.52677,3.28735 -9.88942,0 c -5.43916,0 -12.55409,0.25344 -15.81095,0.56319 -3.29725,0.3136 -5.90933,0.21648 -5.89398,-0.21916 z"
       id="path4370"
       inkscape:connector-curvature="0" />
    <path
       style="fill:#000000;fill-opacity:1;stroke:#000000;stroke-width:0.88037598;stroke-linejoin:round;stroke-miterlimit:4;stroke-dasharray:none;stroke-opacity:1"
       d="m 248.85767,389.78348 c -0.026,-0.12057 -3.10196,-23.69737 -6.83551,-52.3929 l -6.78828,-52.17367 -8.13376,-1.01245 c -4.47357,-0.55685 -8.29962,-1.1783 -8.50233,-1.38101 -0.3543,-0.3543 6.2154,-38.94188 7.1724,-42.12759 0.42773,-1.42382 1.7691,-1.53438 15.95813,-1.3153 l 15.49115,0.23918 5.14241,47.78934 c 2.82833,26.28413 5.3195,47.9752 5.53595,48.20237 1.18563,1.24441 2.12242,-5.85861 6.45536,-48.94672 l 4.75021,-47.2375 9.67228,-0.5574 c 5.31976,-0.30658 12.37855,-0.55921 15.68621,-0.5614 5.78234,-0.004 5.99711,0.072 5.57716,1.96897 -0.24022,1.08512 -4.70427,34.75981 -9.92011,74.83264 l -9.48334,72.85968 -18.8924,1.02616 c -19.35377,1.05121 -22.80317,1.16992 -22.88553,0.7876 z"
       id="path4372"
       inkscape:connector-curvature="0" />
    <path
       style="fill:#000000;fill-opacity:1;stroke:#000000;stroke-width:0.88037598;stroke-linejoin:round;stroke-miterlimit:4;stroke-dasharray:none;stroke-opacity:1"
       d="m 364.65154,389.08434 c -9.88669,-0.32652 -22.01517,-0.64805 -26.95217,-0.71452 l -8.97636,-0.12086 0.5705,-51.73524 0.5705,-51.73525 -5.70264,0 -5.70263,0 4.22561,-22.92661 c 2.32409,-12.60964 4.33242,-23.02915 4.46295,-23.15447 0.35872,-0.3444 68.34921,1.22307 68.7102,1.58406 0.17237,0.17237 0.5839,9.66283 0.91451,21.08991 l 0.6011,20.77651 -18.11452,0 -18.11452,0 0,8.19712 0,8.19713 13.23631,0.5087 c 7.27997,0.27978 13.36868,0.64107 13.53046,0.80285 0.16178,0.16178 -0.77355,7.78594 -2.07851,16.94257 l -2.37266,16.64844 -12.58431,0.24397 -12.58431,0.24397 0.6312,8.96315 c 0.34715,4.92973 0.80067,9.13644 1.0078,9.34824 0.20714,0.2118 8.25955,0.55811 17.89425,0.76957 l 17.51764,0.38449 0,18.30231 0,18.30232 -6.3573,-0.16234 c -3.49651,-0.0893 -14.44641,-0.4295 -24.3331,-0.75602 z"
       id="path4374"
       inkscape:connector-curvature="0" />
    <path
       style="fill:#000000;fill-opacity:1;stroke:#020000;stroke-width:0.88037598;stroke-linejoin:round;stroke-miterlimit:4;stroke-dasharray:none;stroke-opacity:1"
       d="m 441.65829,394.32769 c -12.7425,-1.73187 -20.9109,-6.90737 -26.01459,-16.48288 -3.63044,-6.81142 -5.65734,-14.91385 -8.52843,-34.09203 -2.01704,-13.4733 -2.33024,-18.34345 -2.32648,-36.17572 0.005,-23.0252 1.32173,-35.0973 5.0353,-46.15984 4.33919,-12.92622 9.79148,-19.29308 21.03102,-24.55879 6.12609,-2.87005 7.84826,-3.28904 13.59147,-3.30661 7.27302,-0.0223 18.67536,2.95652 29.15588,7.61677 l 5.91886,2.63187 0,27.50395 0,27.50396 -8.76869,0 -8.76868,0 0,-5.72135 c 0,-5.42592 -0.12452,-5.77054 -2.41139,-6.67409 -3.58613,-1.41688 -11.85689,-1.38618 -14.55743,0.054 -5.40682,2.8835 -9.04199,16.26026 -9.90682,36.45528 -0.63843,14.90843 0.70372,21.56851 5.97043,29.62675 2.67622,4.09472 4.35692,5.83304 5.66097,5.85508 3.05775,0.0516 6.17571,-3.11215 7.2426,-7.34915 1.10944,-4.40599 1.23381,-18.96222 0.2385,-27.91346 l -0.65814,-5.91886 13.41776,0 13.41776,0 -0.11019,20.82563 c -0.0606,11.45409 -0.35655,26.54704 -0.65765,33.53988 l -0.54747,12.71426 -4.38434,2.38788 c -6.3544,3.46087 -18.06876,7.55662 -22.95838,8.02706 -2.3235,0.22355 -6.86034,0.0482 -10.08187,-0.38963 z"
       id="path4376"
       inkscape:connector-curvature="0" />
    <path
       style="fill:#000000;fill-opacity:1;stroke:none;stroke-width:0.88037598;stroke-linejoin:round;stroke-miterlimit:4;stroke-dasharray:none;stroke-opacity:1"
       d="m 503.33376,393.2368 c -0.73618,-0.88704 0.0419,-1.8942 3.4001,-4.40135 3.36243,-2.51029 4.35526,-3.79671 4.35707,-5.64549 10e-4,-1.31691 0.80428,-15.38293 1.78442,-31.25782 1.68263,-27.25297 1.70246,-29.40571 0.35549,-38.58221 -0.78461,-5.34533 -1.59417,-9.88977 -1.79902,-10.09876 -0.81249,-0.82887 -1.93513,1.5323 -3.4428,7.241 -1.21546,4.60226 -1.76847,5.64812 -2.39478,4.52897 -0.51517,-0.92055 -0.45199,-2.8943 0.17196,-5.37222 0.56152,-2.23002 0.73184,-5.83538 0.39545,-8.3712 l -0.59086,-4.45417 -1.59264,2.0885 c -1.39064,1.82362 -1.52472,3.2212 -1.05721,11.01987 0.37157,6.19817 0.20465,9.72992 -0.54545,11.54082 -1.67873,4.05281 0.17811,16.2848 4.35004,28.65609 1.94727,5.77433 3.42962,11.68254 3.29412,13.12938 -0.17729,1.89297 -0.97418,-8.4e-4 -2.84194,-6.75387 -1.88032,-6.79845 -3.35213,-10.28563 -5.34107,-12.65467 l -2.7455,-3.2702 -0.57243,6.95502 c -0.38813,4.71573 -0.0325,11.46214 1.10468,20.95361 l 1.67711,13.99857 -3.21699,2.78625 c -4.1464,3.59123 -4.91223,2.29961 -2.2311,-3.76289 l 2.10524,-4.76032 -1.32635,-13.22589 c -0.72949,-7.27425 -1.32635,-15.73546 -1.32635,-18.8027 0,-5.28119 -0.11007,-5.5768 -2.07654,-5.5768 l -2.07653,0 -0.59118,-19.94876 c -0.32515,-10.97181 -0.8193,-21.64392 -1.09811,-23.71577 -0.48799,-3.62622 -0.56875,-3.71109 -2.16044,-2.27062 -0.90943,0.82301 -1.89775,1.25214 -2.19628,0.95362 -0.29853,-0.29853 0.78202,-6.18209 2.40121,-13.07458 2.8112,-11.96653 2.94469,-13.30948 2.95954,-29.77234 0.015,-16.65773 0.0822,-17.31174 1.98784,-19.34691 l 1.97229,-2.10638 -2.58734,-2.47882 c -1.42303,-1.36335 -2.83416,-3.60261 -3.13583,-4.97613 -0.30168,-1.37353 -0.9138,-2.72308 -1.36028,-2.99902 -0.49187,-0.304 -0.49677,-1.0903 -0.0124,-1.99529 0.4685,-0.8754 0.48529,-3.12168 0.0406,-5.42721 -2.08199,-10.79335 0.056,-17.9487 5.18544,-17.3543 3.58312,0.41521 5.65739,5.58091 6.09324,15.1744 0.24007,5.28407 0.78697,8.37823 1.65509,9.36385 1.07973,1.22587 1.11606,1.97116 0.21729,4.45668 -0.97715,2.70225 -0.86121,3.35673 1.22532,6.91713 2.80575,4.78765 4.94089,20.69376 4.98415,37.13029 l 0.0277,10.5278 2.16446,-2.46028 2.16446,-2.46029 0,-23.16187 0,-23.16187 2.63061,-1.94489 c 3.24427,-2.39859 3.77546,-7.24924 0.87687,-8.00724 -1.33646,-0.34949 -1.75374,-1.19606 -1.75374,-3.55799 0,-1.70466 -0.41064,-3.35317 -0.91253,-3.66336 -0.50878,-0.31444 -0.64032,-1.40429 -0.2973,-2.46314 0.81391,-2.51241 0.4531,-9.24335 -0.60107,-11.2131 -1.13812,-2.1266 1.31642,-8.13617 4.05639,-9.93147 1.98034,-1.29757 2.24623,-1.23959 4.78778,1.04396 2.38414,2.14211 2.74674,3.11775 3.17991,8.5559 0.33071,4.15193 0.0298,8.08986 -0.92981,12.16994 -1.59747,6.7918 -1.80258,6.23076 4.84753,13.25924 l 4.14831,4.38435 2.69812,17.39484 c 2.16797,13.97697 2.69812,20.12632 2.69812,31.29631 0,8.32176 -0.35195,14.11897 -0.87687,14.44338 -0.48227,0.29807 -0.88291,3.57673 -0.89029,7.28592 -0.008,4.18446 -0.30392,6.28535 -0.77883,5.53555 -0.42098,-0.66463 -1.18099,-0.95158 -1.68892,-0.63766 -1.33954,0.82789 -1.69551,-6.53542 -0.41944,-8.67633 2.55404,-4.28502 2.04868,-24.99076 -0.60994,-24.99076 -1.88539,0 -3.80786,12.49739 -3.09904,20.14586 0.33634,3.62925 0.56753,14.52141 0.51375,24.20481 l -0.0978,17.60617 3.63994,10.01519 c 2.00197,5.50835 5.13451,15.86629 6.9612,23.01763 l 3.32126,13.00245 -1.63423,5.71461 c -1.81227,6.33718 -3.27764,8.71506 -4.57262,7.42008 -0.52509,-0.5251 -0.18587,-2.56148 0.91913,-5.51759 l 1.75138,-4.68534 -7.36581,-21.04484 c -4.0512,-11.57467 -7.61445,-22.73264 -7.91834,-24.79548 -0.78504,-5.3291 -1.77052,-5.33004 -3.35242,-0.004 -4.21035,14.17778 -4.46751,18.63514 -2.53841,43.99769 0.44313,5.82595 0.30196,7.04857 -0.891,7.71617 -0.86042,0.48183 -1.41756,1.9349 -1.41756,3.69741 0,2.71704 -0.31515,3.02437 -4.90081,4.7792 -5.75793,2.20343 -5.99206,2.2269 -7.23836,0.72519 z"
       id="path4378"
       inkscape:connector-curvature="0" />
    <path
       style="fill:#000000;fill-opacity:1;stroke:#000000;stroke-width:0.88037598;stroke-linejoin:round;stroke-miterlimit:4;stroke-dasharray:none;stroke-opacity:1"
       d="m 548.34561,396.12478 c -0.3035,-0.49107 0.28868,-2.25281 1.31596,-3.91498 1.85968,-3.00903 1.86185,-3.08442 0.50007,-17.41055 -0.75224,-7.91363 -1.36771,-16.57347 -1.36771,-19.24408 0,-4.3713 -0.27585,-5.08778 -2.76538,-7.18258 l -2.76539,-2.32692 0.59204,-15.7701 0.59204,-15.7701 -2.97902,0.55887 -2.97902,0.55887 -1.86258,-6.13216 c -2.39542,-7.8864 -2.34734,-8.3096 0.46477,-4.0905 1.28004,1.92049 2.45428,3.64668 2.60941,3.83598 0.72813,0.88846 2.95505,-2.10921 2.95505,-3.97781 0,-1.39291 0.74062,-2.44105 2.19217,-3.10243 1.2057,-0.54935 2.19217,-1.2978 2.19217,-1.66322 0,-0.36542 0.23741,-1.28307 0.52758,-2.03923 0.36053,-0.93954 -0.19473,-1.64945 -1.75374,-2.24219 -1.38932,-0.52821 -2.28131,-1.54131 -2.28131,-2.59104 0,-0.94803 -0.42029,-1.98344 -0.93399,-2.30093 -0.6241,-0.38571 -0.50143,-1.05749 0.36972,-2.0247 1.03662,-1.15092 1.13794,-2.33092 0.49455,-5.75974 -0.44504,-2.37176 -0.99262,-4.49574 -1.21685,-4.71997 -0.98447,-0.98447 4.08051,-3.82912 5.92041,-3.32509 4.15575,1.13845 5.31942,2.88941 5.73358,8.6273 0.29214,4.04739 0.82364,5.7839 2.02915,6.62958 2.49952,1.75346 1.97276,3.42746 -1.88103,5.97778 -3.62311,2.39766 -3.65082,3.99166 -0.089,5.12213 1.02309,0.32471 2.11223,2.81227 3.42829,7.83013 1.06086,4.04482 1.92883,7.60468 1.92883,7.91081 0,0.30613 -1.18377,-0.0556 -2.6306,-0.80374 -1.44683,-0.74818 -2.63061,-1.03314 -2.63061,-0.63324 0,0.3999 1.39875,4.84918 3.10833,9.88729 2.66991,7.8682 3.02986,9.8622 2.55202,14.1374 -0.36712,3.28472 -1.13555,5.50142 -2.25976,6.51882 -0.93691,0.84789 -2.5385,2.89272 -3.55908,4.54406 -1.76629,2.85791 -1.82665,3.70488 -1.2539,17.59506 0.33095,8.02595 0.95185,16.12548 1.37978,17.99898 0.67184,2.94129 0.47183,3.86908 -1.46492,6.79573 -2.30749,3.48685 -3.25342,4.04752 -4.212,2.49651 z"
       id="path4380"
       inkscape:connector-curvature="0" />
    <path
       style="fill:#000000;fill-opacity:1;stroke:none;stroke-width:0.88037598;stroke-linejoin:round;stroke-miterlimit:4;stroke-dasharray:none;stroke-opacity:1"
       d="m 347.5526,217.18368 c -9.9541,-4.56058 -13.84194,-5.43967 -19.16764,-4.33406 -4.67375,0.97027 -4.87206,0.92843 -9.46357,-1.99636 -7.29789,-4.64877 -10.35478,-5.47758 -16.47178,-4.46593 -5.21923,0.86317 -5.25746,0.85373 -9.44382,-2.33154 -2.89212,-2.20053 -6.11816,-3.6479 -10.34146,-4.63971 -6.61164,-1.55272 -9.65441,-3.93742 -10.57118,-8.28494 -0.27484,-1.30338 -0.67641,-3.24421 -0.89237,-4.31297 -0.64203,-3.17737 -9.14535,-10.98567 -15.54983,-14.27887 l -5.96855,-3.06904 0.39933,-3.94591 c 0.21963,-2.17025 1.4608,-6.88291 2.75815,-10.47258 1.5527,-4.29621 2.79045,-10.42541 3.62183,-17.93501 0.84795,-7.65917 1.71402,-11.9067 2.63537,-12.92479 1.25709,-1.38906 1.14446,-1.84767 -1.34087,-5.45999 -3.18327,-4.62671 -3.1427,-4.31305 -1.17872,-9.11402 1.37985,-3.37306 1.77131,-3.69977 3.88378,-3.24145 2.23675,0.48529 2.3784,0.30754 2.95778,-3.71145 1.30039,-9.020528 2.57954,-10.407483 10.15001,-11.005413 2.60361,-0.205639 3.72432,-0.965475 6.17537,-4.186867 4.34342,-5.708505 8.59487,-5.543369 15.97872,0.62065 1.39501,1.164556 4.55174,3.124221 7.01494,4.354813 2.46321,1.230593 6.15487,3.280338 8.20369,4.554989 4.21343,2.621346 4.61682,4.401388 2.41295,10.647798 -0.72341,2.05038 -1.3153,4.29196 -1.3153,4.98128 0,1.51427 8.3977,5.3649 14.50098,6.6492 6.13891,1.29178 9.00231,0.39503 10.54756,-3.30327 1.70889,-4.08996 1.58599,-7.59473 -0.63151,-18.008709 l -1.88902,-8.871377 3.10636,-3.10636 3.10636,-3.106361 10.5591,1.505869 c 9.38864,1.338948 11.03855,1.365316 14.88461,0.237878 3.68814,-1.081145 5.39912,-1.097158 11.61122,-0.108669 4.00713,0.637627 7.54841,1.466399 7.86952,1.841715 0.32111,0.375317 2.29951,4.936706 4.39644,10.13642 2.09695,5.199714 4.23263,9.783944 4.74597,10.187184 0.51334,0.40323 3.1036,1.42576 5.75613,2.27228 2.65253,0.84652 6.72132,2.33882 9.04176,3.31621 l 4.21898,1.77709 -3.55742,3.62475 -3.55742,3.62475 5.48836,5.43957 c 4.62635,4.58523 6.10624,5.52617 9.42242,5.99092 3.38757,0.47477 4.99615,1.54223 11.57958,7.68425 l 7.6455,7.1329 -2.82273,3.74925 -2.82272,3.74925 -7.78636,-0.24178 -7.78635,-0.24177 -2.02373,8.97089 c -2.92233,12.95427 -5.54919,17.69463 -16.82871,30.36857 -3.49526,3.92735 -4.3829,5.45731 -3.66678,6.32019 0.76213,0.91831 0.0344,1.0445 -3.76355,0.65252 -4.55166,-0.46978 -4.84969,-0.36367 -8.95199,3.18684 -6.04707,5.23371 -7.40695,5.96935 -12.32707,6.66848 -4.27686,0.60772 -9.98652,3.05176 -16.20979,6.93866 l -3.08131,1.9245 -5.26122,-2.41047 z"
       id="path4382"
       inkscape:connector-curvature="0" />
    <path
       style="fill:#000000;fill-opacity:1;stroke:#000000;stroke-width:0.90070128;stroke-linejoin:round;stroke-miterlimit:4;stroke-dasharray:none;stroke-opacity:1"
       d="m 566.34018,411.88866 -2.19075,-0.55734 0.14425,-18.08551 c 0.15944,-19.99087 1.03671,-38.37991 4.28057,-89.72801 3.62971,-57.45569 10.50823,-148.10865 10.80156,-142.35511 0.0643,1.26283 1.3001,18.00102 2.74602,37.19601 5.4599,72.48157 11.36953,162.00784 12.6706,191.9498 0.28533,6.56669 0.70328,13.59261 0.92877,15.61313 0.69911,6.2646 0.3511,6.42295 -14.23287,6.47665 -7.12656,0.0263 -13.94323,-0.20308 -15.14815,-0.50962 z"
       id="path4384"
       inkscape:connector-curvature="0" />
    <path
       style="fill:#000000;fill-opacity:1;stroke:#000000;stroke-width:0.88111043;stroke-linejoin:round;stroke-miterlimit:4;stroke-dasharray:none;stroke-opacity:1"
       d="m 62.572375,407.02683 c -0.299855,-1.40564 -0.682021,-3.24618 -0.849255,-4.09009 -0.288975,-1.45824 10.424758,-1.52829 215.92268,-1.41185 118.92472,0.0674 231.04995,0.36331 249.1672,0.65759 l 32.94045,0.53507 0.27526,2.84956 0.27526,2.84957 -149.1661,4.2e-4 c -82.04138,2.4e-4 -193.90831,0.26256 -248.5932,0.58293 l -99.427101,0.58252 -0.545194,-2.55572 z"
       id="path4388"
       inkscape:connector-curvature="0" />
    <path
       style="fill:#000000;fill-opacity:1;stroke:#000000;stroke-width:3.04639125;stroke-linejoin:round;stroke-miterlimit:4;stroke-dasharray:none;stroke-opacity:1"
       d="M 554.80129,150.89824 C 502.07317,129.43464 332.97625,54.445363 335.46185,53.627947 c 1.5612,-0.513416 152.40513,42.537987 213.61137,60.965453 40.05212,12.05856 42.11367,12.78405 42.4309,14.93221 0.15621,1.05776 -1.35949,5.80678 -3.36824,10.55339 -2.00874,4.74658 -4.38801,10.62666 -5.28723,13.06683 -1.47078,3.99112 -3.9791,6.23367 -6.86384,6.13659 -0.35176,-0.0119 -9.88435,-3.78472 -21.18352,-8.38418 z"
       id="path4390"
       inkscape:connector-curvature="0" />
  </g>
  <path
     style="fill:none;fill-rule:evenodd;stroke:#000000;stroke-width:1px;stroke-linecap:butt;stroke-linejoin:miter;stroke-opacity:1"
     d="m 85.565476,187.25198 11.160715,-33.48214 10.540679,33.48214 31.00198,-0.62004 -26.66171,21.08135 11.16072,33.48215 L 96.106151,220.11409 69.444444,239.95536 79.985119,208.33333 51.463294,186.0119 Z"
     id="path4203"
     inkscape:connector-curvature="0"
     sodipodi:nodetypes="ccccccccccc" />
  <path
     style="fill:none;fill-rule:evenodd;stroke:#000000;stroke-width:1px;stroke-linecap:butt;stroke-linejoin:miter;stroke-opacity:1"
     d="m 77.50496,238.09524 -6.200396,47.74305 12.400793,-1.24008 0,106.02679 34.722223,0 9.92063,-48.36309 -14.26091,1.24007 0,-106.02678 z"
     id="path4205"
     inkscape:connector-curvature="0"
     sodipodi:nodetypes="ccccccccc" />
  <path
     style="fill:none;fill-rule:evenodd;stroke:none;stroke-width:1px;stroke-linecap:butt;stroke-linejoin:miter;stroke-opacity:1"
     d="m 486.73115,212.05357 c 0,0 -2.8283,-10.32555 -0.62004,-13.64087 2.20826,-3.31532 3.61167,-6.38856 8.99058,-4.34028 2.51372,0.95722 4.18847,8.16878 4.53524,13.00686 0.39524,5.51454 -0.65656,8.78027 0.73509,10.86467 2.61259,3.91312 3.1002,2.17014 3.1002,2.17014 0,0 -2.90704,4.0378 -2.79018,6.51041 0.11686,2.47261 1.86956,1.02649 3.72024,6.82044 1.85068,5.79395 3.41022,28.52183 3.41022,28.52183 l -0.31002,14.26091 2.79018,-3.72024 -0.31002,-45.57292 5.89038,-4.96031 0,-3.72024 -3.41022,-0.31002 -0.31002,-6.51042 -2.17014,-2.79018 1.5501,-4.03026 -0.31002,-6.20039 -2.17014,-3.41022 3.1002,-8.06052 4.96032,-3.10019 6.51041,4.96031 0.62004,13.9509 -2.48016,10.85069 2.79018,4.34028 7.44048,7.13045 5.58036,36.58235 0,26.04166 -1.5501,1.5501 -0.31002,12.4008 4.34027,6.51041 1.86012,-1.5501 -0.31002,-4.03026 4.6503,-2.17013 0.62004,-2.79018 -3.72024,-1.5501 -0.62004,-3.41022 -2.17014,-2.17014 2.79018,-3.1002 -0.62004,-4.96031 -1.5501,-4.6503 5.89038,-4.34028 7.44048,4.34028 0.93006,11.47073 3.72023,2.48016 -1.55009,4.34028 -5.58036,3.1002 0.62004,0.93006 3.72024,1.5501 7.75049,28.83184 -1.24008,16.43105 -0.93006,-12.71081 -1.86012,-3.41022 -0.62004,-11.78075 -4.34027,-2.17014 5.89037,17.36111 -0.31002,10.54067 -6.82043,7.7505 -0.62004,11.47073 1.5501,22.01141 1.24008,4.34028 -5.89038,8.99058 -3.72024,-3.41022 4.34028,-6.82044 -2.48016,-26.97173 0,-10.85069 -5.89038,-4.6503 1.24008,-31.00198 -5.58035,1.24008 -4.6503,-15.19097 -3.1002,1.55009 -0.31002,-9.92063 2.17014,-2.79018 1.24008,-13.64087 -2.17014,-8.99058 -2.79018,13.9509 1.86012,13.95089 -0.62004,16.12103 0.31002,18.29117 7.44048,20.46131 6.20039,24.49157 -3.41022,12.09077 -3.41021,4.03026 -2.17014,-3.41022 3.41022,-9.92063 -14.88096,-42.78274 -0.62004,-6.51042 c -10.91243,34.85956 -2.0668,36.78902 -3.1002,55.18353 l -3.10019,1.86012 0.62004,5.27034 -12.09078,4.96032 -4.03026,-3.72024 9.3006,-6.82044 3.72024,-62.62401 -2.79018,-18.91121 -3.41022,11.78076 -0.93006,2.79018 -2.79018,-4.34028 1.86012,-8.06052 -0.62004,-7.13045 -2.17014,3.41022 1.24008,6.51041 0,5.89038 c 0,0 0.62004,5.27034 -0.93006,6.82044 -1.5501,1.55009 0.93006,18.29117 0.93006,18.29117 l 7.13046,21.39136 -0.62004,10.8507 -6.82044,-24.18155 -4.34028,-5.58036 -0.31002,13.9509 3.1002,26.6617 -7.44047,6.51042 -2.17014,-2.79018 4.34028,-9.92063 -2.17014,-22.94147 -0.31002,-13.64087 -4.03026,0 -1.86012,-46.813 -3.41022,2.79018 -1.24008,9.61061 0,-13.64087 6.51042,-28.21181 -1.5501,-9.30059 c 0,0 -0.76748,-16.12372 0.93006,-20.15129 1.69754,-4.02757 3.1002,-4.34028 3.1002,-4.34028 l -4.03026,-4.03026 -1.86012,-5.58035 -1.5501,-1.24008 1.5501,-3.1002 z"
     id="path4250"
     inkscape:connector-curvature="0"
     sodipodi:nodetypes="czsssczzccccccccccccccccccccccccccccccccccccccccccccccccccccccccccccccccccccccccccccccccccccccccccccccccsccccccccccccccccccczcccccc" />
  <path
     style="fill:none;fill-rule:evenodd;stroke:none;stroke-width:1px;stroke-linecap:butt;stroke-linejoin:miter;stroke-opacity:1"
     d="m 312.5,112.84722 c 0,0 16.46407,8.98912 21.70139,5.58036 5.23732,-3.40876 2.48016,-14.88095 2.48016,-14.88095 l -3.1002,-14.880956 6.82044,-6.820436 21.08135,3.100198 9.30059,-2.480158 15.50099,2.480158 8.68056,21.081354 13.02083,4.34027 7.44048,3.72024 -7.44048,7.44048 10.54068,9.92063 8.06051,1.24008 15.50099,14.88096 -6.82043,8.68055 -14.88096,-1.24008 c 0,0 -2.3931,15.40067 -6.20039,22.94147 -3.80729,7.5408 -16.74107,21.08135 -16.74107,21.08135 l 4.96031,5.58036 c 0,0 -6.05277,-3.76214 -12.40079,-3.1002 -3.49582,0.36453 -6.37849,5.57234 -11.6062,8.50702 -4.26523,2.39437 -6.98458,0.95515 -11.33527,2.65369 -4.35069,1.69854 -14.26091,8.06052 -14.26091,8.06052 0,0 -13.50536,-6.91417 -18.60119,-7.44048 -5.09583,-0.52631 -10.54068,1.86012 -10.54068,1.86012 0,0 -9.55661,-7.07066 -14.26091,-8.06052 -4.7043,-0.98986 -12.40079,1.24008 -12.40079,1.24008 l -8.68056,-6.82043 c 0,0 -11.12014,-1.33431 -14.26091,-4.34028 -3.14077,-3.00597 -3.72024,-10.54068 -3.72024,-10.54068 0,0 -3.82318,-5.89082 -7.44047,-8.68055 -3.61729,-2.78973 -14.26092,-8.06052 -14.26092,-8.06052 l 0.62004,-8.06051 2.48016,-4.96032 3.1002,-11.78075 1.86012,-19.22123 2.48016,-3.1002 -5.58036,-8.68056 4.34028,-9.92063 4.34028,1.86012 c 0,0 0.15342,-10.11816 3.10019,-13.020838 2.94677,-2.902678 11.16072,-2.480159 11.16072,-2.480159 0,0 3.94808,-8.035478 8.68055,-8.680555 4.73247,-0.645077 14.26092,8.060516 14.26092,8.060516 l 8.68055,4.340278 c 0,0 5.3938,2.811339 6.82044,4.340277 1.42664,1.528941 0.62004,5.580361 0.62004,5.580361 z"
     id="path4252"
     inkscape:connector-curvature="0"
     sodipodi:nodetypes="czccccccccccccccczccsszczczcczczccccccccczczcczcc" />
</svg>
